<svg xmlns="http://www.w3.org/2000/svg" width="99.782" height="99.774" viewBox="0 0 99.782 99.774">
  <g id="np_community-network_1551028_000000" transform="translate(-0.164 0.021)">
    <path id="Path_748" data-name="Path 748" d="M9.859,59.91a41.02,41.02,0,0,0,4.488,10.965A10.273,10.273,0,0,0,28.742,85.391a40.942,40.942,0,0,0,10.926,4.586,10.288,10.288,0,0,0,10.18,9.277h.039A10.293,10.293,0,0,0,60.1,90.062,40.978,40.978,0,0,0,71.067,85.57a10.265,10.265,0,0,0,13.762-.629,10.3,10.3,0,0,0,.75-13.758,41,41,0,0,0,4.586-10.926,10.269,10.269,0,0,0,.09-20.434,41.121,41.121,0,0,0-4.488-10.969A10.272,10.272,0,0,0,71.372,14.343,40.942,40.942,0,0,0,60.446,9.757a10.272,10.272,0,0,0-20.438-.086,41.1,41.1,0,0,0-10.965,4.488A10.272,10.272,0,0,0,14.527,28.55,40.966,40.966,0,0,0,9.941,39.48a10.267,10.267,0,0,0-.082,20.43ZM18.23,42.461a10.243,10.243,0,0,0-3.672-2.371A36.287,36.287,0,0,1,18.207,31.4,10.255,10.255,0,0,0,31.859,17.859a36.325,36.325,0,0,1,8.723-3.574,10.247,10.247,0,0,0,9.59,6.727h.047a10.283,10.283,0,0,0,9.594-6.648,36.381,36.381,0,0,1,8.7,3.648,10.257,10.257,0,0,0,13.543,13.66A36.381,36.381,0,0,1,85.625,40.4a10.259,10.259,0,0,0-3.754,16.859,10.176,10.176,0,0,0,3.664,2.371,36.473,36.473,0,0,1-3.645,8.688,10.265,10.265,0,0,0-13.66,13.551A36.288,36.288,0,0,1,59.5,85.445a10.251,10.251,0,0,0-19.223-.086,36.381,36.381,0,0,1-8.7-3.648A10.257,10.257,0,0,0,18.043,68.05a36.288,36.288,0,0,1-3.574-8.727A10.287,10.287,0,0,0,21.2,49.742a10.166,10.166,0,0,0-2.969-7.281Zm.027,38.926a5.654,5.654,0,1,1,7.992.035,5.784,5.784,0,0,1-7.992-.035Zm31.625,13.25h-.023a5.667,5.667,0,0,1-5.633-5.68,6.566,6.566,0,0,1,.082-.793v0a5.644,5.644,0,1,1,5.574,6.477Zm31.7-12.977a5.8,5.8,0,0,1-8-.035,5.656,5.656,0,1,1,8,.035Zm13.25-31.6a5.669,5.669,0,0,1-5.652,5.633v.078c-.008,0-.02,0-.027-.008v-.07c-.113,0-.223-.027-.332-.035h0a2.223,2.223,0,0,0-.477-.051,5.61,5.61,0,0,1-4.82-5.6,5.656,5.656,0,0,1,11.313.051ZM81.852,18.34a5.649,5.649,0,0,1-.035,8,5.79,5.79,0,0,1-8-.035,5.656,5.656,0,1,1,8.035-7.961ZM50.247,5.086A5.656,5.656,0,0,1,50.227,16.4H50.2a5.655,5.655,0,0,1-5.633-5.68,5.672,5.672,0,0,1,5.676-5.633ZM18.532,18.063A5.656,5.656,0,1,1,26.5,26.094a5.793,5.793,0,0,1-8-.039,5.644,5.644,0,0,1,.035-7.992Zm-7.57,25.973a5.656,5.656,0,0,1-.023,11.313V55.5c-.008,0-.016,0-.023.008l0-.152a5.658,5.658,0,0,1,.051-11.316Z" fill="#2b8fe5" stroke="#092772" stroke-width="1"/>
    <path id="Path_749" data-name="Path 749" d="M49.949,73.449h.105A23.587,23.587,0,0,0,66.422,32.882a2.308,2.308,0,0,0-3.2,3.324A18.938,18.938,0,0,1,63.719,63a13.853,13.853,0,0,0-3.82-7.352A14.167,14.167,0,0,0,56.442,53.1a9.087,9.087,0,1,0-12.586-.309c.035.035.078.07.117.105a13.991,13.991,0,0,0-7.7,9.973A18.955,18.955,0,0,1,50.13,30.885a2.258,2.258,0,0,0,2.32-2.3,2.311,2.311,0,0,0-2.3-2.316,23.588,23.588,0,0,0-.2,47.176Zm.395-31.562a4.492,4.492,0,0,1-.02,8.984h-.016a4.488,4.488,0,0,1-4.465-4.512,4.5,4.5,0,0,1,4.5-4.473Zm-.359,14.242h.039a9.342,9.342,0,0,1,9.3,9.391,2.216,2.216,0,0,0,.145.793,18.848,18.848,0,0,1-9.426,2.52h-.082a18.834,18.834,0,0,1-9.48-2.613,2.377,2.377,0,0,0,.152-.785,9.364,9.364,0,0,1,9.348-9.3Z" fill="#f0c331" stroke="#092772" stroke-width="1"/>
  </g>
</svg>
