<svg xmlns="http://www.w3.org/2000/svg" width="348.651" height="255.344" viewBox="0 0 348.651 255.344">
  <g id="Group_455" data-name="Group 455" transform="translate(-15.725 -85.328)">
    <g id="Group_301" data-name="Group 301" transform="translate(27.56 98.072)">
      <path id="Path_767" data-name="Path 767" d="M177.848,144.282c-11.759-42.657-64.747-56.4-95.115-24.519q-.655.687-1.307,1.4c-43.536,47.326-22.97,163.951,67.89,193.51S334.681,290.251,339.99,242s-36.609-63.415-101.661-49.922C201.576,199.7,185.168,170.836,177.848,144.282Z" transform="translate(-38.393 -102.264)" fill="#fff"/>
      <path id="Path_768" data-name="Path 768" d="M313.44,167.364c-12.157,1.979-15.526,12.75-6.139,20.39,3.1,2.525,7.533,4.624,13.844,5.671,24.044,3.989,36.8-6.649,27.165-20.441C342.362,164.47,325.486,165.4,313.44,167.364Z" transform="translate(-98.401 -118.05)" fill="#bbe2f2"/>
      <path id="Path_769" data-name="Path 769" d="M52.659,280.335c-7.557-9.725-18.626-7.527-20.84,4.372-.732,3.932-.453,8.827,1.649,14.87C41.477,322.6,56.925,328.7,64.42,313.64,69.047,304.342,60.149,289.973,52.659,280.335Z" transform="translate(-31.453 -144.832)" fill="#bbe2f2"/>
      <path id="Path_770" data-name="Path 770" d="M443.6,290.788c-1.12,5.862,3.721,10.015,9.206,7.756a11.606,11.606,0,0,0,5.269-4.716c6.2-9.641,3.058-17.911-5.57-17.063C447.183,277.289,444.714,284.978,443.6,290.788Z" transform="translate(-133.438 -145.446)" fill="#bbe2f2"/>
      <path id="Path_771" data-name="Path 771" d="M398.239,207.339c5.843,1.22,10.077-3.549,7.912-9.072a11.611,11.611,0,0,0-4.627-5.348c-9.534-6.361-17.857-3.363-17.154,5.279C384.8,203.531,392.448,206.13,398.239,207.339Z" transform="translate(-118.805 -123.862)" fill="#bbe2f2"/>
      <path id="Path_772" data-name="Path 772" d="M211.276,123.331c4.626,3.771,10.58,1.486,11.2-4.414a11.606,11.606,0,0,0-1.646-6.877c-5.537-10.035-14.3-11.2-17.659-3.208C201.1,113.767,206.692,119.593,211.276,123.331Z" transform="translate(-73.851 -102.589)" fill="#bbe2f2"/>
    </g>
    <g id="Group_311" data-name="Group 311" transform="translate(15.725 131.193)">
      <path id="Path_773" data-name="Path 773" d="M448.677,327.286c9.277-9.326,16.342-19.865,9.314-21.508s-18.849,16.722-20.908,33.439l-2.06,5.519c1.713-12.157-2.452-26.964-8.552-27.575-6.06-.606-2.392,9,2.421,17.213a33.986,33.986,0,0,1,4.871,13.735l-9.731,26.067c2.658-19.259-3.941-42.625-13.591-43.591-9.616-.962-3.8,14.279,3.841,27.313,5.772,9.85,7.325,17.64,7.722,21.711l-1.94,5.2q1.272.717,2.553,1.418L434.2,355.213a37.408,37.408,0,0,1,10.453-5.316c9.019-3.05,18.083-7.9,13.109-11.416-4.318-3.048-14.468,2.82-21.46,11.1l4-10.726A54.341,54.341,0,0,1,448.677,327.286Z" transform="translate(-112.191 -185.739)" fill="#1c31b5"/>
      <path id="Path_774" data-name="Path 774" d="M65.736,166.16c1.2-11.264.266-22.15-5.339-19.465s-3.644,21.391,3.985,33.727l1.591,4.817c-5.4-9.087-16.182-16.787-20.608-13.909-4.4,2.86,3.245,7.333,10.905,10.255a29.293,29.293,0,0,1,10.675,6.6l7.516,22.752c-8.6-14.367-25.624-26.5-32.625-21.948-6.976,4.537,5.148,11.635,17.3,16.271,9.185,3.5,14.428,7.9,16.888,10.418l1.5,4.537q1.242-.2,2.479-.424l-8.943-27.068a32.224,32.224,0,0,1,4.154-9.2c4.412-6.911,7.884-15.055,2.649-14.732-4.543.28-8.2,9.692-8.428,19.024l-3.093-9.361A46.824,46.824,0,0,1,65.736,166.16Z" transform="translate(-21.682 -146.282)" fill="#1c31b5"/>
      <g id="Group_304" data-name="Group 304" transform="translate(273.259 88.152)">
        <g id="Group_302" data-name="Group 302">
          <path id="Path_775" data-name="Path 775" d="M379.485,347.811c.118.639.254,1.335.414,2.075v0c1.67,7.766,5.771,20.48,15,22.98,0,0-5.023-26.189,12.878-33.009s15.921-13.315,14.9-24.875-4.979-13.764,7.442-24.593,10.045-26.958,10.045-26.958-11.755,18.416-24.31,18.843-14.753,11.145-14.218,19.116-10.127,8.871-15.9,13.495-6.856,28.9-6.856,28.9S379.039,345.375,379.485,347.811Z" transform="translate(-378.88 -263.434)" fill="#009cf8"/>
        </g>
        <g id="Group_303" data-name="Group 303" transform="translate(0.605 23.563)">
          <path id="Path_776" data-name="Path 776" d="M379.684,355.563c.118.639.254,1.335.414,2.075a39.665,39.665,0,0,1,4.793-9.682c4.015-5.949,9.67-10.836,14.756-12.754,8.1-3.052,12.052-10.994,12.819-25.755.444-8.568,9.407-13.629,9.5-13.678a.544.544,0,0,0-.527-.952c-.391.216-9.583,5.4-10.06,14.573-.74,14.27-4.476,21.918-12.115,24.8-5.367,2.022-11.078,6.942-15.276,13.161A41.291,41.291,0,0,0,379.684,355.563Z" transform="translate(-379.684 -294.749)" fill="#006bde"/>
        </g>
      </g>
      <g id="Group_307" data-name="Group 307" transform="translate(0 125.401)">
        <g id="Group_305" data-name="Group 305">
          <path id="Path_777" data-name="Path 777" d="M91.447,384.98h12.579c-6.8-1.124-23.648-8.358-25.151-22.865-1.9-18.374-8.446-18.145-19.471-20.066S45.342,343.266,38.342,329s-22.617-16.063-22.617-16.063,14.234,15.531,11.51,27.335,6.716,16.518,14.274,18,5.747,11.642,8.619,18.167c1.311,2.977,6.677,6.064,12.124,8.54Z" transform="translate(-15.725 -312.938)" fill="#006bde"/>
        </g>
        <g id="Group_306" data-name="Group 306" transform="translate(17.295 22.854)">
          <path id="Path_778" data-name="Path 778" d="M69.891,374.412c.549,5.5,3.713,12.047,8.464,17.5.167.192.341.387.518.583H80.3c-.41-.431-.8-.857-1.159-1.272-4.544-5.221-7.692-11.7-8.214-16.92-.828-8.3-7.245-13.963-20.807-18.348-7.872-2.544-10.358-12.154-10.382-12.252a.524.524,0,0,0-1.017.254c.1.418,2.643,10.271,11.075,13C62.911,361.2,69.108,366.579,69.891,374.412Z" transform="translate(-38.71 -343.311)" fill="#1c31b5"/>
        </g>
      </g>
      <g id="Group_310" data-name="Group 310" transform="translate(7.871 33.646)">
        <g id="Group_308" data-name="Group 308">
          <path id="Path_779" data-name="Path 779" d="M100.821,320.694c-.266.892-.568,1.865-.909,2.9v0c-3.576,10.823-10.913,29.053-24.462,31.2,0,0,10.723-37.311-13.765-49.793s-20.666-21.443-17.429-37.776S53.473,248.355,37.419,231s-10.186-40-10.186-40,13.938,28.078,31.783,30.617,19.334,18.168,17.345,29.456,13.084,14.212,20.6,21.695,5.339,42.282,5.339,42.282S101.832,317.287,100.821,320.694Z" transform="translate(-26.186 -190.997)" fill="#009cf8"/>
        </g>
        <g id="Group_309" data-name="Group 309" transform="translate(23.178 36.478)">
          <path id="Path_780" data-name="Path 780" d="M108.446,332.695c-.266.892-.568,1.865-.909,2.9a56.947,56.947,0,0,0-5.349-14.549c-4.813-9.1-12.13-16.946-19.091-20.464-11.084-5.6-15.5-17.537-14.328-38.712.683-12.291-11.326-20.889-11.449-20.973a.781.781,0,0,1,.9-1.278c.524.369,12.842,9.171,12.111,22.336-1.138,20.47,3.017,31.955,13.472,37.237,7.345,3.71,14.735,11.607,19.768,21.124A59.164,59.164,0,0,1,108.446,332.695Z" transform="translate(-56.989 -239.476)" fill="#006bde"/>
        </g>
      </g>
    </g>
    <g id="Group_346" data-name="Group 346" transform="translate(45.554 120.335)">
      <g id="Group_312" data-name="Group 312" transform="translate(62.198 175.551)">
        <path id="Path_781" data-name="Path 781" d="M138.22,389.132c.041,2.837.093,5.789.154,8.774h27.359c.052-3.268.093-6.4.122-9.339.083-7.963.092-14.516.086-18.589,0-2.889-.015-4.528-.015-4.528l-27.9-.3s0,2.41.022,6.352C138.067,375.888,138.116,382.161,138.22,389.132Z" transform="translate(-138.027 -365.155)" fill="#18315b"/>
        <path id="Path_782" data-name="Path 782" d="M138.056,373.093c.018,4.382.067,10.654.171,17.626a137.12,137.12,0,0,0,27.635-.565c.083-7.962.092-14.516.086-18.589Z" transform="translate(-138.034 -366.742)" fill="#000b29"/>
      </g>
      <g id="Group_313" data-name="Group 313" transform="translate(27.873 175.551)">
        <path id="Path_783" data-name="Path 783" d="M92.448,382.841c.031,4.459.084,9.568.172,15.065h27.362c.068-3.218.122-6.4.166-9.436.095-6.52.144-12.391.168-16.61.021-4.153.021-6.706.021-6.706l-27.91.3s-.022,2.959-.015,7.938C92.412,376.022,92.424,379.217,92.448,382.841Z" transform="translate(-92.41 -365.155)" fill="#18315b"/>
        <path id="Path_784" data-name="Path 784" d="M92.412,375.6c0,2.633.012,5.828.036,9.452a171.062,171.062,0,0,0,27.7,5.629c.095-6.52.144-12.391.168-16.61Z" transform="translate(-92.411 -367.361)" fill="#000b29"/>
      </g>
      <g id="Group_322" data-name="Group 322" transform="translate(38.664)">
        <path id="Path_785" data-name="Path 785" d="M141.848,160.618s4.4-4.234,4.382-8.415-2.857-2.947-4.382-6.843-6.057-6.272-8.543-5.8-7.733-9.218-14.85-7.508-6.5,10.835-9.564,12.165-2.211,6.747-.594,7.983,2.3,6.2,3.208,6.088S141.848,160.618,141.848,160.618Z" transform="translate(-106.772 -131.852)" fill="#18315b"/>
        <g id="Group_316" data-name="Group 316" transform="translate(0 26.821)">
          <path id="Path_786" data-name="Path 786" d="M112.236,169.341s-2.764-3.686-4.819-.638.851,12.048,5.883,9.851Z" transform="translate(-106.751 -167.496)" fill="#f97853"/>
          <g id="Group_314" data-name="Group 314" transform="translate(1.079 3.227)">
            <path id="Path_787" data-name="Path 787" d="M112.556,176.835a.426.426,0,0,1-.409-.311,6.576,6.576,0,0,0-3.688-3.917.425.425,0,0,1,.3-.8,7.321,7.321,0,0,1,4.205,4.482.426.426,0,0,1-.294.524A.438.438,0,0,1,112.556,176.835Z" transform="translate(-108.185 -171.785)" fill="#ea5143"/>
          </g>
          <g id="Group_315" data-name="Group 315" transform="translate(2.119 4.897)">
            <path id="Path_788" data-name="Path 788" d="M109.992,175.984a.425.425,0,0,1-.357-.655,3.886,3.886,0,0,1,1.6-1.287.425.425,0,0,1,.348.777,3.087,3.087,0,0,0-1.229.971A.424.424,0,0,1,109.992,175.984Z" transform="translate(-109.567 -174.004)" fill="#ea5143"/>
          </g>
        </g>
        <g id="Group_320" data-name="Group 320" transform="translate(32.909 26.821)">
          <path id="Path_789" data-name="Path 789" d="M151.549,169.341s2.764-3.686,4.819-.638-.851,12.048-5.883,9.851Z" transform="translate(-150.486 -167.496)" fill="#f97853"/>
          <g id="Group_317" data-name="Group 317" transform="translate(0.673 3.227)">
            <path id="Path_790" data-name="Path 790" d="M151.806,176.835a.426.426,0,0,0,.409-.311,6.574,6.574,0,0,1,3.688-3.917.425.425,0,0,0-.3-.8,7.323,7.323,0,0,0-4.206,4.482.427.427,0,0,0,.295.524A.438.438,0,0,0,151.806,176.835Z" transform="translate(-151.38 -171.785)" fill="#ea5143"/>
          </g>
          <g id="Group_319" data-name="Group 319" transform="translate(2.167 4.897)">
            <g id="Group_318" data-name="Group 318">
              <path id="Path_791" data-name="Path 791" d="M155.2,175.984a.425.425,0,0,0,.357-.655,3.885,3.885,0,0,0-1.6-1.287.425.425,0,0,0-.348.777,3.08,3.08,0,0,1,1.228.971A.425.425,0,0,0,155.2,175.984Z" transform="translate(-153.366 -174.004)" fill="#ea5143"/>
            </g>
          </g>
        </g>
        <path id="Path_792" data-name="Path 792" d="M137.706,192.339v8.951s-2.67,4.559-6.28,4.869-6.811-3.925-6.811-3.925v-9.267Z" transform="translate(-111.173 -146.825)" fill="#ffa681"/>
        <path id="Path_793" data-name="Path 793" d="M137.706,192.339v3.971c-2.423,2.689-6.725,3.36-13.091,2.42v-5.762Z" transform="translate(-111.173 -146.825)" fill="#f97853"/>
        <path id="Path_794" data-name="Path 794" d="M143.984,158.088a87.135,87.135,0,0,1-1.161,11.307c-.166.868-.353,1.684-.561,2.415-1.884,6.6-6.6,17.908-19.787,13.2-5.826-2.08-8.527-8.569-9.73-15.169a63.824,63.824,0,0,1-.88-12.247,9.347,9.347,0,0,1,4.742-7.953c7.786-4.414,16-2.768,21.411-.689A9.316,9.316,0,0,1,143.984,158.088Z" transform="translate(-108.013 -135.563)" fill="#ffa681"/>
        <path id="Path_795" data-name="Path 795" d="M113.04,177.211s1.28,7.626,2.489,10.406,4.514,3.3,5.754,5.654c1.769,3.35,4.466,6,8.9,4.387,3.691-1.346,3.524-3.233,5.592-4.693,3.543-2.5,5.3-5.254,5.441-7.534a72.205,72.205,0,0,1,1.9-8.662l-1.9-.134a49.489,49.489,0,0,1-2.677,4.716c-1.6-3.512-9.306-.958-9.306-.958l-1.472.476-1.511-.476s-7.8-2.446-9.336,1.238a13.886,13.886,0,0,1-2.059-4.784Zm14.723,4.847c8.838-1.517,7.259,3.658,7.2,3.843v0l0,0a8.762,8.762,0,0,1-1.816,1.377c-3.424,1.85-3.795,1.571-5.146,1.631a10.158,10.158,0,0,1-5.194-1.417,14.731,14.731,0,0,1-2.475-1.882S118.942,180.869,127.763,182.058Z" transform="translate(-108.308 -142.938)" fill="#18315b"/>
        <path id="Path_796" data-name="Path 796" d="M124.823,170.931c0,.956-.493,1.731-1.1,1.731s-1.1-.775-1.1-1.731.492-1.73,1.1-1.73S124.823,169.975,124.823,170.931Z" transform="translate(-110.68 -141.097)" fill="#18315b"/>
        <path id="Path_797" data-name="Path 797" d="M142.2,170.931c0,.956-.493,1.731-1.1,1.731s-1.1-.775-1.1-1.731.493-1.73,1.1-1.73S142.2,169.975,142.2,170.931Z" transform="translate(-114.982 -141.097)" fill="#18315b"/>
        <path id="Path_798" data-name="Path 798" d="M144.571,163.636s-4.545-1.8-8.045-.284l.35,1.946s5.136-.434,7.725.615A3.375,3.375,0,0,0,144.571,163.636Z" transform="translate(-114.121 -139.5)" fill="#18315b"/>
        <path id="Path_799" data-name="Path 799" d="M118.426,163.646s4.579-1.81,8.1-.287l-.352,1.961s-5.175-.438-7.782.619A3.4,3.4,0,0,1,118.426,163.646Z" transform="translate(-109.588 -139.5)" fill="#18315b"/>
        <g id="Group_321" data-name="Group 321" transform="translate(18.295 28.766)">
          <path id="Path_800" data-name="Path 800" d="M132.646,178.4a4.531,4.531,0,0,0,1.54-.324.425.425,0,0,0-.321-.788,2.553,2.553,0,0,1-1.706.161.461.461,0,0,1-.209-.4,64.543,64.543,0,0,1,.257-6.513.425.425,0,0,0-.847-.07,63.161,63.161,0,0,0-.255,6.671,1.3,1.3,0,0,0,.619,1.038A1.789,1.789,0,0,0,132.646,178.4Z" transform="translate(-131.065 -170.081)" fill="#f97853"/>
        </g>
        <path id="Path_801" data-name="Path 801" d="M125.962,184.973c.322,1.624,1.4,4.613,5.01,4.613s4.64-2.731,4.99-4.613Z" transform="translate(-111.506 -145.002)" fill="#fff"/>
        <path id="Path_802" data-name="Path 802" d="M143.984,158.088a87.135,87.135,0,0,1-1.161,11.307l-1.9-.135s.461-2.937.673-4.85.574-5.491-1.059-5.937-.673-4.523-2.94-6.292-7.3-3.334-10.644-1.275-7.145.918-8.684,1.275-3.636,2.479-3.07,4.465-1.131,3.19-1.543,5.243.905,7.583.905,7.583l-1.816.366a63.824,63.824,0,0,1-.88-12.247,9.347,9.347,0,0,1,4.742-7.953c7.786-4.414,16-2.768,21.411-.689A9.316,9.316,0,0,1,143.984,158.088Z" transform="translate(-108.013 -135.563)" fill="#18315b"/>
      </g>
      <g id="Group_343" data-name="Group 343" transform="translate(22.082 54.573)">
        <g id="Group_323" data-name="Group 323">
          <path id="Path_803" data-name="Path 803" d="M158.51,339.1a151.265,151.265,0,0,1-25.819,4.236c-.391.029-.777.057-1.168.084q-1.775.12-3.55.2a146.508,146.508,0,0,1-17.573-.3q-1.772-.137-3.543-.317c-.378-.036-.755-.076-1.134-.12A153.889,153.889,0,0,1,84.737,339.1c-.07-6.449.01-26.833.406-48.941.046-2.657.1-5.339.156-8.024.62-29.136,1.817-58.711,3.969-61.674,2.063-2.835,8.282-6.439,14.227-9.689l1.062-.578c1.336-.727,2.643-1.43,3.872-2.1,2.634-1.433,4.906-2.708,6.31-3.692v.81s3.2,4.237,6.808,3.924c3.288-.283,5.792-4.081,6.217-4.762a83.308,83.308,0,0,0,7.567,4.3c.9.476,1.828.964,2.777,1.467q.523.275,1.053.558c6.575,3.487,13.664,7.418,15.792,10.341a3.623,3.623,0,0,1,.455,1.075c1.259,4.263,2.041,18.411,2.516,35.544l.006.186c.021.692.038,1.391.055,2.092,0,.091.005.184.008.277.156,6.011.273,12.337.364,18.694.008.5.017,1.009.023,1.513,0,.254.006.5.008.758q.032,1.878.046,3.749.019,1.379.032,2.758C158.7,310.672,158.6,332.347,158.51,339.1Z" transform="translate(-84.714 -204.378)" fill="#006bde"/>
        </g>
        <g id="Group_324" data-name="Group 324" transform="translate(63.41 40.077)">
          <path id="Path_804" data-name="Path 804" d="M178.845,273.129c-2.071-3.382-4.294-6.833-6.388-9.886-.005-.008-.011-.016-.015-.023-.88-1.281-1.735-2.491-2.549-3.6a.422.422,0,0,0-.042-.056c-.254-.348-.506-.685-.752-1.013a.63.63,0,0,1-.09-.178v0a.571.571,0,0,1,1-.506c2.515,3.333,5.731,8.123,8.773,12.985l.006.186C178.811,271.73,178.828,272.428,178.845,273.129Z" transform="translate(-168.984 -257.64)" fill="#264cbe"/>
        </g>
        <path id="Path_805" data-name="Path 805" d="M177.507,225.907s12.976,23.774,20.886,35.822c0,0,4.5-4.133,10.349-9.661,6.343-5.994,15.018-16.012,15.018-16.012l4.8,5.693s-19.492,35.076-28.234,39.484-24.853-26.793-24.853-26.793Z" transform="translate(-107.181 -209.707)" fill="#006bde"/>
        <g id="Group_325" data-name="Group 325" transform="translate(5.138 82.718)">
          <path id="Path_806" data-name="Path 806" d="M101.789,341.486h-.021a.586.586,0,0,1-.566-.607c.68-19.2-9.275-25.419-9.376-25.48a.587.587,0,0,1,.6-1.008,17.9,17.9,0,0,1,5.291,5.762c2.327,3.74,5.023,10.379,4.655,20.768A.587.587,0,0,1,101.789,341.486Z" transform="translate(-91.542 -314.308)" fill="#264cbe"/>
        </g>
        <g id="Group_326" data-name="Group 326" transform="translate(57.225 59.257)">
          <path id="Path_807" data-name="Path 807" d="M161.4,315.68a.587.587,0,0,1-.585-.541c-.315-4.043,1.017-6.993,2.7-10.726.494-1.093,1-2.221,1.526-3.488,3.272-7.936,1.628-17.01,1.61-17.1a.587.587,0,1,1,1.154-.216c.072.385,1.725,9.51-1.679,17.765-.53,1.284-1.044,2.423-1.541,3.524-1.68,3.72-2.894,6.408-2.6,10.151a.588.588,0,0,1-.54.631Z" transform="translate(-160.765 -283.129)" fill="#264cbe"/>
        </g>
        <g id="Group_339" data-name="Group 339" transform="translate(23.715)">
          <path id="Path_808" data-name="Path 808" d="M116.231,208.1c.251,1.89.619,4.342,1.02,7.127.123.827.245,1.685.371,2.566.407,2.877.829,6.007,1.189,9.172.1.85.188,1.7.273,2.552.317,3.133.556,6.247.642,9.14q.043,1.314.034,2.561a40.692,40.692,0,0,1-.4,5.976q-.257,1.646-.456,3.218-.167,1.3-.3,2.566c-.342,3.265-.513,6.3-.562,9.169q-.021,1.3-.008,2.557c.026,3.253.211,6.284.479,9.169.08.864.169,1.713.26,2.552.351,3.153.779,6.155,1.181,9.123q.175,1.275.342,2.543c.175,1.357.339,2.714.482,4.08.151,1.449.248,3.142.293,5.02.023.822.034,1.679.037,2.566.012,2.809-.059,5.919-.191,9.172q-.051,1.274-.114,2.58c-.145,3.022-.336,6.13-.55,9.2q-.095,1.3-.191,2.577c-.237,3.193-.5,6.3-.764,9.2-.08.878-.16,1.737-.239,2.569-.3,3.184-.6,6.016-.861,8.273a146.206,146.206,0,0,0,17.574.3c.137-2.4.51-6.281.878-10.845.068-.835.134-1.7.2-2.574.22-2.9.419-6,.55-9.135.038-.858.068-1.719.092-2.577.088-3.125.091-6.23-.043-9.141-.04-.883-.091-1.747-.16-2.588-.068-.861-.151-1.7-.251-2.509a51.181,51.181,0,0,1-.376-6.655c0-.861.026-1.716.065-2.574.134-2.977.459-5.959.835-9.126.1-.841.205-1.7.311-2.569.339-2.817.693-5.8.972-9.075.074-.838.14-1.7.2-2.574.194-2.805.325-5.819.345-9.1q.008-1.27-.009-2.594c-.031-2.843-.15-5.884-.381-9.16-.02-.29-.04-.585-.063-.881-.043-.573-.08-1.151-.105-1.73a87.017,87.017,0,0,1,.057-9.127q.069-1.291.169-2.583c.236-3.068.582-6.107.98-9.02q.175-1.3.365-2.569c.479-3.193.995-6.2,1.468-8.884.157-.884.308-1.734.451-2.543.322-1.813.6-3.43.807-4.8a83.567,83.567,0,0,1-7.567-4.3c-.424.681-2.928,4.479-6.218,4.762-3.607.313-6.808-3.923-6.808-3.923v-.81C121.137,205.39,118.865,206.665,116.231,208.1Z" transform="translate(-116.231 -204.378)" fill="#fff"/>
          <g id="Group_338" data-name="Group 338" transform="translate(1.02 8.56)">
            <g id="Group_327" data-name="Group 327">
              <path id="Path_809" data-name="Path 809" d="M117.587,218.042c.123.827.245,1.685.371,2.566a47.665,47.665,0,0,0,11.615-1.468,30.931,30.931,0,0,1,12.638-.3c.157-.884.308-1.734.451-2.543a33.5,33.5,0,0,0-13.665.345A44.587,44.587,0,0,1,117.587,218.042Z" transform="translate(-117.587 -215.755)" fill="#e3e3e3"/>
            </g>
            <g id="Group_328" data-name="Group 328" transform="translate(1.56 11.722)">
              <path id="Path_810" data-name="Path 810" d="M119.66,233.636c.1.85.188,1.7.273,2.552a51.71,51.71,0,0,0,10.153-1.465,30.881,30.881,0,0,1,10.805-.573q.175-1.3.365-2.569a33.68,33.68,0,0,0-11.747.642A49.4,49.4,0,0,1,119.66,233.636Z" transform="translate(-119.66 -231.333)" fill="#e3e3e3"/>
            </g>
            <g id="Group_329" data-name="Group 329" transform="translate(2.475 23.449)">
              <path id="Path_811" data-name="Path 811" d="M120.876,249.186q.043,1.314.034,2.561a53.822,53.822,0,0,0,9.477-1.439,31.048,31.048,0,0,1,9.656-.7q.069-1.291.169-2.583a33.811,33.811,0,0,0-10.4.779A52.314,52.314,0,0,1,120.876,249.186Z" transform="translate(-120.876 -246.917)" fill="#e3e3e3"/>
            </g>
            <g id="Group_330" data-name="Group 330" transform="translate(1.357 35.176)">
              <path id="Path_812" data-name="Path 812" d="M119.391,267.364a50.6,50.6,0,0,0,10.628-1.474,30.991,30.991,0,0,1,9.768-.684c-.02-.29-.04-.585-.063-.881-.043-.573-.08-1.151-.105-1.73a33.775,33.775,0,0,0-10.175.8,49.542,49.542,0,0,1-9.753,1.408Q119.523,266.1,119.391,267.364Z" transform="translate(-119.391 -262.502)" fill="#e3e3e3"/>
            </g>
            <g id="Group_331" data-name="Group 331" transform="translate(0.782 46.902)">
              <path id="Path_813" data-name="Path 813" d="M118.631,282.948a48.782,48.782,0,0,0,11.2-1.474,31.052,31.052,0,0,1,10.158-.655q.008-1.27-.009-2.594a33.808,33.808,0,0,0-10.726.749,46.909,46.909,0,0,1-10.614,1.418Q118.618,281.7,118.631,282.948Z" transform="translate(-118.626 -278.086)" fill="#e3e3e3"/>
            </g>
            <g id="Group_332" data-name="Group 332" transform="translate(1.266 58.627)">
              <path id="Path_814" data-name="Path 814" d="M119.269,295.975c.08.864.169,1.713.26,2.552a51,51,0,0,0,10.461-1.469,31,31,0,0,1,9.61-.7c.074-.838.14-1.7.2-2.574a33.745,33.745,0,0,0-10.389.778A48.5,48.5,0,0,1,119.269,295.975Z" transform="translate(-119.269 -293.669)" fill="#e3e3e3"/>
            </g>
            <g id="Group_333" data-name="Group 333" transform="translate(2.706 70.353)">
              <path id="Path_815" data-name="Path 815" d="M121.183,311.507q.175,1.275.342,2.543a55.477,55.477,0,0,0,8.938-1.409,31.191,31.191,0,0,1,8.327-.786c.1-.841.205-1.7.311-2.569a33.972,33.972,0,0,0-9.215.855A53.324,53.324,0,0,1,121.183,311.507Z" transform="translate(-121.183 -309.252)" fill="#e3e3e3"/>
            </g>
            <g id="Group_334" data-name="Group 334" transform="translate(3.823 82.08)">
              <path id="Path_816" data-name="Path 816" d="M122.668,327.009c.023.822.034,1.679.037,2.566a57.633,57.633,0,0,0,8.126-1.351,31.517,31.517,0,0,1,7.427-.81c0-.861.026-1.716.065-2.574a34.192,34.192,0,0,0-8.069.886A57.149,57.149,0,0,1,122.668,327.009Z" transform="translate(-122.668 -324.838)" fill="#e3e3e3"/>
            </g>
            <g id="Group_335" data-name="Group 335" transform="translate(3.555 93.807)">
              <path id="Path_817" data-name="Path 817" d="M122.312,345.185a57.613,57.613,0,0,0,8.431-1.378,31.157,31.157,0,0,1,8.214-.784c-.04-.883-.091-1.747-.16-2.588a34.1,34.1,0,0,0-8.631.873,56.246,56.246,0,0,1-7.741,1.3Q122.375,343.879,122.312,345.185Z" transform="translate(-122.312 -340.421)" fill="#e3e3e3"/>
            </g>
            <g id="Group_336" data-name="Group 336" transform="translate(2.814 105.53)">
              <path id="Path_818" data-name="Path 818" d="M121.327,360.816a55.157,55.157,0,0,0,9.172-1.426,31.3,31.3,0,0,1,8.165-.792c.038-.858.068-1.719.092-2.577a34.037,34.037,0,0,0-8.833.87,53.847,53.847,0,0,1-8.4,1.348Q121.423,359.535,121.327,360.816Z" transform="translate(-121.327 -356.001)" fill="#e3e3e3"/>
            </g>
            <g id="Group_337" data-name="Group 337" transform="translate(1.81 117.257)">
              <path id="Path_819" data-name="Path 819" d="M119.993,376.44a51.8,51.8,0,0,0,10.175-1.466,31.252,31.252,0,0,1,7.415-.81c.068-.835.134-1.7.2-2.574a34.068,34.068,0,0,0-8.191.883,51.011,51.011,0,0,1-9.36,1.4C120.153,374.75,120.073,375.608,119.993,376.44Z" transform="translate(-119.993 -371.587)" fill="#e3e3e3"/>
            </g>
          </g>
        </g>
        <g id="Group_342" data-name="Group 342" transform="translate(18.78 5.771)">
          <g id="Group_340" data-name="Group 340" transform="translate(28.028)">
            <path id="Path_820" data-name="Path 820" d="M146.921,345.321c.391-.026.778-.054,1.169-.083,2.309-13.577.977-33.505.482-39.612-.513-6.34.473-14.495,2.706-22.363,1.733-6.113.67-20.285-.183-31.672-.239-3.2-.467-6.215-.6-8.7-.436-8.017,2.466-22.854,4.066-30.289l-1.052-.558c-1.6,7.361-4.61,22.535-4.154,30.911.137,2.491.365,5.516.6,8.718.847,11.3,1.9,25.357.226,31.273-2.269,8-3.27,16.3-2.746,22.769C147.93,311.833,149.27,331.886,146.921,345.321Z" transform="translate(-146.921 -212.047)" fill="#264cbe"/>
          </g>
          <g id="Group_341" data-name="Group 341" transform="translate(0 0.048)">
            <path id="Path_821" data-name="Path 821" d="M114.045,290.095c1.357,8.348.929,13.771.433,20.045-.16,2.03-.325,4.126-.442,6.441-.362,7.264-1.591,21.893-2.135,28.219.379.043.755.083,1.135.12.545-6.327,1.777-20.992,2.141-28.283.114-2.3.28-4.388.439-6.406.5-6.349.932-11.835-.448-20.319-.293-1.822-.607-3.669-.918-5.508-1.537-9.1-3.128-18.506-2.375-23.014.182-1.1.416-2.349.667-3.672,1.021-5.44,2.295-12.208,1.893-18.081-.4-5.822-2.785-21.586-3.7-27.527-.354.191-.707.385-1.063.579.955,6.213,3.239,21.371,3.626,27.025.391,5.728-.866,12.419-1.876,17.793-.251,1.328-.488,2.582-.673,3.695-.781,4.7.752,13.776,2.378,23.393C113.438,286.431,113.749,288.276,114.045,290.095Z" transform="translate(-109.672 -212.111)" fill="#264cbe"/>
          </g>
        </g>
      </g>
      <g id="Group_345" data-name="Group 345" transform="translate(0 71.289)">
        <path id="Path_822" data-name="Path 822" d="M78.161,238.6s-11.616,38.736-14.492,52.54-3.1,42.5-3.1,42.5-5.078,10.541-5.2,15.233c-.128,5,2.5,8.98,2.2,12.253s3.685,1.5,2.56-5.133,2.068-12.633,3.446-12.44-1.14,7.238.084,9.777,2.808-2.393,4.383-5.385c1.636-3.108,1.54-9.887.8-14.727s8.029-34.236,8.071-42.754l11.109-37.54S84.347,237.251,78.161,238.6Z" transform="translate(-55.367 -229.544)" fill="#ffa681"/>
        <path id="Path_823" data-name="Path 823" d="M90.844,249.027a99.2,99.2,0,0,1-3.549,12.139v0c-.151.453-.305.915-.459,1.385a.426.426,0,0,0-.023.066c-.445,1.337-.91,2.737-1.389,4.185l-.008.026c-1.97,5.981-4.151,12.824-5.981,19.854-.63,2.406-1.217,4.838-1.739,7.261-.667,3.094-1.232,6.178-1.646,9.2-1.485,10.876-4.324,24.653-4.324,24.653-4.166,1.71-10.677-.548-10.677-.548s-.169-19.84.761-27.549A206.506,206.506,0,0,1,66.234,275.6c4.99-21.437,13.771-42.411,16.179-47.974.191-.445.342-.789.448-1.029h2.073C89.014,229.184,91.908,242.322,90.844,249.027Z" transform="translate(-56.77 -226.593)" fill="#006bde"/>
        <path id="Path_824" data-name="Path 824" d="M60.6,355.085l.327,4.566s6.191,2.012,10.832.6l1.227-4.072C68.519,356.41,64.391,356.3,60.6,355.085Z" transform="translate(-56.663 -258.4)" fill="#009cf8"/>
        <g id="Group_344" data-name="Group 344" transform="translate(20.925 34.008)">
          <path id="Path_825" data-name="Path 825" d="M92.775,272.355v0a.6.6,0,0,1-.034.2c-.14.385-.283.782-.425,1.189a.428.428,0,0,0-.023.066c-.457,1.294-.921,2.7-1.389,4.185l-.008.026a225.125,225.125,0,0,0-6.027,23.6c.011-1.246.026-2.5.046-3.75-.63,2.406-1.217,4.838-1.739,7.261a87.439,87.439,0,0,1,1.77-9.534,223.459,223.459,0,0,1,6.723-23.438.57.57,0,0,1,1.106.191Z" transform="translate(-83.176 -271.789)" fill="#264cbe"/>
        </g>
      </g>
    </g>
    <g id="Group_383" data-name="Group 383" transform="translate(198.68 119.543)">
      <g id="Group_350" data-name="Group 350" transform="translate(84.018 187.851)">
        <g id="Group_348" data-name="Group 348">
          <g id="Group_347" data-name="Group 347">
            <path id="Path_826" data-name="Path 826" d="M371.69,401.692h27.438c-.09-1.9-.181-3.728-.269-5.451-.479-9.4-.885-15.793-.885-15.793l-22.314.991-1.85.084-3.282.147s.317,5.72.81,14.1C371.446,397.625,371.564,399.611,371.69,401.692Z" transform="translate(-370.527 -380.449)" fill="#18315b"/>
          </g>
        </g>
        <path id="Path_827" data-name="Path 827" d="M373.809,381.524l-3.282.147s.317,5.72.81,14.1a199.318,199.318,0,0,0,27.522.47c-.479-9.4-.885-15.793-.885-15.793l-22.314.991Z" transform="translate(-370.527 -380.449)" fill="#000b29"/>
        <g id="Group_349" data-name="Group 349" transform="translate(3.281 0.992)">
          <path id="Path_828" data-name="Path 828" d="M377.876,402.019c-.5-8.7-.913-16.126-1.139-20.251l-1.85.084c.225,4.106.634,11.5,1.135,20.167Z" transform="translate(-374.887 -381.768)" fill="#000b29"/>
        </g>
      </g>
      <g id="Group_354" data-name="Group 354" transform="translate(49.692 187.851)">
        <g id="Group_352" data-name="Group 352">
          <g id="Group_351" data-name="Group 351">
            <path id="Path_829" data-name="Path 829" d="M352.347,401.692c.141-2.356.274-4.591.394-6.649.473-7.983.769-13.372.769-13.372l-3.561-.159-1.847-.084-22.041-.98s-.242,3.813-.573,9.873c-.175,3.23-.376,7.1-.579,11.37Z" transform="translate(-324.908 -380.449)" fill="#18315b"/>
          </g>
        </g>
        <path id="Path_830" data-name="Path 830" d="M325.678,390.322a242.406,242.406,0,0,0,27.254,4.721c.473-7.983.769-13.372.769-13.372l-3.561-.159-1.847-.084-22.041-.98S326.01,384.262,325.678,390.322Z" transform="translate(-325.099 -380.449)" fill="#000b29"/>
        <g id="Group_353" data-name="Group 353" transform="translate(22.053 0.98)">
          <path id="Path_831" data-name="Path 831" d="M356.069,402.015c.5-8.675.91-16.076,1.133-20.18l-1.847-.083c-.226,4.122-.637,11.558-1.139,20.263Z" transform="translate(-354.216 -381.752)" fill="#000b29"/>
        </g>
      </g>
      <g id="Group_361" data-name="Group 361" transform="translate(46.867 55.835)">
        <g id="Group_356" data-name="Group 356">
          <g id="Group_355" data-name="Group 355">
            <path id="Path_832" data-name="Path 832" d="M389.736,341.3a131.766,131.766,0,0,1-16.767,3.479q-2.917.41-5.828.679-3.929.363-7.856.488a124.353,124.353,0,0,1-12.99-.283,131.61,131.61,0,0,1-25.119-4.362c-.078-7.807.04-35.807.626-62.813.029-1.212.055-2.424.085-3.63,0-.257.011-.512.017-.768.005-.279.014-.558.021-.834.019-.857.041-1.711.062-2.561q.066-2.6.138-5.158.045-1.528.091-3.035c.005-.208.013-.415.019-.622q.032-.993.062-1.974v0c.008-.2.014-.406.021-.609.019-.6.04-1.2.059-1.8.019-.506.036-1,.053-1.506.649-18.218,1.6-32.587,2.954-34.612,2.3-3.435,10.145-7.994,16.452-11.705,2.247-1.32,4.931-2.693,6.467-3.712,2.24,1.8,3.865,3.433,7.186,3.321,3.715-.127,4.631-2.361,6.047-4.277.865.561,3.061,2.363,4.2,3.032.977.576,2.035,1.187,3.138,1.822,1.707.977,3.521,2.014,5.32,3.072,2.664,1.569,5.291,3.187,7.47,4.732a19.7,19.7,0,0,1,4.758,4.3c1.233,1.851,2.031,13.835,2.545,29.606.021.552.036,1.111.057,1.675,0,.068,0,.136,0,.206.021.573.038,1.161.052,1.749q.077,2.663.147,5.432c.01.388.019.781.025,1.172.008.294.017.59.019.88.017.758.034,1.519.051,2.287,0,.154.006.308.01.461.041,2.023.081,4.075.117,6.145q.017.907.03,1.819C389.952,301.789,389.844,332.906,389.736,341.3Z" transform="translate(-321.155 -205.003)" fill="#006bde"/>
          </g>
        </g>
        <path id="Path_833" data-name="Path 833" d="M389.737,290.374l-8.85,8.978-8.246-8.359-8.244,8.359-8.276-8.394-8.28,8.394-8.331-8.449-8.333,8.449-9-9.124c.019-.857.041-1.711.062-2.561q.066-2.6.138-5.158l8.8-8.921,8.333,8.451,8.331-8.451,8.28,8.394,8.276-8.394,8.244,8.36,8.246-8.36,8.7,8.823c.041,2.023.081,4.075.117,6.145Q389.724,289.463,389.737,290.374Z" transform="translate(-321.408 -221.981)" fill="#264cbe"/>
        <g id="Group_357" data-name="Group 357" transform="translate(13.394 93.89)">
          <path id="Path_834" data-name="Path 834" d="M378.612,350.557h0c-11.851-.052-21.966-5.445-28.365-9.96a64.966,64.966,0,0,1-11.157-9.88.57.57,0,0,1,.873-.734,63.734,63.734,0,0,0,10.967,9.7c6.26,4.412,16.145,9.682,27.687,9.733a.57.57,0,0,1,0,1.14Z" transform="translate(-338.954 -329.78)" fill="#264cbe"/>
        </g>
        <g id="Group_358" data-name="Group 358" transform="translate(26.037 96.592)">
          <path id="Path_835" data-name="Path 835" d="M375.38,344.437c-10.09-1.983-19.022-9.711-19.428-10.066a.57.57,0,0,1,.75-.859c.105.092,10.616,9.181,21.328,10.158a.57.57,0,1,1-.1,1.135A24.842,24.842,0,0,1,375.38,344.437Z" transform="translate(-355.757 -333.371)" fill="#264cbe"/>
        </g>
        <g id="Group_359" data-name="Group 359" transform="translate(24.881 6.363)">
          <path id="Path_836" data-name="Path 836" d="M354.791,227.055a.571.571,0,0,1-.105-1.131c14.448-2.741,18.8-12.036,18.845-12.13a.57.57,0,1,1,1.039.47c-.183.4-4.646,9.93-19.672,12.78A.572.572,0,0,1,354.791,227.055Z" transform="translate(-354.221 -213.459)" fill="#264cbe"/>
        </g>
        <g id="Group_360" data-name="Group 360" transform="translate(1.082 44.292)">
          <path id="Path_837" data-name="Path 837" d="M329.332,264.553v0a.553.553,0,0,1-.077.182c-.216.347-.442.706-.667,1.072a.6.6,0,0,0-.034.061c-.723,1.168-1.476,2.445-2.251,3.793a.044.044,0,0,1-.014.023c-1.211,2.122-2.467,4.422-3.7,6.759q.032-.993.062-1.974v0c.008-.2.014-.406.021-.609,1.982-3.679,3.958-7.121,5.616-9.731a.571.571,0,0,1,1.041.423Z" transform="translate(-322.592 -263.866)" fill="#264cbe"/>
        </g>
      </g>
      <g id="Group_364" data-name="Group 364" transform="translate(98.143)">
        <path id="Path_838" data-name="Path 838" d="M425.508,217.867s18.477-5.938,23.944-18.063c1.582-3.512-11.446-39.162-11.446-39.162l-6.288.3s1.792,12.369,2.878,19.373c.894,5.759,2.337,12.64,2.823,14.906.106.491.166.764.166.764-.309.053-.618.113-.932.175-8.633,1.753-19.654,7.376-19.654,7.376Z" transform="translate(-396.156 -138.187)" fill="#ffa681"/>
        <g id="Group_363" data-name="Group 363" transform="translate(40.496 57.039)">
          <g id="Group_362" data-name="Group 362">
            <path id="Path_839" data-name="Path 839" d="M448.691,210.784a.593.593,0,0,0,.827-.13.582.582,0,0,0-.13-.826,46.442,46.442,0,0,0-5.5-3.225c.106.491.166.764.166.764-.309.053-.618.113-.932.175A46.673,46.673,0,0,1,448.691,210.784Z" transform="translate(-443.118 -206.603)" fill="#f97853"/>
          </g>
        </g>
        <path id="Path_840" data-name="Path 840" d="M390.381,213.47s-5.589,13.115,8.639,20.417c9.847,5.053,32.278-8.14,32.278-8.14l-8-16.979S402.778,217.234,390.381,213.47Z" transform="translate(-389.299 -150.1)" fill="#006bde"/>
        <path id="Path_841" data-name="Path 841" d="M436.813,133.211c-.556.391-.442,2.8-.2,5.068l-.239.039c-.661-3.028-1.977-8.178-3.1-7.195-.737.643.25,5.084.923,7.741q-.209.064-.418.132c-.848-3.153-2.676-9.226-3.892-8.045-.812.789.746,6.136,1.612,8.864l-.354.139c-.828-2.646-2.6-7.652-3.807-6.476-1.1,1.065,2.046,8.633,2.046,8.633h0l.825,2.971s-.98.423-2.508-1.306-3.357-2.033-2.087.468c1.435,2.827,3.558,4.854,4.493,6.854s3.876,2.662,3.876,2.662l5.9-.286s1.145-9.98-1.057-14.737h0C438.448,135.908,437.782,132.531,436.813,133.211Z" transform="translate(-398.182 -130.799)" fill="#ffa681"/>
      </g>
      <g id="Group_381" data-name="Group 381" transform="translate(60.431 7.232)">
        <path id="Path_842" data-name="Path 842" d="M343.549,158.605c0,10.058,6.192,16.987,16.245,16.987s17.069-7.45,17.069-17.507a21.555,21.555,0,0,0-1.323-7.655c-.051-.136-.1-.273-.158-.406-.107-.26-.217-.52-.337-.772-.175-.388-.371-.768-.576-1.135-2.62-4.71-7.314-7.706-13.621-7.706C348.789,140.411,343.549,148.548,343.549,158.605Z" transform="translate(-340.262 -140.411)" fill="#18315b"/>
        <g id="Group_367" data-name="Group 367" transform="translate(0 20.66)">
          <path id="Path_843" data-name="Path 843" d="M344.726,169.733s-2.794-3.725-4.871-.645.859,12.179,5.946,9.958Z" transform="translate(-339.181 -167.868)" fill="#f97853"/>
          <g id="Group_365" data-name="Group 365" transform="translate(1.09 3.261)">
            <path id="Path_844" data-name="Path 844" d="M345.048,177.307a.43.43,0,0,1-.414-.315,6.645,6.645,0,0,0-3.728-3.959.43.43,0,0,1,.3-.8,7.4,7.4,0,0,1,4.251,4.531.429.429,0,0,1-.3.53A.42.42,0,0,1,345.048,177.307Z" transform="translate(-340.63 -172.202)" fill="#ea5143"/>
          </g>
          <g id="Group_366" data-name="Group 366" transform="translate(2.142 4.951)">
            <path id="Path_845" data-name="Path 845" d="M342.457,176.448a.43.43,0,0,1-.361-.663,3.925,3.925,0,0,1,1.614-1.3.43.43,0,0,1,.351.785,3.106,3.106,0,0,0-1.242.981A.428.428,0,0,1,342.457,176.448Z" transform="translate(-342.027 -174.447)" fill="#ea5143"/>
          </g>
        </g>
        <g id="Group_372" data-name="Group 372" transform="translate(33.265 20.66)">
          <path id="Path_846" data-name="Path 846" d="M384.464,169.733s2.794-3.725,4.871-.645-.859,12.179-5.946,9.958Z" transform="translate(-383.389 -167.868)" fill="#f97853"/>
          <g id="Group_368" data-name="Group 368" transform="translate(0.68 3.261)">
            <path id="Path_847" data-name="Path 847" d="M384.723,177.307a.431.431,0,0,0,.414-.315,6.645,6.645,0,0,1,3.728-3.959.43.43,0,0,0-.3-.8,7.407,7.407,0,0,0-4.251,4.531.43.43,0,0,0,.3.53A.42.42,0,0,0,384.723,177.307Z" transform="translate(-384.293 -172.202)" fill="#ea5143"/>
          </g>
          <g id="Group_371" data-name="Group 371" transform="translate(2.19 4.951)">
            <g id="Group_370" data-name="Group 370">
              <g id="Group_369" data-name="Group 369">
                <path id="Path_848" data-name="Path 848" d="M388.158,176.448a.422.422,0,0,0,.232-.068.429.429,0,0,0,.129-.594,3.913,3.913,0,0,0-1.613-1.3.43.43,0,0,0-.351.785,3.105,3.105,0,0,1,1.242.981A.429.429,0,0,0,388.158,176.448Z" transform="translate(-386.3 -174.447)" fill="#ea5143"/>
              </g>
            </g>
          </g>
        </g>
        <path id="Path_849" data-name="Path 849" d="M370.471,192.979v9.048s-2.7,4.608-6.348,4.922-6.885-3.967-6.885-3.967v-9.367Z" transform="translate(-343.651 -153.424)" fill="#ffa681"/>
        <path id="Path_850" data-name="Path 850" d="M370.471,192.979v4.015c-2.448,2.717-6.8,3.4-13.233,2.445v-5.824Z" transform="translate(-343.651 -153.424)" fill="#f97853"/>
        <path id="Path_851" data-name="Path 851" d="M376.817,158.359a88.106,88.106,0,0,1-1.174,11.43c-.167.877-.357,1.7-.567,2.442-1.9,6.667-6.667,18.1-20,13.338-5.889-2.1-8.618-8.662-9.835-15.333a64.488,64.488,0,0,1-.89-12.38,9.447,9.447,0,0,1,4.793-8.038c7.871-4.462,16.176-2.8,21.643-.7A9.416,9.416,0,0,1,376.817,158.359Z" transform="translate(-340.457 -142.041)" fill="#ffa681"/>
        <path id="Path_852" data-name="Path 852" d="M357.353,171.34c0,.965-.5,1.749-1.111,1.749s-1.112-.783-1.112-1.749.5-1.749,1.112-1.749S357.353,170.374,357.353,171.34Z" transform="translate(-343.129 -147.634)" fill="#18315b"/>
        <path id="Path_853" data-name="Path 853" d="M374.77,171.292c0,.965-.5,1.749-1.112,1.749s-1.112-.783-1.112-1.749.5-1.749,1.112-1.749S374.77,170.326,374.77,171.292Z" transform="translate(-347.44 -147.622)" fill="#18315b"/>
        <path id="Path_854" data-name="Path 854" d="M376.8,163.654s-3.508-1.386-6.209-.219l.27,1.5s3.965-.335,5.962.474A2.606,2.606,0,0,0,376.8,163.654Z" transform="translate(-346.956 -145.995)" fill="#18315b"/>
        <path id="Path_855" data-name="Path 855" d="M351.623,163.654s3.508-1.386,6.209-.219l-.27,1.5s-3.965-.335-5.962.474A2.606,2.606,0,0,1,351.623,163.654Z" transform="translate(-342.22 -145.995)" fill="#18315b"/>
        <g id="Group_373" data-name="Group 373" transform="translate(18.493 22.626)">
          <path id="Path_856" data-name="Path 856" d="M365.356,178.889a4.6,4.6,0,0,0,1.556-.327.43.43,0,0,0-.325-.8,2.58,2.58,0,0,1-1.725.163.466.466,0,0,1-.211-.4,64.846,64.846,0,0,1,.26-6.583.43.43,0,1,0-.857-.07,63.714,63.714,0,0,0-.258,6.742,1.314,1.314,0,0,0,.625,1.05A1.814,1.814,0,0,0,365.356,178.889Z" transform="translate(-363.757 -170.48)" fill="#f97853"/>
        </g>
        <path id="Path_857" data-name="Path 857" d="M358.211,184.557c.715,2.48,2.746,4.954,5.544,4.988,2.8-.034,4.826-2.508,5.541-4.988Z" transform="translate(-343.892 -151.339)" fill="#fff"/>
        <g id="Group_374" data-name="Group 374" transform="translate(17.404 39.516)">
          <path id="Path_858" data-name="Path 858" d="M364.531,194.311a4.493,4.493,0,0,0,2.1-.588.43.43,0,0,0-.445-.735,3.65,3.65,0,0,1-1.65.464,3.488,3.488,0,0,1-1.564-.461.43.43,0,1,0-.451.731A4.293,4.293,0,0,0,364.531,194.311Z" transform="translate(-362.311 -192.927)" fill="#f97853"/>
        </g>
        <path id="Path_859" data-name="Path 859" d="M376.362,164.642h-1.948c.215-1.956.524-5.4-1.083-5.894-5.076-1.559,1.5-5.146-.789-6.934s-7.994-1.025-11.96-1.153c-3.99-.129-10.4-.073-11.96.288s-.705,2.947-.133,4.955-1.913,4.221-2.33,6.3a9.128,9.128,0,0,0,0,2.44h-1.625c-.193-2.527-.221-4.879-.187-6.786a9.447,9.447,0,0,1,4.793-8.038c7.871-4.462,16.176-2.8,21.643-.7a9.416,9.416,0,0,1,6.031,9.237C376.725,160.285,376.582,162.476,376.362,164.642Z" transform="translate(-340.457 -142.041)" fill="#18315b"/>
        <g id="Group_380" data-name="Group 380" transform="translate(3.008 19.037)">
          <g id="Group_375" data-name="Group 375" transform="translate(5.042)">
            <path id="Path_860" data-name="Path 860" d="M354.746,175.443a4.866,4.866,0,1,1,4.866-4.866A4.872,4.872,0,0,1,354.746,175.443Zm0-8.974a4.108,4.108,0,1,0,4.108,4.108A4.112,4.112,0,0,0,354.746,166.469Z" transform="translate(-349.88 -165.711)" fill="#fff"/>
          </g>
          <g id="Group_376" data-name="Group 376" transform="translate(18.344)">
            <path id="Path_861" data-name="Path 861" d="M372.423,175.443a4.866,4.866,0,1,1,4.866-4.866A4.872,4.872,0,0,1,372.423,175.443Zm0-8.974a4.108,4.108,0,1,0,4.108,4.108A4.112,4.112,0,0,0,372.423,166.469Z" transform="translate(-367.557 -165.711)" fill="#fff"/>
          </g>
          <g id="Group_377" data-name="Group 377" transform="translate(0 0.805)">
            <path id="Path_862" data-name="Path 862" d="M349.044,169.275a.376.376,0,0,1-.267-.11h0a5.978,5.978,0,0,0-5.133-1.49.379.379,0,0,1-.172-.739,6.645,6.645,0,0,1,5.84,1.691.379.379,0,0,1-.268.648Z" transform="translate(-343.179 -166.781)" fill="#fff"/>
          </g>
          <g id="Group_378" data-name="Group 378" transform="translate(26.964 0.7)">
            <path id="Path_863" data-name="Path 863" d="M379.392,169.24a.379.379,0,0,1-.208-.7c.145-.095,3.588-2.316,6.519-1.833a.379.379,0,1,1-.123.748c-2.637-.434-5.947,1.7-5.981,1.72A.373.373,0,0,1,379.392,169.24Z" transform="translate(-379.013 -166.642)" fill="#fff"/>
          </g>
          <g id="Group_379" data-name="Group 379" transform="translate(13.885 1.784)">
            <path id="Path_864" data-name="Path 864" d="M366.357,170.072a3.064,3.064,0,0,0-2.094-1.231,2.8,2.8,0,0,0-2,1.229l-.635-.415a3.515,3.515,0,0,1,2.631-1.573,3.784,3.784,0,0,1,2.71,1.546Z" transform="translate(-361.632 -168.082)" fill="#fff"/>
          </g>
        </g>
      </g>
      <g id="Group_382" data-name="Group 382" transform="translate(0 72.208)">
        <path id="Path_865" data-name="Path 865" d="M311.956,254.653a138.106,138.106,0,0,1-11.163,17.789,46.358,46.358,0,0,1-5.472,6.111c-2.968,2.68-5.862,4.081-8.219,2.892-8.743-4.407-28.233-39.483-28.233-39.483l4.8-5.693s8.674,10.017,15.018,16.012c5.85,5.528,10.349,9.661,10.349,9.661.81-1.233,1.673-2.583,2.57-4.013.954-1.518,1.944-3.123,2.951-4.776,7.3-11.993,15.41-26.391,15.41-26.391Z" transform="translate(-258.869 -226.762)" fill="#ffa681"/>
        <path id="Path_866" data-name="Path 866" d="M311.563,281.124a46.36,46.36,0,0,1-5.472,6.111l-3.715-20.624c.954-1.518,1.944-3.123,2.951-4.776Z" transform="translate(-269.639 -235.444)" fill="#f97853"/>
        <path id="Path_867" data-name="Path 867" d="M321.014,226.762l-17.52,27.555,5.88,24.236,14.5-23.608S325.631,238.795,321.014,226.762Z" transform="translate(-269.916 -226.762)" fill="#006bde"/>
      </g>
    </g>
    <g id="Group_406" data-name="Group 406" transform="translate(153.424 122.574)">
      <g id="Group_389" data-name="Group 389" transform="translate(2.308 50.826)">
        <path id="Path_868" data-name="Path 868" d="M273.809,389.718c-1.251-6.935-2.485-14.756-3.606-22.351q-.369-2.519-.724-4.987c-.9-6.288-1.7-12.235-2.347-17.169-.245-1.874-.467-3.605-.667-5.149-.625-4.925-.992-7.984-.992-7.984l-27.667,1.046-27.752-1.046s-.715,6.053-1.86,14.83c-.209,1.6-.433,3.282-.667,5.041-.616,4.606-1.321,9.692-2.078,14.9l-.034.229c-.238,1.623-.478,3.257-.727,4.892a.484.484,0,0,1-.011.065v0c-.594,3.95-1.216,7.894-1.849,11.689-.26,1.567-.524,3.1-.789,4.6q-.123.7-.247,1.388Z" transform="translate(-201.791 -234.481)" fill="#006bde"/>
        <g id="Group_384" data-name="Group 384" transform="translate(0.247 103.299)">
          <path id="Path_869" data-name="Path 869" d="M219.532,342.263a2.607,2.607,0,1,1-2.607-2.607A2.608,2.608,0,0,1,219.532,342.263Z" transform="translate(-205.139 -339.656)" fill="#264cbe"/>
          <path id="Path_870" data-name="Path 870" d="M228.131,355.689a2.608,2.608,0,1,1-2.607-2.608A2.607,2.607,0,0,1,228.131,355.689Z" transform="translate(-207.267 -342.979)" fill="#264cbe"/>
          <path id="Path_871" data-name="Path 871" d="M245.051,348.758a2.607,2.607,0,1,1-2.607-2.608A2.607,2.607,0,0,1,245.051,348.758Z" transform="translate(-211.456 -341.264)" fill="#264cbe"/>
          <path id="Path_872" data-name="Path 872" d="M218.347,369.947a2.608,2.608,0,1,1-2.608-2.607A2.608,2.608,0,0,1,218.347,369.947Z" transform="translate(-204.845 -346.509)" fill="#264cbe"/>
          <path id="Path_873" data-name="Path 873" d="M239.489,368.465a2.608,2.608,0,1,1-2.608-2.607A2.608,2.608,0,0,1,239.489,368.465Z" transform="translate(-210.079 -346.142)" fill="#264cbe"/>
          <path id="Path_874" data-name="Path 874" d="M211.776,354.232a2.6,2.6,0,0,1-2.363,2.6c.235-1.759.458-3.444.667-5.041A2.605,2.605,0,0,1,211.776,354.232Z" transform="translate(-203.925 -342.659)" fill="#264cbe"/>
          <path id="Path_875" data-name="Path 875" d="M273.942,388.825a2.608,2.608,0,1,1-2.608-2.607A2.608,2.608,0,0,1,273.942,388.825Z" transform="translate(-218.607 -351.182)" fill="#264cbe"/>
          <path id="Path_876" data-name="Path 876" d="M272.305,369.947a2.608,2.608,0,1,1-2.608-2.607A2.608,2.608,0,0,1,272.305,369.947Z" transform="translate(-218.202 -346.509)" fill="#264cbe"/>
          <path id="Path_877" data-name="Path 877" d="M291.515,377.33a2.608,2.608,0,1,1-1.023-5.007,2.076,2.076,0,0,1,.3.02Q291.147,374.807,291.515,377.33Z" transform="translate(-223.35 -347.742)" fill="#264cbe"/>
          <path id="Path_878" data-name="Path 878" d="M275.77,402.66a2.608,2.608,0,1,1-2.607-2.608A2.607,2.607,0,0,1,275.77,402.66Z" transform="translate(-219.06 -354.607)" fill="#264cbe"/>
          <path id="Path_879" data-name="Path 879" d="M290.593,397.128a2.608,2.608,0,1,1-2.607-2.608A2.607,2.607,0,0,1,290.593,397.128Z" transform="translate(-222.729 -353.237)" fill="#264cbe"/>
          <path id="Path_880" data-name="Path 880" d="M260.051,408.307a2.6,2.6,0,0,0-4.3,0Z" transform="translate(-215.396 -356.369)" fill="#264cbe"/>
          <path id="Path_881" data-name="Path 881" d="M216.066,391.839a2.608,2.608,0,1,1-2.607-2.608A2.607,2.607,0,0,1,216.066,391.839Z" transform="translate(-204.281 -351.928)" fill="#264cbe"/>
          <path id="Path_882" data-name="Path 882" d="M207.893,380.97a2.6,2.6,0,0,1-2.268,2.581.489.489,0,0,0,.011-.065c.249-1.634.489-3.269.727-4.892A2.614,2.614,0,0,1,207.893,380.97Z" transform="translate(-202.987 -349.295)" fill="#264cbe"/>
          <path id="Path_883" data-name="Path 883" d="M203.977,402.823a2.614,2.614,0,0,1-1.858,2.5c.266-1.5.529-3.037.789-4.6A2.608,2.608,0,0,1,203.977,402.823Z" transform="translate(-202.119 -354.772)" fill="#264cbe"/>
          <path id="Path_884" data-name="Path 884" d="M224.666,404.124a2.608,2.608,0,1,1-2.608-2.608A2.608,2.608,0,0,1,224.666,404.124Z" transform="translate(-206.409 -354.969)" fill="#264cbe"/>
          <path id="Path_885" data-name="Path 885" d="M242.954,401.41a2.608,2.608,0,1,1-2.607-2.608A2.607,2.607,0,0,1,242.954,401.41Z" transform="translate(-210.936 -354.297)" fill="#264cbe"/>
          <path id="Path_886" data-name="Path 886" d="M229.907,384.371a2.608,2.608,0,1,1-2.608-2.607A2.608,2.608,0,0,1,229.907,384.371Z" transform="translate(-207.707 -350.079)" fill="#264cbe"/>
          <path id="Path_887" data-name="Path 887" d="M248.516,380.906a2.608,2.608,0,1,1-2.608-2.607A2.608,2.608,0,0,1,248.516,380.906Z" transform="translate(-212.313 -349.222)" fill="#264cbe"/>
          <path id="Path_888" data-name="Path 888" d="M256.893,362.62a2.608,2.608,0,1,1-2.608-2.608A2.608,2.608,0,0,1,256.893,362.62Z" transform="translate(-214.387 -344.695)" fill="#264cbe"/>
          <path id="Path_889" data-name="Path 889" d="M287.586,347.838a2.455,2.455,0,0,1-.56.062,2.607,2.607,0,0,1-.107-5.212C287.12,344.233,287.341,345.964,287.586,347.838Z" transform="translate(-222.492 -340.407)" fill="#264cbe"/>
          <path id="Path_890" data-name="Path 890" d="M268.839,348.758a2.608,2.608,0,1,1-2.607-2.608A2.607,2.607,0,0,1,268.839,348.758Z" transform="translate(-217.344 -341.264)" fill="#264cbe"/>
          <path id="Path_891" data-name="Path 891" d="M281.532,361.108a2.608,2.608,0,1,1-2.608-2.607A2.608,2.608,0,0,1,281.532,361.108Z" transform="translate(-220.486 -344.321)" fill="#264cbe"/>
          <path id="Path_892" data-name="Path 892" d="M260.358,391.839a2.608,2.608,0,1,1-2.607-2.608A2.607,2.607,0,0,1,260.358,391.839Z" transform="translate(-215.245 -351.928)" fill="#264cbe"/>
        </g>
        <path id="Path_893" data-name="Path 893" d="M269.167,300.655c-14.6,9.528-41.394,8.782-58.235,0,1.609-10.02,3.727-20.052,3.272-33.39q-.077-2.193-.187-4.354-.1-1.879-.218-3.727c-1.453-22.187-5.239-40.328-3.379-42.673a17.66,17.66,0,0,1,3.837-3.268c.656-.447,1.357-.9,2.1-1.352,1.747-1.065,3.69-2.14,5.641-3.187,4.628-2.471,9.327-4.764,11.683-6.33a14.97,14.97,0,0,0,6.2,1.564,1.709,1.709,0,0,0,.172-.006,1.558,1.558,0,0,0,.167.006,14.988,14.988,0,0,0,6.2-1.564c2.186,1.453,6.3,3.481,10.5,5.692a90.935,90.935,0,0,1,8.652,5.025,17.349,17.349,0,0,1,3.7,3.175c.922,1.162.534,6.257-.254,13.806-.78,7.428-1.948,17.237-2.655,28.018-.2,2.994-.357,6.062-.464,9.175C265.443,280.6,267.558,290.634,269.167,300.655Z" transform="translate(-203.802 -202.374)" fill="#009cf8"/>
        <g id="Group_385" data-name="Group 385" transform="translate(17.108 66.594)">
          <path id="Path_894" data-name="Path 894" d="M263.858,311.481h0c-11.753-.052-21.786-5.4-28.131-9.878a64.354,64.354,0,0,1-11.064-9.8.565.565,0,0,1,.865-.728A63.258,63.258,0,0,0,236.4,300.7c6.208,4.376,16.011,9.6,27.458,9.653a.565.565,0,0,1,0,1.131Z" transform="translate(-224.528 -290.877)" fill="#006bde"/>
        </g>
        <g id="Group_386" data-name="Group 386" transform="translate(29.196 69.383)">
          <path id="Path_895" data-name="Path 895" d="M260.054,305.557c-10.008-1.967-18.866-9.631-19.268-9.984a.565.565,0,1,1,.745-.851c.1.09,10.528,9.1,21.151,10.074a.566.566,0,1,1-.1,1.126A24.822,24.822,0,0,1,260.054,305.557Z" transform="translate(-240.592 -294.583)" fill="#006bde"/>
        </g>
        <g id="Group_387" data-name="Group 387" transform="translate(33.277 15.099)">
          <path id="Path_896" data-name="Path 896" d="M246.58,235.924a.566.566,0,0,1-.105-1.121c14.33-2.719,18.648-11.938,18.69-12.03a.566.566,0,0,1,1.031.466c-.181.4-4.609,9.848-19.51,12.675A.577.577,0,0,1,246.58,235.924Z" transform="translate(-246.015 -222.44)" fill="#006bde"/>
        </g>
        <path id="Path_897" data-name="Path 897" d="M260.894,208.067c-2.844,6.487-9.836,13.2-18.929,11.635-8.805-1.522-12.981-6.179-15.995-11,4.629-2.472,9.328-4.762,11.683-6.33a15.029,15.029,0,0,0,6.2,1.564,1.507,1.507,0,0,0,.173-.007,1.412,1.412,0,0,0,.169.007,15.053,15.053,0,0,0,6.2-1.564C252.582,203.827,256.7,205.854,260.894,208.067Z" transform="translate(-207.776 -202.374)" fill="#ffa681"/>
        <g id="Group_388" data-name="Group 388" transform="translate(25.335 0.476)">
          <path id="Path_898" data-name="Path 898" d="M255.642,203.006a.447.447,0,0,0-.452.447c0,.364-.152,8.94-7.85,9.6-7.14.621-10.1-6.215-11.009-9.05a.4.4,0,0,0-.382-.278h-.084a.4.4,0,0,0-.382.528c.974,2.926,4.087,9.99,11.361,9.731q.283-.01.574-.035c8.52-.735,8.671-10.4,8.672-10.5A.45.45,0,0,0,255.642,203.006Z" transform="translate(-235.461 -203.006)" fill="#fff"/>
        </g>
      </g>
      <g id="Group_399" data-name="Group 399" transform="translate(15.746)">
        <path id="Path_899" data-name="Path 899" d="M257.475,142.43s6.88,10.656,6.126,21.756,1.014,23.913-8.918,23.35-27.648,3.982-33.278-4.663S257.475,142.43,257.475,142.43Z" transform="translate(-219.955 -136.709)" fill="#18315b"/>
        <path id="Path_900" data-name="Path 900" d="M266.648,168.41s1.786,16.089-5.849,20.519-13.159-.515-13.159-.515S263.732,165.987,266.648,168.41Z" transform="translate(-226.579 -143.095)" fill="#000b29"/>
        <g id="Group_398" data-name="Group 398" transform="translate(2.917 8.001)">
          <g id="Group_392" data-name="Group 392" transform="translate(0 15.41)">
            <path id="Path_901" data-name="Path 901" d="M228.967,167.769s-2.741-3.655-4.78-.633.844,11.949,5.834,9.77Z" transform="translate(-223.527 -165.939)" fill="#f97853"/>
            <g id="Group_390" data-name="Group 390" transform="translate(1.07 3.2)">
              <path id="Path_902" data-name="Path 902" d="M229.284,175.2a.423.423,0,0,1-.406-.308,6.519,6.519,0,0,0-3.657-3.884.422.422,0,0,1,.3-.789,7.265,7.265,0,0,1,4.171,4.446.423.423,0,0,1-.406.536Z" transform="translate(-224.948 -170.192)" fill="#ea5143"/>
            </g>
            <g id="Group_391" data-name="Group 391" transform="translate(2.101 4.857)">
              <path id="Path_903" data-name="Path 903" d="M226.74,174.357a.422.422,0,0,1-.354-.65,3.853,3.853,0,0,1,1.582-1.276.422.422,0,1,1,.345.771,3.052,3.052,0,0,0-1.218.962A.42.42,0,0,1,226.74,174.357Z" transform="translate(-226.319 -172.394)" fill="#ea5143"/>
            </g>
          </g>
          <g id="Group_395" data-name="Group 395" transform="translate(32.637 15.41)">
            <path id="Path_904" data-name="Path 904" d="M267.955,167.769s2.741-3.655,4.78-.633-.844,11.949-5.835,9.77Z" transform="translate(-266.9 -165.939)" fill="#f97853"/>
            <g id="Group_393" data-name="Group 393" transform="translate(0.668 3.2)">
              <path id="Path_905" data-name="Path 905" d="M268.209,175.2a.422.422,0,0,0,.406-.308,6.517,6.517,0,0,1,3.658-3.884.422.422,0,0,0-.3-.789,7.263,7.263,0,0,0-4.171,4.446.421.421,0,0,0,.292.52A.431.431,0,0,0,268.209,175.2Z" transform="translate(-267.788 -170.192)" fill="#ea5143"/>
            </g>
            <g id="Group_394" data-name="Group 394" transform="translate(2.15 4.857)">
              <path id="Path_906" data-name="Path 906" d="M271.579,174.357a.422.422,0,0,0,.354-.65,3.859,3.859,0,0,0-1.583-1.276.422.422,0,0,0-.345.771,3.051,3.051,0,0,1,1.218.962A.421.421,0,0,0,271.579,174.357Z" transform="translate(-269.757 -172.394)" fill="#ea5143"/>
            </g>
          </g>
          <path id="Path_907" data-name="Path 907" d="M254.226,190.577v8.877s-2.647,4.521-6.227,4.829-6.756-3.893-6.756-3.893V191.2Z" transform="translate(-227.912 -156.629)" fill="#ffa681"/>
          <path id="Path_908" data-name="Path 908" d="M254.226,190.577v3.939c-2.4,2.666-6.668,3.61-12.981,2.679l0-5.993Z" transform="translate(-227.912 -156.629)" fill="#f97853"/>
          <path id="Path_909" data-name="Path 909" d="M260.453,156.609a86.5,86.5,0,0,1-1.151,11.215c-.165.86-.35,1.67-.557,2.4-1.868,6.541-6.541,17.759-19.623,13.087-5.778-2.062-8.456-8.5-9.65-15.044a63.247,63.247,0,0,1-.873-12.145,9.267,9.267,0,0,1,4.7-7.886c7.722-4.378,15.87-2.746,21.234-.683A9.238,9.238,0,0,1,260.453,156.609Z" transform="translate(-224.779 -145.46)" fill="#ffa681"/>
          <path id="Path_910" data-name="Path 910" d="M241.155,168.5c0,.947-.489,1.716-1.091,1.716s-1.091-.768-1.091-1.716.488-1.716,1.091-1.716S241.155,167.551,241.155,168.5Z" transform="translate(-227.35 -150.739)" fill="#18315b"/>
          <path id="Path_911" data-name="Path 911" d="M259.057,168.5c0,.947-.488,1.716-1.09,1.716s-1.091-.768-1.091-1.716.488-1.716,1.091-1.716S259.057,167.551,259.057,168.5Z" transform="translate(-231.782 -150.739)" fill="#18315b"/>
          <path id="Path_912" data-name="Path 912" d="M236.973,162.044a18.21,18.21,0,0,1,4.667-.7.811.811,0,0,1,.807.95l0,.012a.807.807,0,0,1-.834.663,20.506,20.506,0,0,0-6.39.783,1.221,1.221,0,0,1,.372-.868A2.81,2.81,0,0,1,236.973,162.044Z" transform="translate(-226.42 -149.392)" fill="#18315b"/>
          <path id="Path_913" data-name="Path 913" d="M259.171,162.091a18.21,18.21,0,0,0-4.667-.7.81.81,0,0,0-.807.95l0,.013a.808.808,0,0,0,.835.663,20.484,20.484,0,0,1,6.39.783,1.221,1.221,0,0,0-.372-.868A2.808,2.808,0,0,0,259.171,162.091Z" transform="translate(-230.992 -149.404)" fill="#18315b"/>
          <g id="Group_396" data-name="Group 396" transform="translate(18.144 17.338)">
            <path id="Path_914" data-name="Path 914" d="M249.208,176.753a1.786,1.786,0,0,1-.917-.218,1.29,1.29,0,0,1-.613-1.03,62.388,62.388,0,0,1,.254-6.615.422.422,0,1,1,.84.069,63.807,63.807,0,0,0-.255,6.459.459.459,0,0,0,.208.393,2.53,2.53,0,0,0,1.692-.16.422.422,0,0,1,.319.781A4.507,4.507,0,0,1,249.208,176.753Z" transform="translate(-247.639 -168.502)" fill="#f97853"/>
          </g>
          <path id="Path_915" data-name="Path 915" d="M242.606,183.006c.319,1.6,1.379,4.556,4.949,4.556s4.582-2.7,4.927-4.556Z" transform="translate(-228.25 -154.754)" fill="#fff"/>
          <g id="Group_397" data-name="Group 397" transform="translate(17.076 33.909)">
            <path id="Path_916" data-name="Path 916" d="M248.4,191.884a4.2,4.2,0,0,1-1.978-.579.422.422,0,0,1,.442-.718h0a3.394,3.394,0,0,0,1.536.453,3.589,3.589,0,0,0,1.619-.454.422.422,0,0,1,.436.722A4.412,4.412,0,0,1,248.4,191.884Z" transform="translate(-246.22 -190.525)" fill="#f97853"/>
          </g>
        </g>
        <path id="Path_917" data-name="Path 917" d="M261.805,153.29a1.392,1.392,0,0,1-1.016.777,26.92,26.92,0,0,1-.152,3.121c-.521,6.1-2.059,7.166-2.406,5.659a70.354,70.354,0,0,1-.1-8.613,19.875,19.875,0,0,1-2.234-.28l-1.414-5.918-.494,5.844c-2.121.738-7.069-.444-7.069-.444l-1.659-5.833-1.026,5.613c-3.181,1.549-7.157.518-7.157.518l-.913-6.054-2.109,6.054s-6.786,2.434-6.859,0c-.045-1.417.992-5.406,1.869-8.5a12.783,12.783,0,0,1,6.164-7.824c8.417-4.518,17.318-2.115,20.372-.291C262.071,140.987,261.805,153.29,261.805,153.29Z" transform="translate(-221.516 -134.827)" fill="#18315b"/>
        <path id="Path_918" data-name="Path 918" d="M229.062,143.029s-5.587,6.644-7.424,18.511-4.382,20.635,2.768,24.553c7.739,4.241,7.069-4.457,6.958-6.821s-6.7-8.826-2.3-27.025C230.48,146.373,229.062,143.029,229.062,143.029Z" transform="translate(-219.65 -136.858)" fill="#18315b"/>
        <path id="Path_919" data-name="Path 919" d="M230.423,175.619v.014c0,.088.008.56.042,1.3.017.458.045,1.015.087,1.649.263,4,1.041,10.9,3.325,13.3.9.947,2.641,1.422,4.689,1.615v-3.142a12.432,12.432,0,0,1-5.143-4.776,29.379,29.379,0,0,1-2.845-8.771Z" transform="translate(-222.317 -144.925)" fill="#000b29"/>
        <path id="Path_920" data-name="Path 920" d="M270.42,180.455a.988.988,0,1,1-.988-.988A.988.988,0,0,1,270.42,180.455Z" transform="translate(-231.728 -145.878)" fill="#fff"/>
      </g>
      <g id="Group_405" data-name="Group 405" transform="translate(0 64.716)">
        <path id="Path_921" data-name="Path 921" d="M280.62,265.13c-2.8,8.012-15.332,7.429-29.608,3.049-.021-.006-.041-.014-.062-.019-.045-.014-.088-.029-.133-.041l-1.964-.626c-.271-.089-.543-.179-.814-.272q-2.308-.772-4.644-1.662a159.3,159.3,0,0,1-15.088-6.683l.034-.085L229.8,255l.5-1.29s26.465,2.883,39.772.1c.226-.047.445-.094.662-.144a8.291,8.291,0,0,0-.153-.878c-7.051-24,.661-28.606,3.241-31.954C273.821,220.834,285.9,250,280.62,265.13Z" transform="translate(-206.047 -220.834)" fill="#009cf8"/>
        <g id="Group_400" data-name="Group 400" transform="translate(64.024 31.954)">
          <path id="Path_922" data-name="Path 922" d="M290.047,268.213a.576.576,0,0,1-.247.056.566.566,0,0,1-.508-.316c-1.008-2.065-4.431-3.294-5.482-3.631.226-.047.445-.094.662-.144-.053-.295-.1-.588-.153-.878,1.338.442,4.83,1.789,5.987,4.158A.565.565,0,0,1,290.047,268.213Z" transform="translate(-283.81 -263.3)" fill="#006bde"/>
        </g>
        <g id="Group_401" data-name="Group 401" transform="translate(22.501 32.599)">
          <path id="Path_923" data-name="Path 923" d="M239.319,267.419c-5.4,0-9.787-.31-10.169-.338a.564.564,0,0,1,.082-1.126c.2.014,20.051,1.418,27.879-1.757a.564.564,0,0,1,.424,1.046C253.2,267,245.579,267.419,239.319,267.419Z" transform="translate(-228.627 -264.157)" fill="#006bde"/>
        </g>
        <g id="Group_402" data-name="Group 402" transform="translate(42.806 35.861)">
          <path id="Path_924" data-name="Path 924" d="M255.612,279.29h0c4.529-1.249,8.646-2.466,11.023-3.228,3.3-1.059,6.032-4.4,7.273-7.232a.565.565,0,0,1,1.034.454c-1.342,3.068-4.326,6.686-7.963,7.854-1.725.553-4.361,1.343-7.406,2.212a6.853,6.853,0,0,1-3.964-.06Z" transform="translate(-255.612 -268.492)" fill="#006bde"/>
        </g>
        <g id="Group_404" data-name="Group 404" transform="translate(1.057 0.247)">
          <path id="Path_925" data-name="Path 925" d="M254.086,263.693c-40.9,13.775-53.483,4.76-53.483,4.76-2.754-24.9,7.394-47.291,7.394-47.291a113.368,113.368,0,0,1,6.387,13.57l.9,19.087-.068.53-.032.25-.169,1.306,0,.026.263.056c12.372,2.61,35-.306,35-.306Z" transform="translate(-200.129 -221.162)" fill="#009cf8"/>
          <g id="Group_403" data-name="Group 403" transform="translate(7.951 33.437)">
            <path id="Path_926" data-name="Path 926" d="M217.886,266.987a40.31,40.31,0,0,0-6.175,6.434.565.565,0,0,1-.9-.682l0,0A41.373,41.373,0,0,1,217.8,265.6l-.169,1.306,0,.026Z" transform="translate(-210.696 -265.599)" fill="#006bde"/>
          </g>
          <path id="Path_927" data-name="Path 927" d="M266.763,263.935s4.528-10.286,11.413-9.37L280.252,262c-3.768,1.6-4.32,8.063-9.67,9.945Z" transform="translate(-216.624 -229.416)" fill="#ffa681"/>
        </g>
        <path id="Path_928" data-name="Path 928" d="M222.976,261.488a16.391,16.391,0,0,0-10.385-8.661c-7.525-1.949-12.32,1.6-12.826,2.936s2.838.059,2.838.059a6.5,6.5,0,0,0-3.427,2.663c-1.249,2.046,3.041-.162,3.041-.162s-3.076,1.348-3.467,2.6,3.666-.862,4.429-.821c0,0-3.623,1.439-3.6,2.729s4.161-.813,7.251-.647a48.811,48.811,0,0,1,7.826,1.446,51.893,51.893,0,0,0,7.13.938Z" transform="translate(-198.724 -228.612)" fill="#ffa681"/>
      </g>
    </g>
    <g id="Group_452" data-name="Group 452" transform="translate(33.296 85.328)">
      <g id="Group_445" data-name="Group 445" transform="translate(0 7.009)">
        <g id="Group_425" data-name="Group 425" transform="translate(212.001 4.782)">
          <g id="Group_424" data-name="Group 424">
            <g id="Group_407" data-name="Group 407" transform="translate(0 8.583)">
              <path id="Path_929" data-name="Path 929" d="M325.873,122.507a5.052,5.052,0,1,1,5.052-5.051A5.058,5.058,0,0,1,325.873,122.507Zm0-8.519a3.467,3.467,0,1,0,3.467,3.467A3.47,3.47,0,0,0,325.873,113.989Z" transform="translate(-320.821 -112.404)" fill="#006bde"/>
            </g>
            <g id="Group_408" data-name="Group 408" transform="translate(44.075)">
              <path id="Path_930" data-name="Path 930" d="M384.448,111.1a5.052,5.052,0,1,1,5.052-5.052A5.058,5.058,0,0,1,384.448,111.1Zm0-8.519a3.467,3.467,0,1,0,3.467,3.467A3.47,3.47,0,0,0,384.448,102.582Z" transform="translate(-379.396 -100.997)" fill="#009cf8"/>
            </g>
            <g id="Group_415" data-name="Group 415" transform="translate(49.671 21.441)">
              <g id="Group_411" data-name="Group 411" transform="translate(4.905)">
                <g id="Group_409" data-name="Group 409">
                  <path id="Path_931" data-name="Path 931" d="M394.144,134.571a.793.793,0,0,1-.792-.793v-3.494a.792.792,0,1,1,1.585,0v3.494A.793.793,0,0,1,394.144,134.571Z" transform="translate(-393.352 -129.491)" fill="#006bde"/>
                </g>
                <g id="Group_410" data-name="Group 410" transform="translate(0 6.116)">
                  <path id="Path_932" data-name="Path 932" d="M394.144,142.7a.792.792,0,0,1-.792-.792v-3.494a.792.792,0,0,1,1.585,0v3.494A.792.792,0,0,1,394.144,142.7Z" transform="translate(-393.352 -137.619)" fill="#006bde"/>
                </g>
              </g>
              <g id="Group_414" data-name="Group 414" transform="translate(0 4.805)">
                <g id="Group_412" data-name="Group 412" transform="translate(6.671)">
                  <path id="Path_933" data-name="Path 933" d="M399.631,137.462h-3.139a.792.792,0,0,1,0-1.585h3.139a.792.792,0,0,1,0,1.585Z" transform="translate(-395.699 -135.877)" fill="#006bde"/>
                </g>
                <g id="Group_413" data-name="Group 413">
                  <path id="Path_934" data-name="Path 934" d="M390.765,137.462h-3.139a.792.792,0,0,1,0-1.585h3.139a.792.792,0,1,1,0,1.585Z" transform="translate(-386.833 -135.877)" fill="#006bde"/>
                </g>
              </g>
            </g>
            <g id="Group_423" data-name="Group 423" transform="translate(22.988 0.27)">
              <g id="Group_422" data-name="Group 422">
                <g id="Group_418" data-name="Group 418" transform="translate(4.905)">
                  <g id="Group_416" data-name="Group 416">
                    <path id="Path_935" data-name="Path 935" d="M358.682,106.436a.793.793,0,0,1-.792-.792v-3.5a.792.792,0,0,1,1.585,0v3.5A.792.792,0,0,1,358.682,106.436Z" transform="translate(-357.89 -101.356)" fill="#1c31b5"/>
                  </g>
                  <g id="Group_417" data-name="Group 417" transform="translate(0 6.116)">
                    <path id="Path_936" data-name="Path 936" d="M358.682,114.563a.792.792,0,0,1-.792-.792v-3.494a.792.792,0,1,1,1.585,0v3.494A.792.792,0,0,1,358.682,114.563Z" transform="translate(-357.89 -109.484)" fill="#1c31b5"/>
                  </g>
                </g>
                <g id="Group_421" data-name="Group 421" transform="translate(0 4.805)">
                  <g id="Group_419" data-name="Group 419" transform="translate(6.671)">
                    <path id="Path_937" data-name="Path 937" d="M364.169,109.327h-3.139a.793.793,0,0,1,0-1.585h3.139a.793.793,0,0,1,0,1.585Z" transform="translate(-360.237 -107.742)" fill="#1c31b5"/>
                  </g>
                  <g id="Group_420" data-name="Group 420">
                    <path id="Path_938" data-name="Path 938" d="M355.3,109.327h-3.139a.793.793,0,0,1,0-1.585H355.3a.793.793,0,1,1,0,1.585Z" transform="translate(-351.371 -107.742)" fill="#1c31b5"/>
                  </g>
                </g>
              </g>
            </g>
          </g>
        </g>
        <g id="Group_444" data-name="Group 444">
          <g id="Group_443" data-name="Group 443">
            <g id="Group_426" data-name="Group 426" transform="translate(36.488 0.546)">
              <path id="Path_939" data-name="Path 939" d="M87.568,100.42a5.052,5.052,0,1,1,5.052,5.051A5.058,5.058,0,0,1,87.568,100.42Zm1.585,0a3.467,3.467,0,1,0,3.467-3.467A3.471,3.471,0,0,0,89.153,100.42Z" transform="translate(-87.568 -95.368)" fill="#006bde"/>
            </g>
            <g id="Group_427" data-name="Group 427" transform="translate(16.201 19.802)">
              <path id="Path_940" data-name="Path 940" d="M60.607,126.01a5.052,5.052,0,1,1,5.051,5.052A5.057,5.057,0,0,1,60.607,126.01Zm1.585,0a3.467,3.467,0,1,0,3.467-3.467A3.471,3.471,0,0,0,62.192,126.01Z" transform="translate(-60.607 -120.958)" fill="#009cf8"/>
            </g>
            <g id="Group_434" data-name="Group 434" transform="translate(0 26.863)">
              <g id="Group_430" data-name="Group 430" transform="translate(4.905)">
                <g id="Group_428" data-name="Group 428">
                  <path id="Path_941" data-name="Path 941" d="M46.387,135.422a.792.792,0,0,0,.792-.792v-3.494a.792.792,0,0,0-1.585,0v3.494A.792.792,0,0,0,46.387,135.422Z" transform="translate(-45.595 -130.343)" fill="#006bde"/>
                </g>
                <g id="Group_429" data-name="Group 429" transform="translate(0 6.115)">
                  <path id="Path_942" data-name="Path 942" d="M46.387,143.55a.792.792,0,0,0,.792-.792v-3.5a.792.792,0,0,0-1.585,0v3.5A.793.793,0,0,0,46.387,143.55Z" transform="translate(-45.595 -138.47)" fill="#006bde"/>
                </g>
              </g>
              <g id="Group_433" data-name="Group 433" transform="translate(0 4.805)">
                <g id="Group_431" data-name="Group 431">
                  <path id="Path_943" data-name="Path 943" d="M39.868,138.314h3.139a.792.792,0,1,0,0-1.585H39.868a.792.792,0,1,0,0,1.585Z" transform="translate(-39.076 -136.729)" fill="#006bde"/>
                </g>
                <g id="Group_432" data-name="Group 432" transform="translate(6.671)">
                  <path id="Path_944" data-name="Path 944" d="M48.734,138.314h3.139a.792.792,0,1,0,0-1.585H48.734a.792.792,0,1,0,0,1.585Z" transform="translate(-47.942 -136.729)" fill="#006bde"/>
                </g>
              </g>
            </g>
            <g id="Group_442" data-name="Group 442" transform="translate(18.26)">
              <g id="Group_441" data-name="Group 441">
                <g id="Group_437" data-name="Group 437" transform="translate(4.905)">
                  <g id="Group_435" data-name="Group 435">
                    <path id="Path_945" data-name="Path 945" d="M70.654,99.722a.792.792,0,0,0,.792-.792V95.435a.792.792,0,1,0-1.585,0v3.494A.792.792,0,0,0,70.654,99.722Z" transform="translate(-69.862 -94.642)" fill="#1c31b5"/>
                  </g>
                  <g id="Group_436" data-name="Group 436" transform="translate(0 6.116)">
                    <path id="Path_946" data-name="Path 946" d="M70.654,107.849a.792.792,0,0,0,.792-.792v-3.494a.792.792,0,1,0-1.585,0v3.494A.792.792,0,0,0,70.654,107.849Z" transform="translate(-69.862 -102.77)" fill="#1c31b5"/>
                  </g>
                </g>
                <g id="Group_440" data-name="Group 440" transform="translate(0 4.805)">
                  <g id="Group_438" data-name="Group 438">
                    <path id="Path_947" data-name="Path 947" d="M64.135,102.613h3.139a.793.793,0,0,0,0-1.585H64.135a.793.793,0,0,0,0,1.585Z" transform="translate(-63.343 -101.028)" fill="#1c31b5"/>
                  </g>
                  <g id="Group_439" data-name="Group 439" transform="translate(6.671)">
                    <path id="Path_948" data-name="Path 948" d="M73,102.613h3.139a.793.793,0,0,0,0-1.585H73a.793.793,0,0,0,0,1.585Z" transform="translate(-72.209 -101.028)" fill="#1c31b5"/>
                  </g>
                </g>
              </g>
            </g>
          </g>
        </g>
      </g>
      <g id="Group_451" data-name="Group 451" transform="translate(147.311)">
        <g id="Group_448" data-name="Group 448" transform="translate(25.528 11.235)">
          <g id="Group_446" data-name="Group 446">
            <path id="Path_949" data-name="Path 949" d="M270.969,101.993a.559.559,0,0,1-.278-.041c-.962-.406-1.525-.6-1.531-.6a.563.563,0,0,1,.357-1.068c.024.008.6.2,1.613.628a.563.563,0,0,1-.16,1.078Z" transform="translate(-268.776 -100.259)" fill="#bbe2f2"/>
          </g>
          <g id="Group_447" data-name="Group 447" transform="translate(4.598 2.028)">
            <path id="Path_950" data-name="Path 950" d="M309.787,142.422c.383,1.021.741,2.074,1.065,3.129a.563.563,0,0,0,.6.394.5.5,0,0,0,.107-.022.563.563,0,0,0,.372-.7c-.331-1.077-.7-2.152-1.087-3.193a.563.563,0,0,0-1.054.394Z" transform="translate(-283.516 -112.536)" fill="#bbe2f2"/>
            <path id="Path_951" data-name="Path 951" d="M312.375,150.839c.258,1.057.491,2.145.693,3.235a.562.562,0,0,0,.612.457.428.428,0,0,0,.044-.006.562.562,0,0,0,.451-.655c-.205-1.111-.443-2.219-.706-3.3a.563.563,0,1,0-1.093.266Z" transform="translate(-284.162 -114.635)" fill="#bbe2f2"/>
            <path id="Path_952" data-name="Path 952" d="M315.321,172.181a.562.562,0,0,0,.5-.551c.017-1.129.01-2.262-.024-3.367a.563.563,0,0,0-1.125.034c.033,1.089.041,2.2.024,3.316a.562.562,0,0,0,.554.571A.517.517,0,0,0,315.321,172.181Z" transform="translate(-284.735 -118.986)" fill="#bbe2f2"/>
            <path id="Path_953" data-name="Path 953" d="M314.467,158.871a.563.563,0,0,0-.485.631c.066.509.126,1.023.18,1.527.062.583.117,1.178.163,1.768a.562.562,0,0,0,.605.517h.015a.563.563,0,0,0,.5-.6c-.047-.6-.1-1.2-.166-1.8-.053-.514-.115-1.037-.183-1.555a.562.562,0,0,0-.616-.487Z" transform="translate(-284.562 -116.795)" fill="#bbe2f2"/>
            <path id="Path_954" data-name="Path 954" d="M307.635,137.361a.563.563,0,0,0,1.027-.46c-.458-1.025-.955-2.047-1.476-3.036a.562.562,0,1,0-1,.524C306.7,135.358,307.185,136.357,307.635,137.361Z" transform="translate(-282.619 -110.531)" fill="#bbe2f2"/>
            <path id="Path_955" data-name="Path 955" d="M275.192,104.018c.966.494,1.941,1.031,2.9,1.6a.563.563,0,0,0,.573-.968c-.977-.579-1.973-1.127-2.959-1.631a.563.563,0,0,0-.512,1Z" transform="translate(-274.886 -102.954)" fill="#bbe2f2"/>
            <path id="Path_956" data-name="Path 956" d="M285.471,110.435a.563.563,0,0,0,.683-.895c-.892-.68-1.814-1.342-2.743-1.969a.563.563,0,1,0-.629.933C283.693,109.118,284.6,109.768,285.471,110.435Z" transform="translate(-276.779 -104.073)" fill="#bbe2f2"/>
            <path id="Path_957" data-name="Path 957" d="M298.248,122.515a.563.563,0,0,0,.5.208.556.556,0,0,0,.292-.12.563.563,0,0,0,.087-.791c-.7-.873-1.436-1.737-2.192-2.568a.563.563,0,1,0-.833.757C296.841,120.814,297.563,121.66,298.248,122.515Z" transform="translate(-280.101 -106.941)" fill="#bbe2f2"/>
            <path id="Path_958" data-name="Path 958" d="M292.228,116.089a.563.563,0,0,0,.785-.807c-.8-.779-1.638-1.546-2.491-2.281a.563.563,0,0,0-.734.853C290.623,114.575,291.444,115.326,292.228,116.089Z" transform="translate(-278.526 -105.408)" fill="#bbe2f2"/>
            <path id="Path_959" data-name="Path 959" d="M303.416,129.639a.562.562,0,1,0,.96-.586c-.584-.957-1.206-1.907-1.85-2.825a.563.563,0,0,0-.922.646C302.234,127.773,302.844,128.7,303.416,129.639Z" transform="translate(-281.475 -108.656)" fill="#bbe2f2"/>
          </g>
        </g>
        <g id="Group_450" data-name="Group 450">
          <g id="Group_449" data-name="Group 449">
            <path id="Path_960" data-name="Path 960" d="M262.559,94.448l2.462-9.12-30.172.259Z" transform="translate(-234.85 -85.328)" fill="#009cf8"/>
            <path id="Path_961" data-name="Path 961" d="M234.85,85.671,261.1,96.734l.069.03,1.129,1.87.266-4.1Z" transform="translate(-234.85 -85.413)" fill="#006bde"/>
            <path id="Path_962" data-name="Path 962" d="M270.517,102.284l-2.446-.386,1.317-1.485Z" transform="translate(-243.073 -89.062)" fill="#006bde"/>
            <path id="Path_963" data-name="Path 963" d="M257.862,95.372l3.3,1.392-6.8,7.664L234.85,85.672Z" transform="translate(-234.85 -85.413)" fill="#009cf8"/>
          </g>
        </g>
      </g>
    </g>
    <g id="Group_453" data-name="Group 453" transform="translate(37.634 328.637)">
      <path id="Rectangle_4026" data-name="Rectangle 4026" d="M6.019,0H303.4a6.017,6.017,0,0,1,6.017,6.017v0a6.017,6.017,0,0,1-6.017,6.017H6.017A6.017,6.017,0,0,1,0,6.019v0A6.019,6.019,0,0,1,6.019,0Z" transform="translate(0)" fill="#1c31b5"/>
      <path id="Path_964" data-name="Path 964" d="M354.262,414.423v.275H44.841v-.275a5.742,5.742,0,0,1,5.743-5.742H348.518A5.743,5.743,0,0,1,354.262,414.423Z" transform="translate(-44.841 -408.681)" fill="#006bde"/>
    </g>
    <g id="Group_454" data-name="Group 454" transform="translate(140.296 253.505)">
      <rect id="Rectangle_4027" data-name="Rectangle 4027" width="101.692" height="57.065" rx="5.381" transform="translate(0 0)" fill="#18315b"/>
      <rect id="Rectangle_4028" data-name="Rectangle 4028" width="15.749" height="17.954" transform="translate(42.972 57)" fill="#000b29"/>
      <circle id="Ellipse_18" data-name="Ellipse 18" cx="7.816" cy="7.816" r="7.816" transform="translate(42.854 21.416)" fill="#1d567e"/>
      <path id="Rectangle_4029" data-name="Rectangle 4029" d="M6.369,0H34.254a6.369,6.369,0,0,1,6.369,6.369v0a0,0,0,0,1,0,0H0a0,0,0,0,1,0,0v0A6.369,6.369,0,0,1,6.369,0Z" transform="translate(30.283 68.585)" fill="#18315b"/>
    </g>
  </g>
</svg>
