<svg xmlns="http://www.w3.org/2000/svg" width="92.748" height="93.75" viewBox="0 0 92.748 93.75">
  <g id="np_handshake_2698026_000000" transform="translate(-3.627 -3.125)">
    <path id="Path_711" data-name="Path 711" d="M36.6,95.188A6.6,6.6,0,0,1,32.128,93.4a1.076,1.076,0,0,1-.113-.117,6.6,6.6,0,0,1-1.258-1.977,6.34,6.34,0,0,1-9.777-2.551l-.1.1a6.335,6.335,0,0,1-8.945-8.973L21.664,70.3a1.947,1.947,0,0,1,2.75.012L35.539,81.43l.02.02,4.449,4.586a2.918,2.918,0,0,0,1.863.7,2.189,2.189,0,0,0,.773-.133,1.954,1.954,0,0,1,2.02,3.246l-3.648,3.508a6.2,6.2,0,0,1-4.41,1.832Zm-1.762-4.6a2.687,2.687,0,0,0,1.762.7,2.312,2.312,0,0,0,1.664-.7l.027-.027.625-.6a6.912,6.912,0,0,1-1.555-1.035c-.035-.031-.07-.066-.105-.1L35.23,86.727a1.924,1.924,0,0,1-.395.566,2.421,2.421,0,0,0,.008,3.293Zm-11.1-9.164a1.951,1.951,0,0,1,1.383,3.332,2.292,2.292,0,0,0,0,3.289,2.462,2.462,0,0,0,3.43,0l3.52-3.52a1.914,1.914,0,0,1,.621-.418l-9.668-9.664L14.69,82.657a2.427,2.427,0,0,0,3.441,3.422l.023-.023,4.223-4.082a1.967,1.967,0,0,1,1.363-.551Z" fill="#2b8fe5"/>
    <path id="Path_712" data-name="Path 712" d="M47.4,96.875a6.284,6.284,0,0,1-4.48-1.84A6.462,6.462,0,0,1,41.9,87.32a1.96,1.96,0,0,1,1.051-.863,2.57,2.57,0,0,0,.523-.379,2.607,2.607,0,0,0,.031-3.551,1.953,1.953,0,0,1,2.871-2.645l4.5,4.5a2.312,2.312,0,0,0,1.664.7,2.68,2.68,0,0,0,1.762-.7,2.421,2.421,0,0,0,0-3.293,1.953,1.953,0,1,1,2.762-2.762l3.52,3.52c.121.121.3.3.379.359a1.955,1.955,0,0,1,.477,3.1l-9.574,9.715a6.247,6.247,0,0,1-4.48,1.852Zm-2.316-7.133a2.562,2.562,0,0,0,.6,2.531,2.462,2.462,0,0,0,3.43,0l3.238-3.285a6.22,6.22,0,0,1-4.223-1.836l-.465-.465a6.421,6.421,0,0,1-1.418,2.156,6.539,6.539,0,0,1-1.16.9Z" fill="#2b8fe5"/>
    <path id="Path_713" data-name="Path 713" d="M41.762,90.691a6.311,6.311,0,0,1-4.477-1.852l-.02-.02-4.5-4.637L17.434,68.847a1.931,1.931,0,0,1-.5-.844L15.25,62.089a1.956,1.956,0,0,1,.5-1.918L29.684,46.233a1.954,1.954,0,0,1,2.762,0,1.14,1.14,0,0,0,.363.23,1.862,1.862,0,0,1,.324.145c2.906,1.605,7.586.32,12.109-.922.652-.18,1.3-.355,1.938-.523a1.955,1.955,0,0,1,1.879.508L69.774,66.386a1.782,1.782,0,0,1,.234.285,2.331,2.331,0,0,1,.285.234l3.387,3.387,3.5,3.367.027.027a6.334,6.334,0,0,1-8.945,8.969l-.094-.09a6.353,6.353,0,0,1-9.781,2.547,6.6,6.6,0,0,1-1.258,1.977c-.035.039-.074.078-.113.117a6.409,6.409,0,0,1-8.9-.055l-.465-.465a6.421,6.421,0,0,1-1.418,2.156,6.3,6.3,0,0,1-4.473,1.848Zm-1.707-4.605a2.459,2.459,0,0,0,3.422-.008,2.611,2.611,0,0,0,.031-3.551,1.953,1.953,0,0,1,2.871-2.645l4.5,4.5a2.379,2.379,0,0,0,3.434-3.293,1.953,1.953,0,0,1,2.762-2.762l3.52,3.52a2.462,2.462,0,0,0,3.43,0,2.292,2.292,0,0,0,0-3.289,1.953,1.953,0,0,1,2.738-2.785l4.223,4.082.023.023a2.428,2.428,0,0,0,3.445-3.422l-3.5-3.363-.027-.027-3.4-3.4a1.783,1.783,0,0,1-.234-.285A2.332,2.332,0,0,1,67,69.148L47.094,49.23l-.816.223c-4.977,1.367-10.609,2.91-14.891.652l-.039-.016L19.317,62.12l1.234,4.32L35.539,81.429l.02.02Z" fill="#2b8fe5"/>
    <path id="Path_714" data-name="Path 714" d="M67.531,69.672l-.258-.262a1.953,1.953,0,0,1,2.762-2.762l.262.262a1.954,1.954,0,0,1-2.766,2.762Z" fill="#2b8fe5"/>
    <path id="Path_715" data-name="Path 715" d="M38.523,42.246a1.951,1.951,0,0,1-1.5-3.2l.7-.844a1.274,1.274,0,0,1,.121-.129l.422-.422a1.956,1.956,0,0,1,2.668-.09l1.125.984a1.954,1.954,0,0,1-.965,3.4c-.469.078-.891.117-1.262.152-.355.035-.66.063-.93.117a2.083,2.083,0,0,1-.383.035Z" fill="#2b8fe5"/>
    <path id="Path_716" data-name="Path 716" d="M16.422,64.352a1.967,1.967,0,0,1-1.383-.57L4.2,52.938a1.953,1.953,0,0,1,0-2.758L29.113,25.118a1.954,1.954,0,0,1,1.383-.574h0a1.967,1.967,0,0,1,1.383.57l10.84,10.84a1.948,1.948,0,0,1,.031,2.727l-2.816,2.957a1.957,1.957,0,0,1-1.2.594c-5.043.559-6.785,2.059-7,2.773-.129.426.316.883.594,1.117a1.954,1.954,0,0,1,.125,2.863L17.808,63.77a1.942,1.942,0,0,1-1.383.578l0,0Zm-8.086-12.8,8.078,8.078L28.441,47.488A4.53,4.53,0,0,1,28,43.867c.5-1.637,2.418-4.465,9.594-5.426l1.02-1.07-8.109-8.109Z" fill="#2b8fe5"/>
    <path id="Path_717" data-name="Path 717" d="M72.316,73.645a1.962,1.962,0,0,1-1.383-.57L47.093,49.231l-.816.223a38.29,38.29,0,0,1-9.711,1.8,10.76,10.76,0,0,1-5.309-1.223c-2.57-1.371-3.852-3.625-3.34-5.883.465-2.074,2.781-5.621,13.051-6.094H41c1.191-.031,2.137-.715,3.582-1.82,1.719-1.316,3.859-2.957,7.1-2.957a13.036,13.036,0,0,1,5.371,1.3l.957-.516a1.95,1.95,0,0,1,2.309.34L82.847,56.937a1.948,1.948,0,0,1,.508,1.875l-1.547,5.914a1.97,1.97,0,0,1-.52.9l-7.6,7.461a1.97,1.97,0,0,1-1.371.559ZM47.675,45.1a1.954,1.954,0,0,1,1.383.57l23.27,23.27,5.836-5.73L79.293,58.9,58.586,38.2l-.551.3a1.948,1.948,0,0,1-1.809.023,10.414,10.414,0,0,0-4.539-1.328c-1.914,0-3.215,1-4.719,2.152-1.559,1.2-3.328,2.551-5.832,2.625-7.227.336-9.238,2.313-9.4,3.047-.1.449.465,1.1,1.375,1.586a.1.1,0,0,1,.027.016,7.007,7.007,0,0,0,3.434.746,35.545,35.545,0,0,0,8.676-1.668c.652-.18,1.3-.355,1.938-.523a1.631,1.631,0,0,1,.492-.07Z" fill="#2b8fe5"/>
    <path id="Path_718" data-name="Path 718" d="M83.582,62.379a1.962,1.962,0,0,1-1.383-.57L57.277,36.887a1.954,1.954,0,0,1,0-2.762l10.84-10.84a1.962,1.962,0,0,1,2.766,0L95.8,48.2a1.962,1.962,0,0,1,0,2.766l-10.84,10.84a1.975,1.975,0,0,1-1.383.57ZM61.422,35.5l22.16,22.16,8.078-8.078L69.5,27.426Z" fill="#2b8fe5"/>
    <path id="Path_719" data-name="Path 719" d="M48.723,12.219a1.954,1.954,0,0,1-1.953-1.953V5.078a1.953,1.953,0,1,1,3.906,0v5.187A1.954,1.954,0,0,1,48.723,12.219Z" fill="#f0c331"/>
    <path id="Path_720" data-name="Path 720" d="M63.832,20.938a1.953,1.953,0,0,1-.984-3.641l4.508-2.629a1.954,1.954,0,0,1,1.969,3.375l-4.508,2.629a1.973,1.973,0,0,1-.984.266Z" fill="#f0c331"/>
    <path id="Path_721" data-name="Path 721" d="M33.613,20.938a1.938,1.938,0,0,1-.98-.266l-4.508-2.629a1.954,1.954,0,0,1,1.969-3.375L34.6,17.3a1.953,1.953,0,0,1-.988,3.641Z" fill="#f0c331"/>
    <path id="Path_722" data-name="Path 722" d="M56.988,15.223A1.953,1.953,0,0,1,55.3,12.285l1.578-2.707a1.954,1.954,0,0,1,3.375,1.969l-1.578,2.707a1.963,1.963,0,0,1-1.691.969Z" fill="#f0c331"/>
    <path id="Path_723" data-name="Path 723" d="M40.379,15.223a1.952,1.952,0,0,1-1.687-.969l-1.578-2.707a1.954,1.954,0,0,1,3.375-1.969l1.578,2.707a1.953,1.953,0,0,1-1.687,2.938Z" fill="#f0c331"/>
    <path id="Path_724" data-name="Path 724" d="M9.461,30.469a4.883,4.883,0,1,1,4.883-4.883,4.89,4.89,0,0,1-4.883,4.883Zm0-5.859a.977.977,0,1,0,.977.977A.977.977,0,0,0,9.461,24.61Z" fill="#f0c331"/>
    <path id="Path_725" data-name="Path 725" d="M86.609,24.609a5.859,5.859,0,1,1,5.859-5.859A5.867,5.867,0,0,1,86.609,24.609Zm0-7.812a1.953,1.953,0,1,0,1.953,1.953A1.954,1.954,0,0,0,86.609,16.8Z" fill="#f0c331"/>
    <path id="Path_726" data-name="Path 726" d="M85.227,51.383a1.953,1.953,0,1,1,2.762,0A1.954,1.954,0,0,1,85.227,51.383Z" fill="#f0c331"/>
    <path id="Path_727" data-name="Path 727" d="M12.961,53.336a1.953,1.953,0,1,1,2.762,0A1.954,1.954,0,0,1,12.961,53.336Z" fill="#f0c331"/>
  </g>
</svg>
