<svg xmlns="http://www.w3.org/2000/svg" width="96.876" height="96.877" viewBox="0 0 96.876 96.877">
  <g id="np_honesty_3152285_000000" transform="translate(-1.563 -1.562)">
    <path id="Path_687" data-name="Path 687" d="M41.117,70.395l-.988,2.961a8.372,8.372,0,0,1,5.262,5.262l2.961-.988a11.473,11.473,0,0,0-7.234-7.234Z" fill="#2b8fe5"/>
    <path id="Path_688" data-name="Path 688" d="M50,20.312c7.543,0,20.312-1.316,20.312-6.25S57.542,7.812,50,7.812s-20.312,1.316-20.312,6.25,12.77,6.25,20.312,6.25Zm0-9.375c10.1,0,16.258,1.945,17.141,3.125C66.258,15.242,60.1,17.187,50,17.187s-16.258-1.945-17.141-3.125C33.742,12.882,39.9,10.937,50,10.937Z" fill="#f0c331"/>
    <path id="Path_689" data-name="Path 689" d="M50,26.562c21.953,0,26.562-6.8,26.562-12.5S71.953,1.562,50,1.562s-26.562,6.8-26.562,12.5,4.609,12.5,26.562,12.5ZM50,4.687c8.754,0,23.438,1.219,23.438,9.375S58.754,23.437,50,23.437s-23.438-1.219-23.438-9.375S41.246,4.687,50,4.687Z" fill="#f0c331"/>
    <path id="Path_690" data-name="Path 690" d="M98.438,48.438a3.129,3.129,0,0,0-3.125-3.125H75.739a7.778,7.778,0,0,0-6.988,4.32l-1.867,3.734a6.226,6.226,0,0,0-4.383-1.8H59.376V37.5a4.691,4.691,0,0,0-4.687-4.687,4.618,4.618,0,0,0-1.742.344,4.677,4.677,0,0,0-9.2,1.219V48.728a4.62,4.62,0,0,0-1.562-.289,4.685,4.685,0,0,0-4.508,3.469,4.618,4.618,0,0,0-1.742-.344,4.673,4.673,0,0,0-3.117,1.211l-1.57-3.141a7.774,7.774,0,0,0-6.988-4.32H4.688a3.129,3.129,0,0,0-3.125,3.125,6.23,6.23,0,0,0,3.242,5.445,3.034,3.034,0,0,0-.117.8,6.23,6.23,0,0,0,3.242,5.445,3.034,3.034,0,0,0-.117.8,6.23,6.23,0,0,0,3.242,5.445,3.034,3.034,0,0,0-.117.8,6.258,6.258,0,0,0,6.25,6.25H32.075a30.317,30.317,0,0,0,4.141,9.66,3.117,3.117,0,0,0-1.84,2.84v9.375A3.129,3.129,0,0,0,37.5,98.439h25a3.129,3.129,0,0,0,3.125-3.125V85.939a3.117,3.117,0,0,0-1.84-2.84,30.192,30.192,0,0,0,4.141-9.66H82.814a6.258,6.258,0,0,0,6.25-6.25,3.034,3.034,0,0,0-.117-.8,6.23,6.23,0,0,0,3.242-5.445,3.035,3.035,0,0,0-.117-.8,6.23,6.23,0,0,0,3.242-5.445,3.035,3.035,0,0,0-.117-.8,6.23,6.23,0,0,0,3.242-5.445Zm-43.75-12.5A1.562,1.562,0,0,1,56.251,37.5V51.563H53.126V37.5A1.562,1.562,0,0,1,54.688,35.938Zm-7.812-1.562a1.563,1.563,0,0,1,3.125,0V51.563H46.876Zm-6.25,18.75a1.563,1.563,0,0,1,3.125,0V62.5a1.563,1.563,0,1,1-3.125,0Zm-6.25,3.125a1.563,1.563,0,0,1,3.125,0V62.5a1.563,1.563,0,1,1-3.125,0ZM17.188,70.313a3.135,3.135,0,0,1-3.129-3.125h9.379V64.063H14.063a3.135,3.135,0,0,1-3.129-3.125h9.379V57.813H10.938a3.135,3.135,0,0,1-3.129-3.125h9.379V51.563H7.813a3.129,3.129,0,0,1-3.125-3.125H24.262a4.664,4.664,0,0,1,4.191,2.59l2.8,5.59v9.938a29.329,29.329,0,0,0,.266,3.754Zm45.312,25h-25V85.938h25Zm3.125-28.754a27.04,27.04,0,0,1-5.48,16.254H39.855A27.028,27.028,0,0,1,34.39,66.907a4.6,4.6,0,0,0,1.547.281,4.654,4.654,0,0,0,3.125-1.219A4.667,4.667,0,0,0,46.875,62.5V60.789a7.574,7.574,0,0,0,2.605,1.238L55.355,63.5a33.9,33.9,0,0,0-3.547,8.777l-.2.785,3.031.758.2-.785a30.936,30.936,0,0,1,4.273-9.664l1.23-1.844L50.238,59a4.442,4.442,0,0,1-3.363-4.312H62.5a3.129,3.129,0,0,1,3.125,3.125Zm26.562-15H82.812v3.125h9.375a3.129,3.129,0,0,1-3.125,3.125H79.687v3.125h9.375a3.129,3.129,0,0,1-3.125,3.125H76.562v3.125h9.375a3.129,3.129,0,0,1-3.125,3.125H68.484a29.378,29.378,0,0,0,.266-3.754V57.813a5.932,5.932,0,0,0-.1-.992l2.895-5.789a4.666,4.666,0,0,1,4.2-2.594H95.311a3.129,3.129,0,0,1-3.125,3.125Z" fill="#2b8fe5"/>
  </g>
</svg>
