<svg xmlns="http://www.w3.org/2000/svg" width="82.442" height="97.25" viewBox="0 0 82.442 97.25">
  <g id="np_idea_3036784_000000" transform="translate(-15.125 -8.875)">
    <path id="Path_693" data-name="Path 693" d="M50.384,21.716a2.473,2.473,0,0,0,2.466-2.471v-7.4a2.466,2.466,0,0,0-4.933,0v7.4a2.473,2.473,0,0,0,2.466,2.471Z" transform="translate(5.962 0)" fill="#f0c331" stroke="#092772" stroke-width="1"/>
    <path id="Path_694" data-name="Path 694" d="M27.966,44.134A2.473,2.473,0,0,0,25.5,41.668h-7.4a2.466,2.466,0,0,0,0,4.933h7.4a2.473,2.473,0,0,0,2.471-2.466Z" transform="translate(0 5.962)" fill="#f0c331" stroke="#092772" stroke-width="1"/>
    <path id="Path_695" data-name="Path 695" d="M83.832,41.668h-7.4a2.466,2.466,0,1,0,0,4.933h7.4a2.466,2.466,0,1,0,0-4.933Z" transform="translate(10.769 5.962)" fill="#f0c331" stroke="#092772" stroke-width="1"/>
    <path id="Path_696" data-name="Path 696" d="M31.062,28.306a2.47,2.47,0,0,0,3.494-3.494l-5.243-5.234v0a2.468,2.468,0,1,0-3.48,3.48Z" transform="translate(1.725 1.725)" fill="#f0c331" stroke="#092772" stroke-width="1"/>
    <path id="Path_697" data-name="Path 697" d="M70.544,60.8a2.47,2.47,0,0,0-3.494,3.494l5.243,5.234v0a2.468,2.468,0,1,0,3.48-3.48Z" transform="translate(9.361 9.361)" fill="#f0c331" stroke="#092772" stroke-width="1"/>
    <path id="Path_698" data-name="Path 698" d="M68.8,29.024a2.474,2.474,0,0,0,1.74-.717l5.234-5.243h0a2.468,2.468,0,1,0-3.48-3.48l-5.243,5.234v0A2.471,2.471,0,0,0,68.8,29.024Z" transform="translate(9.361 1.725)" fill="#f0c331" stroke="#092772" stroke-width="1"/>
    <path id="Path_699" data-name="Path 699" d="M31.062,60.8l-5.234,5.243h0a2.468,2.468,0,1,0,3.48,3.48l5.243-5.234v0A2.47,2.47,0,1,0,31.062,60.8Z" transform="translate(1.725 9.361)" fill="#f0c331" stroke="#092772" stroke-width="1"/>
    <path id="Path_700" data-name="Path 700" d="M68.271,30.663A22.225,22.225,0,0,0,36.546,61.649a9.432,9.432,0,0,1,2.11,6.168v2.841a12.343,12.343,0,0,0,3.7,8.8v2.309a11.106,11.106,0,0,0,22.212,0V79.455a12.343,12.343,0,0,0,3.7-8.8V67.683A9.52,9.52,0,0,1,70.4,61.515a22.208,22.208,0,0,0-2.119-30.851ZM60.52,76.455a7.99,7.99,0,0,1-.963.652,7.545,7.545,0,0,1-.986.444l-.222.074a6.815,6.815,0,0,1-1.013.273h-.231a6.713,6.713,0,0,1-1.175.162H51a6.835,6.835,0,0,1-1.111-.1H49.65a7.113,7.113,0,0,1-1.013-.268l-.222-.074a7.832,7.832,0,0,1-.986-.444,8.606,8.606,0,0,1-.963-.657,7.408,7.408,0,0,1-2.753-4.627,31.724,31.724,0,0,0,9.75,1.236,31.722,31.722,0,0,0,9.75-1.236,7.415,7.415,0,0,1-2.693,4.567ZM53.463,87.931A6.167,6.167,0,0,1,47.3,82.439l.421.111.578.148.481.088a4.172,4.172,0,0,1,.666.111h7.973a1.409,1.409,0,0,0,.666-.111l.481-.088.578-.148.421-.111h0a6.165,6.165,0,0,1-6.094,5.493ZM66.642,58.316A14.27,14.27,0,0,0,63.334,66.4c-.356.347-2.318,1.791-9.87,1.791S43.9,66.747,43.593,66.4a14.113,14.113,0,0,0-3.248-8.01A17.276,17.276,0,0,1,51.538,30.01a17.8,17.8,0,0,1,1.925-.074,17.054,17.054,0,0,1,11.5,4.405,17.276,17.276,0,0,1,1.68,23.974Z" transform="translate(2.883 2.885)" fill="#2b8fe5" stroke="#092772" stroke-width="1"/>
    <path id="Path_701" data-name="Path 701" d="M60.37,86.457H43.091a2.469,2.469,0,0,0,0,4.937H60.37a2.469,2.469,0,0,0,0-4.937Z" transform="translate(4.615 14.231)" fill="#f0c331" stroke="#092772" stroke-width="1"/>
    <path id="Path_702" data-name="Path 702" d="M57.181,41.33l-8.13,8.121-3.2-3.184a2.468,2.468,0,0,0-3.48,3.48l4.937,4.937a2.475,2.475,0,0,0,3.48,0l9.87-9.87v0a2.468,2.468,0,0,0-3.48-3.48Z" transform="translate(4.829 5.79)" fill="#f0c331" stroke="#092772" stroke-width="1"/>
  </g>
</svg>
