<svg xmlns="http://www.w3.org/2000/svg" width="93.743" height="78.028" viewBox="0 0 93.743 78.028">
  <g id="np_legal-team_1584321_000000" transform="translate(-3.125 -10.984)">
    <path id="Path_315" data-name="Path 315" d="M69.211,53.359,58.668,50.367v-3.4a10.674,10.674,0,0,0,3.313-5.293c.168-.637.3-1.148.406-1.555a3.751,3.751,0,0,0,2.887-3.082l.645-4.051a4.17,4.17,0,0,0-.957-3.352,4.433,4.433,0,0,0-.488-.488A13.246,13.246,0,0,0,64.9,25.91v-.055a14.2,14.2,0,0,0-4.77-10.383,2.2,2.2,0,0,0-.852-1.543,14.457,14.457,0,0,0-8.719-2.945h-1.3a12.746,12.746,0,0,0-6.988,2.539,2.18,2.18,0,0,0-1.73.414c-3.27,2.5-5.523,7.289-5.613,11.977a13.034,13.034,0,0,0,.438,3.23,4.255,4.255,0,0,0-.5.492,4.17,4.17,0,0,0-.957,3.356l.645,4.051a3.763,3.763,0,0,0,2.887,3.074c.105.406.238.918.414,1.555a10.6,10.6,0,0,0,3.313,5.293v3.4L30.613,53.355a10.011,10.011,0,0,0-7.852,9.781V83.075a5.95,5.95,0,0,0,5.949,5.938h42.4a5.957,5.957,0,0,0,5.957-5.937V63.137a10,10,0,0,0-7.852-9.777ZM39.168,35.839h-.375l-.523-3.312A2.186,2.186,0,0,0,40.133,29.6l-.273-.77a.972.972,0,0,0,.113-.176l2.137-4.644a6.749,6.749,0,0,0,4.926-1.676l1.387.957a12.186,12.186,0,0,0,9.227,1.914l2.324,3.637c0,.008.008.008.008.012a1.013,1.013,0,0,1-.043.145l-.219.563a2.183,2.183,0,0,0,1.852,2.961l-.531,3.313h-.367a2.148,2.148,0,0,0-2.145,1.758c-.02.094-.137.57-.77,2.957a6.276,6.276,0,0,1-3.105,3.918l-1.758.938a6.316,6.316,0,0,1-5.937,0L45.2,44.468a6.272,6.272,0,0,1-3.113-3.918c-.648-2.449-.75-2.883-.762-2.918a2.194,2.194,0,0,0-2.156-1.793ZM72.695,83.077a1.574,1.574,0,0,1-1.582,1.563h-42.4a1.57,1.57,0,0,1-1.574-1.562V63.139a5.614,5.614,0,0,1,4.438-5.512c.055-.012.105-.023.156-.039l11.227-3.2a3.326,3.326,0,0,0,2.582-3.25V49.588a10.677,10.677,0,0,0,8.75,0v1.555a3.317,3.317,0,0,0,2.57,3.25l11.23,3.2c.051.012.1.023.156.039A5.617,5.617,0,0,1,72.7,63.139Z" fill="#2b8fe5"/>
    <path id="Path_316" data-name="Path 316" d="M24.1,54.57a12.047,12.047,0,0,1,5.98-3.336l7.27-2.062a9.236,9.236,0,0,0,.8-2.039c.012-.039.02-.074.031-.113a12.679,12.679,0,0,1-2.449-4.793c-.031-.094-.055-.187-.074-.273a2.1,2.1,0,0,0-1.062,1.477c-.012.043-.094.4-.676,2.586A5.253,5.253,0,0,1,31.324,49.3l-1.543.824a5.281,5.281,0,0,1-4.98,0L23.249,49.3a5.265,5.265,0,0,1-2.605-3.289c-.57-2.137-.656-2.523-.664-2.551a2.193,2.193,0,0,0-2.156-1.789h-.105l-.387-2.437a2.188,2.188,0,0,0,1.586-2.891l-.23-.645c0-.008.008-.012.012-.02l1.832-3.977a6.09,6.09,0,0,0,4.227-1.43l1.105.758a10.81,10.81,0,0,0,5.852,1.906,6.412,6.412,0,0,1,.492-3.125,7.775,7.775,0,0,1-4.574-1.355l-2.148-1.477a1.561,1.561,0,0,0-1.977.176l-.6.586a3,3,0,0,1-2.883.738,1.546,1.546,0,0,0-.531-.051,9.445,9.445,0,0,1,.867-1.344,2.216,2.216,0,0,0,1.176-.445c1.512-1.156,3.477-2.488,5.176-2.488h1.145a8.558,8.558,0,0,1,4.367,1.2,2.2,2.2,0,0,0,.543,1.043c-.008-.164-.023-.32-.023-.477v-.07a19.043,19.043,0,0,1,.727-4.781,13.019,13.019,0,0,0-5.613-1.293H26.711A11.4,11.4,0,0,0,20.5,22a2.18,2.18,0,0,0-1.617.43,14.349,14.349,0,0,0-5.051,10.75,12.1,12.1,0,0,0,.355,2.758c-.125.113-.238.23-.352.355a3.945,3.945,0,0,0-.9,3.164l.57,3.57a3.587,3.587,0,0,0,2.586,2.883c.086.332.2.73.32,1.219a9.642,9.642,0,0,0,2.914,4.711v2.676l-9.086,2.582a9.1,9.1,0,0,0-7.117,8.879v11.3a5.5,5.5,0,0,0,5.5,5.492H20.66V78.39H8.625A1.119,1.119,0,0,1,7.5,77.273v-11.3a4.685,4.685,0,0,1,3.7-4.6c.051-.012.105-.023.156-.039l9.875-2.8a1.951,1.951,0,0,0,.313-.1A12.15,12.15,0,0,1,23.7,55.011c.133-.145.27-.3.406-.441Z" fill="#092772"/>
    <path id="Path_317" data-name="Path 317" d="M89.762,57.1,80.668,54.52V51.844a9.689,9.689,0,0,0,2.914-4.711c.125-.488.23-.887.32-1.219a3.552,3.552,0,0,0,2.586-2.887l.57-3.57a3.908,3.908,0,0,0-.9-3.156,3.242,3.242,0,0,0-.344-.352,12.1,12.1,0,0,0,.352-2.758v-.062a12.757,12.757,0,0,0-4.219-9.262,2.167,2.167,0,0,0-.836-1.437,12.951,12.951,0,0,0-7.832-2.645H72.137a10.793,10.793,0,0,0-5.648,1.863,16.665,16.665,0,0,1,.605,4.156v.1c0,.227-.02.445-.031.668,1.5-1.145,3.406-2.414,5.074-2.414h1.145a8.558,8.558,0,0,1,4.367,1.2,2.193,2.193,0,0,0,.813,1.289,8.455,8.455,0,0,1,2.461,3A1.571,1.571,0,0,0,79.7,29.5a7.784,7.784,0,0,1-6.645-1.043L70.9,26.985a1.571,1.571,0,0,0-1.977.176l-.6.586a2.964,2.964,0,0,1-1.449.77,6.319,6.319,0,0,1,1.211,2.914,6.074,6.074,0,0,0,2.086-1.148l1.105.758a10.88,10.88,0,0,0,8.137,1.742L81.3,35.731a.7.7,0,0,0-.023.086l-.2.492a2.187,2.187,0,0,0,1.574,2.922l-.395,2.438h-.1a2.137,2.137,0,0,0-2.145,1.75c-.012.043-.094.4-.676,2.586a5.253,5.253,0,0,1-2.605,3.289l-1.551.824a5.273,5.273,0,0,1-4.977,0l-1.551-.824A5.24,5.24,0,0,1,66.051,46c-.57-2.137-.664-2.523-.668-2.551a2.186,2.186,0,0,0-1.211-1.57l-.086.336a12.7,12.7,0,0,1-2.332,4.637c.023.086.043.168.07.262a9.491,9.491,0,0,0,.836,2.094l7.074,2.008A12.01,12.01,0,0,1,75.758,54.6c.18.188.355.383.523.582a12.409,12.409,0,0,1,1.977,3.176,3.388,3.388,0,0,0,.488.156l9.883,2.8c.051.012.105.023.156.039a4.7,4.7,0,0,1,3.707,4.6v11.3a1.125,1.125,0,0,1-1.133,1.117H79.168v4.375H91.359a5.5,5.5,0,0,0,5.508-5.492v-11.3A9.074,9.074,0,0,0,89.762,57.1Z" fill="#092772"/>
    <path id="Path_318" data-name="Path 318" d="M53.5,58.375c0,.016,0,.027,0,.043a.923.923,0,0,1-.031.176.079.079,0,0,1-.012.043.567.567,0,0,1-.086.176.07.07,0,0,1-.02.027v0L53.3,58.9l-1.621,3.723,2.59,9.324-1.023,2.1-3.328,6.84-3.336-6.836-1.023-2.1,2.594-9.328L46.535,58.9l-.043-.059a0,0,0,0,0,0,0c0-.012-.012-.016-.016-.027a.733.733,0,0,1-.086-.164v0a1.515,1.515,0,0,1-.043-.191v-.031a.866.866,0,0,1,.012-.2,1.45,1.45,0,0,1,.063-.184s0-.016,0-.02l.039-.062c.012-.016.016-.027.027-.043s.016-.016.02-.027l.016-.016a1.2,1.2,0,0,1,.125-.117s.012-.016.02-.02.012,0,.016-.012.012-.012.016-.012l2.781-2.52a.8.8,0,0,1,.879,0l2.777,2.52s0,0,.012.012a.018.018,0,0,1,.02.012c.012,0,.016.016.02.02a.816.816,0,0,1,.117.113c0,.012.016.016.02.02s.016.02.02.031a.681.681,0,0,1,.1.207.149.149,0,0,1,.02.059.506.506,0,0,1,.035.191Z" fill="#092772"/>
  </g>
</svg>
