<svg xmlns="http://www.w3.org/2000/svg" xmlns:xlink="http://www.w3.org/1999/xlink" width="820.949" height="579.911" viewBox="0 0 820.949 579.911">
  <defs>
    <linearGradient id="linear-gradient" y1="0.5" x2="1" y2="0.5" gradientUnits="objectBoundingBox">
      <stop offset="0" stop-color="#008dec"/>
      <stop offset="1" stop-color="#008bec"/>
    </linearGradient>
    <linearGradient id="linear-gradient-2" y1="0.5" x2="1" y2="0.5" gradientUnits="objectBoundingBox">
      <stop offset="0" stop-color="#d1e2ff"/>
      <stop offset="1" stop-color="#ecf3ff"/>
    </linearGradient>
    <linearGradient id="linear-gradient-8" x1="-0.024" y1="1.649" x2="0.895" y2="-0.016" gradientUnits="objectBoundingBox">
      <stop offset="0" stop-color="#d0471e"/>
      <stop offset="0.22" stop-color="#d95e12"/>
      <stop offset="0.488" stop-color="#e17308"/>
      <stop offset="0.751" stop-color="#e67f02"/>
      <stop offset="1" stop-color="#e88400"/>
    </linearGradient>
    <linearGradient id="linear-gradient-9" x1="0.635" y1="0.059" x2="0.006" y2="0.964" gradientUnits="objectBoundingBox">
      <stop offset="0" stop-color="#eec9c8"/>
      <stop offset="0.25" stop-color="#edc3c2"/>
      <stop offset="0.57" stop-color="#ebb3b2"/>
      <stop offset="0.926" stop-color="#e89a98"/>
      <stop offset="1" stop-color="#e89492"/>
    </linearGradient>
    <linearGradient id="linear-gradient-10" x1="14.752" y1="0.356" x2="14.752" y2="1.044" gradientUnits="objectBoundingBox">
      <stop offset="0" stop-color="#e85f5a"/>
      <stop offset="1" stop-color="#eec9c8"/>
    </linearGradient>
    <linearGradient id="linear-gradient-11" x1="10.149" y1="0.792" x2="9.189" y2="0.74" gradientUnits="objectBoundingBox">
      <stop offset="0" stop-color="#e89492"/>
      <stop offset="0.074" stop-color="#e89a98"/>
      <stop offset="0.43" stop-color="#ebb3b2"/>
      <stop offset="0.75" stop-color="#edc3c2"/>
      <stop offset="1" stop-color="#eec9c8"/>
    </linearGradient>
    <linearGradient id="linear-gradient-12" x1="-0.138" y1="2.26" x2="0.811" y2="1.108" gradientUnits="objectBoundingBox">
      <stop offset="0" stop-color="#fa902f"/>
      <stop offset="0.168" stop-color="#f7a02f"/>
      <stop offset="0.455" stop-color="#f3b530"/>
      <stop offset="0.735" stop-color="#f0c130"/>
      <stop offset="1" stop-color="#f0c631"/>
    </linearGradient>
    <linearGradient id="linear-gradient-14" x1="-0.212" y1="0.838" x2="1.126" y2="0.247" xlink:href="#linear-gradient-12"/>
    <linearGradient id="linear-gradient-17" x1="0.5" y1="0.025" x2="0.5" y2="1.074" gradientUnits="objectBoundingBox">
      <stop offset="0" stop-color="#008bec"/>
      <stop offset="1" stop-color="#0056ec"/>
    </linearGradient>
    <linearGradient id="linear-gradient-18" y1="0.5" x2="1" y2="0.5" gradientUnits="objectBoundingBox">
      <stop offset="0" stop-color="#0056ec"/>
      <stop offset="1" stop-color="#008bec"/>
    </linearGradient>
    <linearGradient id="linear-gradient-19" x1="0.323" y1="0.791" x2="0.61" y2="0.338" gradientUnits="objectBoundingBox">
      <stop offset="0" stop-color="#0056ec"/>
      <stop offset="1" stop-color="#00c2ec"/>
    </linearGradient>
    <linearGradient id="linear-gradient-20" x1="0.101" y1="1.004" x2="0.989" y2="0.029" xlink:href="#linear-gradient-19"/>
    <linearGradient id="linear-gradient-22" x1="-90.675" y1="0.516" x2="-91.539" y2="0.489" xlink:href="#linear-gradient-10"/>
    <linearGradient id="linear-gradient-23" x1="-0.134" y1="-0.314" x2="0.627" y2="0.502" xlink:href="#linear-gradient-9"/>
    <linearGradient id="linear-gradient-24" x1="0.607" y1="0.704" x2="0.782" y2="1.098" xlink:href="#linear-gradient-11"/>
    <linearGradient id="linear-gradient-25" x1="-0.177" y1="0.979" x2="1.02" y2="0.253" xlink:href="#linear-gradient-12"/>
    <linearGradient id="linear-gradient-26" x1="0.376" y1="0.495" x2="1.328" y2="0.51" gradientUnits="objectBoundingBox">
      <stop offset="0" stop-color="#172b36"/>
      <stop offset="1" stop-color="#325d75"/>
    </linearGradient>
    <linearGradient id="linear-gradient-27" x1="0.48" y1="0.334" x2="0.895" y2="1.163" xlink:href="#linear-gradient-18"/>
    <linearGradient id="linear-gradient-28" x1="0.483" y1="0.263" x2="0.541" y2="1.092" xlink:href="#linear-gradient-11"/>
    <linearGradient id="linear-gradient-29" x1="0.902" y1="0.075" x2="-0.038" y2="0.024" xlink:href="#linear-gradient-11"/>
    <linearGradient id="linear-gradient-30" y1="0.5" x2="1" y2="0.5" gradientUnits="objectBoundingBox">
      <stop offset="0" stop-color="#fff5dc"/>
      <stop offset="0.342" stop-color="#fff6df"/>
      <stop offset="0.672" stop-color="#fff9eb"/>
      <stop offset="0.996" stop-color="#fffefe"/>
      <stop offset="1" stop-color="#fff"/>
    </linearGradient>
    <linearGradient id="linear-gradient-31" x1="0.566" y1="0.689" x2="0.711" y2="1.063" xlink:href="#linear-gradient-11"/>
    <linearGradient id="linear-gradient-32" x1="-0.033" y1="1.076" x2="1.033" y2="0.202" xlink:href="#linear-gradient-12"/>
    <linearGradient id="linear-gradient-33" x1="0.388" y1="0.492" x2="1.334" y2="0.516" xlink:href="#linear-gradient-26"/>
    <linearGradient id="linear-gradient-34" x1="0" y1="0.5" x2="1.176" y2="0.5" xlink:href="#linear-gradient-18"/>
    <linearGradient id="linear-gradient-35" x1="0.628" y1="0.508" x2="-0.423" y2="0.457" xlink:href="#linear-gradient-11"/>
    <linearGradient id="linear-gradient-37" x1="0.094" y1="0.639" x2="0.819" y2="0.31" xlink:href="#linear-gradient-8"/>
  </defs>
  <g id="Group_120" data-name="Group 120" transform="translate(-889.216 -212.156)">
    <g id="Group_56" data-name="Group 56" transform="translate(1616.429 339.982)">
      <g id="Group_50" data-name="Group 50" transform="translate(27.484 5.89)">
        <path id="Path_56" data-name="Path 56" d="M760.557,218.613a.705.705,0,0,1-.265-.05l-19.63-7.852a.712.712,0,0,1-.448-.662v-25.52a.71.71,0,0,1,.916-.681l19.427,5.828,19.427-5.828a.709.709,0,0,1,.916.681v25.52a.712.712,0,0,1-.448.662l-19.632,7.852A.7.7,0,0,1,760.557,218.613Zm-18.92-9.045,18.92,7.568,18.92-7.568V185.485L760.76,191.1a.688.688,0,0,1-.408,0l-18.715-5.614Z" transform="translate(-740.214 -183.818)" fill="#b3cdfa"/>
      </g>
      <g id="Group_51" data-name="Group 51" transform="translate(27.485)">
        <path id="Path_57" data-name="Path 57" d="M780.188,186.991a.727.727,0,0,1-.2-.03l-19.427-5.828-19.427,5.828a.711.711,0,0,1-.408-1.363l19.63-5.889a.689.689,0,0,1,.408,0l19.631,5.889a.712.712,0,0,1-.2,1.393Z" transform="translate(-740.214 -179.678)" fill="#b3cdfa"/>
      </g>
      <path id="Path_58" data-name="Path 58" d="M754.512,217.546V190.062l19.632-5.744v25.521Z" transform="translate(-706.685 -177.717)" fill="#b3cdfa"/>
      <g id="Group_52" data-name="Group 52" transform="translate(54.968 47.115)">
        <path id="Path_59" data-name="Path 59" d="M775.948,239.737a.712.712,0,0,1-.319-.074l-15.7-7.854a.714.714,0,0,1-.394-.636V213.506a.713.713,0,0,1,.306-.585.705.705,0,0,1,.656-.081l15.456,5.795L791.4,212.84a.711.711,0,0,1,.962.666v17.668a.714.714,0,0,1-.394.636l-15.7,7.854A.711.711,0,0,1,775.948,239.737Zm-14.995-9,14.995,7.5,14.993-7.5v-16.2L776.2,220.06a.718.718,0,0,1-.5,0l-14.744-5.529Z" transform="translate(-759.531 -212.793)" fill="#b3cdfa"/>
      </g>
      <g id="Group_53" data-name="Group 53" transform="translate(54.969 41.227)">
        <path id="Path_60" data-name="Path 60" d="M791.653,215.967a.7.7,0,0,1-.25-.046l-15.454-5.8-15.456,5.8a.711.711,0,0,1-.5-1.332l15.7-5.89a.718.718,0,0,1,.5,0l15.7,5.89a.711.711,0,0,1-.249,1.377Z" transform="translate(-759.531 -208.654)" fill="#b3cdfa"/>
      </g>
      <path id="Path_61" data-name="Path 61" d="M771.07,238.669V219.038l15.705-5.744v17.668Z" transform="translate(-699.685 -165.467)" fill="#b3cdfa"/>
      <g id="Group_54" data-name="Group 54" transform="translate(0.001 51.041)">
        <path id="Path_62" data-name="Path 62" d="M745.165,256.239a.721.721,0,0,1-.225-.037l-23.558-7.852a.708.708,0,0,1-.485-.674V216.265a.712.712,0,0,1,.3-.578.7.7,0,0,1,.64-.1l23.332,7.778L768.5,215.59a.7.7,0,0,1,.64.1.712.712,0,0,1,.3.578v31.411a.709.709,0,0,1-.487.674L745.391,256.2A.726.726,0,0,1,745.165,256.239Zm-22.845-9.076,22.845,7.615,22.847-7.615V217.252l-22.621,7.541a.719.719,0,0,1-.451,0l-22.621-7.541Z" transform="translate(-720.897 -215.552)" fill="#b3cdfa"/>
      </g>
      <g id="Group_55" data-name="Group 55" transform="translate(0 43.19)">
        <path id="Path_63" data-name="Path 63" d="M768.724,219.309a.682.682,0,0,1-.225-.037l-23.334-7.777-23.332,7.777a.711.711,0,1,1-.451-1.349l23.558-7.852a.719.719,0,0,1,.451,0l23.557,7.852a.711.711,0,0,1-.225,1.386Z" transform="translate(-720.896 -210.035)" fill="#b3cdfa"/>
      </g>
      <path id="Path_64" data-name="Path 64" d="M737.954,223.761v31.41l23.558-7.707v-31.41Z" transform="translate(-713.685 -164.3)" fill="#b3cdfa"/>
    </g>
    <path id="Path_65" data-name="Path 65" d="M852.122,508.276l-489.5-37.386c-3.208-.245-5.8-3.628-5.8-7.558v-321.9c0-3.93,2.594-7.313,5.8-7.558l489.5-37.386a7.977,7.977,0,0,1,8.714,8.078V500.2A7.977,7.977,0,0,1,852.122,508.276Z" transform="translate(741.611 125.123)" fill="#ecf3ff"/>
    <path id="Path_66" data-name="Path 66" d="M839.706,502.149l-489.5-37.385c-3.208-.246-5.8-3.63-5.8-7.558V135.3c0-3.928,2.6-7.312,5.8-7.556l489.5-37.386a7.977,7.977,0,0,1,8.714,8.079V494.072A7.976,7.976,0,0,1,839.706,502.149Z" transform="translate(736.361 122.533)" fill="#fff"/>
    <path id="Path_67" data-name="Path 67" d="M848.42,98.44a7.977,7.977,0,0,0-8.714-8.079l-489.5,37.386c-3.208.245-5.8,3.628-5.8,7.556v30.013L848.42,135.325Z" transform="translate(736.361 122.533)" fill="#ecf3ff"/>
    <g id="Group_57" data-name="Group 57" transform="translate(1080.054 212.156)">
      <path id="Path_68" data-name="Path 68" d="M840.584,503.1c-.238,0-.48-.008-.723-.027l-489.5-37.386c-3.561-.272-6.459-3.981-6.459-8.266v-321.9c0-4.285,2.9-7.993,6.459-8.266l489.5-37.386a8.7,8.7,0,0,1,9.483,8.788V494.283A8.694,8.694,0,0,1,840.584,503.1Zm0-411.838c-.2,0-.407.007-.613.023l-489.5,37.386c-2.837.218-5.145,3.289-5.145,6.848v321.9c0,3.56,2.308,6.632,5.145,6.846l489.5,37.388a7.281,7.281,0,0,0,7.95-7.369V98.652A7.286,7.286,0,0,0,840.584,91.259Z" transform="translate(-343.904 -89.835)" fill="#252784"/>
    </g>
    <path id="Path_69" data-name="Path 69" d="M358.266,130.322c0,2.244-1.49,4.16-3.325,4.281s-3.316-1.594-3.316-3.83,1.484-4.153,3.316-4.281S358.266,128.078,358.266,130.322Z" transform="translate(739.414 137.816)" fill="#2b8fe5"/>
    <path id="Path_70" data-name="Path 70" d="M366.069,129.8c0,2.255-1.505,4.182-3.359,4.3s-3.348-1.6-3.348-3.849,1.5-4.174,3.348-4.3S366.069,127.544,366.069,129.8Z" transform="translate(742.686 137.587)" fill="#f0c331"/>
    <path id="Path_71" data-name="Path 71" d="M373.952,129.27c0,2.265-1.521,4.2-3.393,4.327s-3.382-1.608-3.382-3.867,1.512-4.2,3.382-4.327S373.952,127,373.952,129.27Z" transform="translate(745.99 137.355)" fill="#092772"/>
    <path id="Path_72" data-name="Path 72" d="M556.423,140.438V173.2l195.832-8.334V129.54Z" transform="translate(825.998 139.107)" fill="#ecf3ff"/>
    <path id="Path_73" data-name="Path 73" d="M691.257,458.974l-134.834-9.893V168.32l134.834-5.237Z" transform="translate(825.998 153.288)" fill="#ecf3ff"/>
    <path id="Path_74" data-name="Path 74" d="M592.131,316.415l-148.667-2.4V145.944l148.667-8.273Z" transform="translate(778.242 142.545)" fill="#ecf3ff"/>
    <path id="Path_75" data-name="Path 75" d="M374.692,437.513l-27.027-2V149.264l27.027-1.5Z" transform="translate(737.74 146.81)" fill="url(#linear-gradient)"/>
    <g id="Group_58" data-name="Group 58" transform="translate(1396.049 478.276)">
      <path id="Path_76" data-name="Path 76" d="M631.908,290.248l-3.491-.084a4.87,4.87,0,0,1-4.64-4.933v-3.617a4.626,4.626,0,0,1,4.64-4.735l3.491.065a4.872,4.872,0,0,1,4.669,4.934v3.634A4.628,4.628,0,0,1,631.908,290.248Z" transform="translate(-541.576 -276.878)" fill="#b3cdfa"/>
      <path id="Path_77" data-name="Path 77" d="M644.026,290.563l-3.537-.085a4.917,4.917,0,0,1-4.7-4.965v-3.641a4.671,4.671,0,0,1,4.7-4.765l3.537.067a4.917,4.917,0,0,1,4.732,4.967V285.8A4.671,4.671,0,0,1,644.026,290.563Z" transform="translate(-536.498 -276.783)" fill="#b3cdfa"/>
      <path id="Path_78" data-name="Path 78" d="M573.627,300.8l-3.274-.1A4.69,4.69,0,0,1,566,295.9v-3.5a4.38,4.38,0,0,1,4.351-4.557l3.274.084a4.687,4.687,0,0,1,4.378,4.8v3.518A4.38,4.38,0,0,1,573.627,300.8Z" transform="translate(-566.002 -272.245)" fill="#fff"/>
      <path id="Path_79" data-name="Path 79" d="M584.985,301.176l-3.315-.1a4.733,4.733,0,0,1-4.408-4.835v-3.524a4.422,4.422,0,0,1,4.408-4.587l3.315.085a4.73,4.73,0,0,1,4.433,4.835v3.543A4.421,4.421,0,0,1,584.985,301.176Z" transform="translate(-561.242 -272.123)" fill="#fff"/>
      <path id="Path_80" data-name="Path 80" d="M596.489,301.553l-3.358-.1a4.778,4.778,0,0,1-4.465-4.867v-3.547a4.463,4.463,0,0,1,4.465-4.615l3.358.087a4.773,4.773,0,0,1,4.49,4.867v3.564A4.459,4.459,0,0,1,596.489,301.553Z" transform="translate(-556.42 -271.999)" fill="#fff"/>
      <path id="Path_81" data-name="Path 81" d="M608.142,301.935l-3.4-.1a4.821,4.821,0,0,1-4.522-4.9v-3.571a4.5,4.5,0,0,1,4.522-4.644l3.4.088a4.819,4.819,0,0,1,4.55,4.9v3.588A4.5,4.5,0,0,1,608.142,301.935Z" transform="translate(-551.536 -271.874)" fill="#fff"/>
      <path id="Path_82" data-name="Path 82" d="M619.948,302.323l-3.446-.105a4.866,4.866,0,0,1-4.58-4.933v-3.592a4.545,4.545,0,0,1,4.58-4.674l3.446.088a4.866,4.866,0,0,1,4.608,4.933v3.611A4.545,4.545,0,0,1,619.948,302.323Z" transform="translate(-546.588 -271.747)" fill="#fff"/>
      <path id="Path_83" data-name="Path 83" d="M631.908,302.716l-3.491-.108a4.911,4.911,0,0,1-4.64-4.964v-3.617a4.589,4.589,0,0,1,4.64-4.7l3.491.09a4.912,4.912,0,0,1,4.669,4.966v3.634A4.591,4.591,0,0,1,631.908,302.716Z" transform="translate(-541.576 -271.618)" fill="#b3cdfa"/>
      <path id="Path_84" data-name="Path 84" d="M644.026,303.113l-3.537-.108a4.961,4.961,0,0,1-4.7-5v-3.639a4.633,4.633,0,0,1,4.7-4.734l3.537.091a4.959,4.959,0,0,1,4.732,5v3.659A4.634,4.634,0,0,1,644.026,303.113Z" transform="translate(-536.498 -271.487)" fill="#b3cdfa"/>
      <path id="Path_85" data-name="Path 85" d="M573.627,312.875l-3.274-.124A4.727,4.727,0,0,1,566,307.919v-3.5a4.345,4.345,0,0,1,4.351-4.529l3.274.107A4.726,4.726,0,0,1,578,304.828v3.52A4.345,4.345,0,0,1,573.627,312.875Z" transform="translate(-566.002 -267.152)" fill="#fff"/>
      <path id="Path_86" data-name="Path 86" d="M584.985,313.324l-3.315-.125a4.772,4.772,0,0,1-4.408-4.864V304.81a4.385,4.385,0,0,1,4.408-4.556l3.315.107a4.77,4.77,0,0,1,4.433,4.866v3.541A4.384,4.384,0,0,1,584.985,313.324Z" transform="translate(-561.242 -266.997)" fill="#fff"/>
      <path id="Path_87" data-name="Path 87" d="M596.489,313.779l-3.358-.125a4.816,4.816,0,0,1-4.465-4.9V305.21a4.425,4.425,0,0,1,4.465-4.584l3.358.108a4.814,4.814,0,0,1,4.49,4.9V309.2A4.423,4.423,0,0,1,596.489,313.779Z" transform="translate(-556.42 -266.84)" fill="#fff"/>
      <path id="Path_88" data-name="Path 88" d="M608.142,314.242l-3.4-.128a4.861,4.861,0,0,1-4.522-4.93v-3.57A4.466,4.466,0,0,1,604.74,301l3.4.109a4.859,4.859,0,0,1,4.55,4.93v3.588A4.467,4.467,0,0,1,608.142,314.242Z" transform="translate(-551.536 -266.681)" fill="#fff"/>
      <path id="Path_89" data-name="Path 89" d="M619.948,314.709l-3.446-.128a4.906,4.906,0,0,1-4.58-4.963v-3.594a4.509,4.509,0,0,1,4.58-4.642l3.446.112a4.906,4.906,0,0,1,4.608,4.964v3.61A4.508,4.508,0,0,1,619.948,314.709Z" transform="translate(-546.588 -266.52)" fill="#fff"/>
      <path id="Path_90" data-name="Path 90" d="M631.908,315.183l-3.491-.131a4.952,4.952,0,0,1-4.64-5V306.44a4.552,4.552,0,0,1,4.64-4.672l3.491.114a4.952,4.952,0,0,1,4.669,5v3.634A4.552,4.552,0,0,1,631.908,315.183Z" transform="translate(-541.576 -266.357)" fill="#b3cdfa"/>
      <path id="Path_91" data-name="Path 91" d="M644.026,315.664l-3.537-.132a5,5,0,0,1-4.7-5.031V306.86a4.6,4.6,0,0,1,4.7-4.7l3.537.114a5,5,0,0,1,4.732,5.032v3.658A4.6,4.6,0,0,1,644.026,315.664Z" transform="translate(-536.498 -266.192)" fill="#b3cdfa"/>
      <path id="Path_92" data-name="Path 92" d="M573.627,324.946l-3.274-.145A4.768,4.768,0,0,1,566,319.938v-3.5a4.309,4.309,0,0,1,4.351-4.5l3.274.128A4.766,4.766,0,0,1,578,316.929v3.52A4.31,4.31,0,0,1,573.627,324.946Z" transform="translate(-566.002 -262.058)" fill="#fff"/>
      <path id="Path_93" data-name="Path 93" d="M584.985,325.473l-3.315-.147a4.812,4.812,0,0,1-4.408-4.894v-3.526a4.35,4.35,0,0,1,4.408-4.526l3.315.129a4.81,4.81,0,0,1,4.433,4.9v3.54A4.349,4.349,0,0,1,584.985,325.473Z" transform="translate(-561.242 -261.87)" fill="#fff"/>
      <path id="Path_94" data-name="Path 94" d="M596.489,326.008l-3.358-.149a4.856,4.856,0,0,1-4.465-4.927v-3.547a4.391,4.391,0,0,1,4.465-4.554l3.358.132a4.853,4.853,0,0,1,4.49,4.928v3.564A4.389,4.389,0,0,1,596.489,326.008Z" transform="translate(-556.42 -261.68)" fill="#fff"/>
      <path id="Path_95" data-name="Path 95" d="M608.142,326.548l-3.4-.151a4.9,4.9,0,0,1-4.522-4.96v-3.57a4.431,4.431,0,0,1,4.522-4.583l3.4.134a4.9,4.9,0,0,1,4.55,4.961v3.587A4.431,4.431,0,0,1,608.142,326.548Z" transform="translate(-551.536 -261.488)" fill="#fff"/>
      <path id="Path_96" data-name="Path 96" d="M619.948,327.1l-3.446-.152a4.947,4.947,0,0,1-4.58-4.994v-3.594a4.473,4.473,0,0,1,4.58-4.611l3.446.135a4.947,4.947,0,0,1,4.608,5v3.611A4.473,4.473,0,0,1,619.948,327.1Z" transform="translate(-546.588 -261.294)" fill="#fff"/>
      <path id="Path_97" data-name="Path 97" d="M631.908,327.652l-3.491-.155a4.994,4.994,0,0,1-4.64-5.028v-3.617a4.515,4.515,0,0,1,4.64-4.64l3.491.137a5,5,0,0,1,4.669,5.03v3.634A4.516,4.516,0,0,1,631.908,327.652Z" transform="translate(-541.576 -261.096)" fill="#b3cdfa"/>
      <path id="Path_98" data-name="Path 98" d="M644.026,328.214l-3.537-.156a5.043,5.043,0,0,1-4.7-5.064v-3.639a4.559,4.559,0,0,1,4.7-4.67l3.537.138a5.043,5.043,0,0,1,4.732,5.064v3.659A4.56,4.56,0,0,1,644.026,328.214Z" transform="translate(-536.498 -260.896)" fill="#b3cdfa"/>
      <path id="Path_99" data-name="Path 99" d="M573.627,337.018l-3.274-.166A4.808,4.808,0,0,1,566,331.959v-3.5a4.277,4.277,0,0,1,4.351-4.47l3.274.151A4.806,4.806,0,0,1,578,329.032v3.519A4.275,4.275,0,0,1,573.627,337.018Z" transform="translate(-566.002 -256.964)" fill="#fff"/>
      <path id="Path_100" data-name="Path 100" d="M584.985,337.624l-3.315-.171a4.851,4.851,0,0,1-4.408-4.924V329a4.317,4.317,0,0,1,4.408-4.5l3.315.154a4.849,4.849,0,0,1,4.433,4.926v3.541A4.315,4.315,0,0,1,584.985,337.624Z" transform="translate(-561.242 -256.744)" fill="#fff"/>
      <path id="Path_101" data-name="Path 101" d="M596.489,338.235l-3.358-.171a4.9,4.9,0,0,1-4.465-4.958v-3.547a4.356,4.356,0,0,1,4.465-4.524l3.358.155a4.894,4.894,0,0,1,4.49,4.958v3.564A4.354,4.354,0,0,1,596.489,338.235Z" transform="translate(-556.42 -256.521)" fill="#fff"/>
      <path id="Path_102" data-name="Path 102" d="M608.142,338.856l-3.4-.175a4.943,4.943,0,0,1-4.522-4.991v-3.57a4.4,4.4,0,0,1,4.522-4.552l3.4.157a4.941,4.941,0,0,1,4.55,4.993V334.3A4.4,4.4,0,0,1,608.142,338.856Z" transform="translate(-551.536 -256.296)" fill="#fff"/>
      <path id="Path_103" data-name="Path 103" d="M619.948,339.484l-3.446-.176a4.988,4.988,0,0,1-4.58-5.025v-3.594a4.437,4.437,0,0,1,4.58-4.58l3.446.159a4.988,4.988,0,0,1,4.608,5.027v3.611A4.438,4.438,0,0,1,619.948,339.484Z" transform="translate(-546.588 -256.067)" fill="#fff"/>
      <path id="Path_104" data-name="Path 104" d="M631.908,340.12l-3.491-.179a5.035,5.035,0,0,1-4.64-5.059v-3.617a4.478,4.478,0,0,1,4.64-4.608l3.491.161a5.036,5.036,0,0,1,4.669,5.061v3.634A4.48,4.48,0,0,1,631.908,340.12Z" transform="translate(-541.576 -255.836)" fill="#b3cdfa"/>
      <path id="Path_105" data-name="Path 105" d="M644.026,340.765l-3.537-.181a5.087,5.087,0,0,1-4.7-5.095v-3.641a4.522,4.522,0,0,1,4.7-4.637l3.537.162a5.085,5.085,0,0,1,4.732,5.1v3.658A4.524,4.524,0,0,1,644.026,340.765Z" transform="translate(-536.498 -255.601)" fill="#b3cdfa"/>
      <path id="Path_106" data-name="Path 106" d="M573.627,349.09l-3.274-.189A4.847,4.847,0,0,1,566,343.98v-3.5a4.242,4.242,0,0,1,4.351-4.439l3.274.172A4.847,4.847,0,0,1,578,341.134v3.519A4.24,4.24,0,0,1,573.627,349.09Z" transform="translate(-566.002 -251.87)" fill="#fff"/>
    </g>
    <path id="Path_107" data-name="Path 107" d="M653.255,164.131l-8.719.377c-6.382.276-11.534-4.45-11.534-10.557V145.66c0-6.107,5.152-11.339,11.534-11.689l8.719-.479c6.458-.354,11.717,4.368,11.717,10.548v8.393C664.972,158.614,659.713,163.851,653.255,164.131Z" transform="translate(858.373 140.77)" fill="#fff"/>
    <path id="Path_108" data-name="Path 108" d="M685.322,162.909l-9.022.39c-6.6.286-11.933-4.517-11.933-10.728v-8.434c0-6.21,5.33-11.537,11.933-11.9l9.022-.5c6.681-.367,12.124,4.431,12.124,10.719V151C697.445,157.286,692,162.62,685.322,162.909Z" transform="translate(871.633 140.03)" fill="#fff"/>
    <path id="Path_109" data-name="Path 109" d="M669.935,137.873v11.7l4.643-.221v4.04l4.72-4.265,7.721-.368V136.984Z" transform="translate(873.987 142.254)" fill="#b3cdfa"/>
    <path id="Path_110" data-name="Path 110" d="M651.769,154.918h-.027c-5.6.151-12.584-6.721-12.7-12.462a3.767,3.767,0,0,1,1.6-2.7l1.255-.821a1.576,1.576,0,0,1,.782-.259,1.424,1.424,0,0,1,1.238.576l2.285,3.16a1.471,1.471,0,0,1-.349,2.029l-1.35,1.041a11.043,11.043,0,0,0,1.855,2.181,11.247,11.247,0,0,0,2.323,1.706l1-1.373a1.6,1.6,0,0,1,2.061-.442l3.369,2.083a1.416,1.416,0,0,1,.435,1.968l-.778,1.275A5.065,5.065,0,0,1,651.769,154.918Z" transform="translate(860.927 142.969)" fill="#b3cdfa"/>
    <path id="Path_111" data-name="Path 111" d="M539.248,357.841a4.347,4.347,0,0,1-4.5,4.608,5.143,5.143,0,0,1-4.486-5.234,4.348,4.348,0,0,1,4.486-4.61A5.14,5.14,0,0,1,539.248,357.841Z" transform="translate(814.936 233.409)" fill="#b3cdfa" opacity="0.47"/>
    <path id="Path_112" data-name="Path 112" d="M527.72,357.029a4.305,4.305,0,0,1-4.443,4.58,5.1,5.1,0,0,1-4.428-5.2,4.307,4.307,0,0,1,4.428-4.58A5.09,5.09,0,0,1,527.72,357.029Z" transform="translate(810.112 233.081)" fill="#b3cdfa" opacity="0.47"/>
    <path id="Path_113" data-name="Path 113" d="M517.1,356.281a4.267,4.267,0,0,1-4.389,4.553,5.049,5.049,0,0,1-4.372-5.165,4.27,4.27,0,0,1,4.372-4.554A5.047,5.047,0,0,1,517.1,356.281Z" transform="translate(805.667 232.779)" fill="#b3cdfa" opacity="0.47"/>
    <path id="Path_114" data-name="Path 114" d="M506.521,355.536c0,2.672-1.942,4.7-4.335,4.527a5.008,5.008,0,0,1-4.319-5.131c0-2.663,1.932-4.691,4.319-4.53A5,5,0,0,1,506.521,355.536Z" transform="translate(801.241 232.478)" fill="#b3cdfa" opacity="0.47"/>
    <path id="Path_115" data-name="Path 115" d="M497.22,354.88c0,2.658-1.922,4.675-4.288,4.506a4.973,4.973,0,0,1-4.274-5.1c0-2.649,1.912-4.667,4.274-4.506A4.966,4.966,0,0,1,497.22,354.88Z" transform="translate(797.348 232.214)" fill="#b3cdfa" opacity="0.47"/>
    <g id="Group_59" data-name="Group 59" transform="translate(1342.196 582.646)" opacity="0.47">
      <path id="Path_116" data-name="Path 116" d="M536.244,366.88c-.171,0-.344-.006-.518-.018-4.177-.306-7.575-4.247-7.575-8.787,0-4.567,3.416-8.1,7.673-7.824,4.2.282,7.62,4.223,7.62,8.79C543.444,363.437,540.282,366.88,536.244,366.88Zm-.895-15.221c-3.238,0-5.775,2.817-5.775,6.415,0,3.81,2.806,7.115,6.254,7.367,3.44.276,6.193-2.649,6.193-6.4,0-3.832-2.823-7.138-6.292-7.369C535.6,351.663,535.474,351.659,535.349,351.659Z" transform="translate(-528.151 -350.235)" fill="#b3cdfa"/>
    </g>
    <path id="Path_117" data-name="Path 117" d="M578.708,333.147c-.822-7.169-9.894-46.338-33.956-47.054-19.108-.568-28.845,24.963-34.027,25.445-5.159.48-8.9-12.419-16.572-10.844-7.625,1.565-9.466,13.888-15.2,17.372-5.708,3.467-9.574.285-19.52-.832-7.313-.822-13.283,5.866-15.884,9.383Z" transform="translate(778.276 205.289)" fill="#b3cdfa"/>
    <g id="Group_60" data-name="Group 60" transform="translate(1211.355 470.736)">
      <path id="Path_118" data-name="Path 118" d="M596.049,350.664,436.189,342.3v-70.72l.727.016,159.133,3.6Zm-158.437-9.715,157.014,8.215V276.581l-157.014-3.548Z" transform="translate(-436.189 -271.579)" fill="#b3cdfa"/>
    </g>
    <g id="Group_61" data-name="Group 61" transform="translate(1249.878 299.738)">
      <path id="Path_119" data-name="Path 119" d="M514.344,151.392c-28.393,1.623-50.883,28.151-51.079,59.581l51.079-1.282Z" transform="translate(-463.265 -151.392)" fill="#fff"/>
      <path id="Path_120" data-name="Path 120" d="M468.4,194.048c.2,26.865,19.523,48.591,43.767,48.716v-49.8Z" transform="translate(-461.092 -133.816)" fill="#b3cdfa"/>
      <path id="Path_121" data-name="Path 121" d="M537.264,203.692c-.211-23.026-17.082-41-37.563-40.37v41.313Z" transform="translate(-447.861 -146.355)" fill="#b3cdfa"/>
      <path id="Path_122" data-name="Path 122" d="M499.7,225.981c16.218-.411,29.528-15.329,29.737-33.546l-29.737.736Z" transform="translate(-447.861 -134.04)" fill="#fff"/>
    </g>
    <g id="Group_62" data-name="Group 62" transform="translate(1227.882 285.685)">
      <path id="Path_123" data-name="Path 123" d="M452,274.291a.711.711,0,1,1,0-1.423h2.579a.711.711,0,0,1,0,1.423Zm12.429-.006a.711.711,0,0,1,0-1.423h2.579a.711.711,0,0,1,0,1.423Zm12.431-.006a.711.711,0,1,1,0-1.423h2.578a.711.711,0,1,1,0,1.423Zm12.429,0a.711.711,0,1,1,0-1.423h2.579a.711.711,0,1,1,0,1.423Zm12.429-.006a.711.711,0,1,1,0-1.423H504.3a.711.711,0,1,1,0,1.423Zm12.431-.006a.711.711,0,1,1,0-1.423h2.578a.711.711,0,1,1,0,1.423Zm12.429-.006a.711.711,0,0,1,0-1.423h2.58a.711.711,0,0,1,0,1.423Zm12.429-.006a.711.711,0,0,1,0-1.423h2.579a.711.711,0,0,1,0,1.423Zm12.431-.006a.711.711,0,0,1,0-1.423h2.578a.711.711,0,0,1,0,1.423Zm12.429,0a.711.711,0,0,1,0-1.423h2.579a.711.711,0,0,1,0,1.423Zm12.429-.006a.711.711,0,0,1,0-1.423h2.58a.711.711,0,1,1,0,1.423Zm6.257-4.342a.712.712,0,0,1-.711-.711V266.6a.711.711,0,1,1,1.423,0v2.579A.712.712,0,0,1,582.553,269.894Zm-134.037-3.486a.711.711,0,0,1-.711-.711v-2.578a.711.711,0,1,1,1.423,0V265.7A.711.711,0,0,1,448.516,266.409Zm134.037-8.945a.711.711,0,0,1-.711-.711v-2.578a.711.711,0,1,1,1.423,0v2.578A.711.711,0,0,1,582.553,257.464Zm-134.037-3.484a.712.712,0,0,1-.711-.711v-2.579a.711.711,0,1,1,1.423,0v2.579A.712.712,0,0,1,448.516,253.979Zm134.037-8.945a.712.712,0,0,1-.711-.711v-2.579a.711.711,0,1,1,1.423,0v2.579A.712.712,0,0,1,582.553,245.034ZM448.516,241.55a.712.712,0,0,1-.711-.711v-2.579a.711.711,0,1,1,1.423,0v2.579A.712.712,0,0,1,448.516,241.55ZM582.553,232.6a.712.712,0,0,1-.711-.711v-2.579a.711.711,0,1,1,1.423,0v2.579A.712.712,0,0,1,582.553,232.6Zm-134.037-3.486a.711.711,0,0,1-.711-.711V225.83a.711.711,0,0,1,1.423,0v2.578A.711.711,0,0,1,448.516,229.119Zm134.037-8.945a.711.711,0,0,1-.711-.711v-2.578a.711.711,0,1,1,1.423,0v2.578A.711.711,0,0,1,582.553,220.174ZM448.516,216.69a.712.712,0,0,1-.711-.711V213.4a.711.711,0,1,1,1.423,0v2.579A.712.712,0,0,1,448.516,216.69Zm134.037-8.945a.712.712,0,0,1-.711-.711v-2.579a.711.711,0,1,1,1.423,0v2.579A.712.712,0,0,1,582.553,207.745ZM448.516,204.26a.712.712,0,0,1-.711-.711V200.97a.711.711,0,1,1,1.423,0v2.579A.712.712,0,0,1,448.516,204.26Zm134.037-8.946a.711.711,0,0,1-.711-.711v-2.578a.711.711,0,1,1,1.423,0V194.6A.711.711,0,0,1,582.553,195.314ZM448.516,191.83a.711.711,0,0,1-.711-.711V188.54a.711.711,0,1,1,1.423,0v2.578A.711.711,0,0,1,448.516,191.83Zm134.037-8.945a.712.712,0,0,1-.711-.711V179.6a.711.711,0,0,1,1.423,0v2.578A.712.712,0,0,1,582.553,182.885ZM448.516,179.4a.712.712,0,0,1-.711-.711v-2.578a.711.711,0,1,1,1.423,0v2.578A.712.712,0,0,1,448.516,179.4Zm134.037-8.945a.712.712,0,0,1-.711-.711v-2.579a.711.711,0,1,1,1.423,0v2.579A.712.712,0,0,1,582.553,170.455Zm-134.037-3.484a.712.712,0,0,1-.711-.711v-2.58a.711.711,0,1,1,1.423,0v2.58A.712.712,0,0,1,448.516,166.971Zm134.037-8.946a.711.711,0,0,1-.711-.711v-2.578a.711.711,0,1,1,1.423,0v2.578A.711.711,0,0,1,582.553,158.025ZM448.516,154.54a.711.711,0,0,1-.711-.711v-1.211a5.076,5.076,0,0,1,.245-1.564.711.711,0,0,1,1.353.437,3.652,3.652,0,0,0-.175,1.127v1.211A.711.711,0,0,1,448.516,154.54Zm8.831-5.481a.711.711,0,0,1-.037-1.421l2.574-.138a.706.706,0,0,1,.748.672.714.714,0,0,1-.673.75l-2.575.138Zm12.412-.664a.712.712,0,0,1-.038-1.423l2.577-.138a.712.712,0,0,1,.074,1.421l-2.575.138Zm12.411-.666a.711.711,0,0,1-.037-1.421l2.575-.138a.724.724,0,0,1,.748.673.713.713,0,0,1-.673.748l-2.575.138Zm12.414-.664a.712.712,0,0,1-.038-1.423l2.575-.137a.72.72,0,0,1,.747.672.712.712,0,0,1-.672.75l-2.575.137ZM507,146.4a.712.712,0,0,1-.037-1.423l2.575-.138a.712.712,0,0,1,.074,1.421l-2.574.138Zm12.412-.666a.711.711,0,0,1-.037-1.421l2.574-.138a.712.712,0,0,1,.075,1.421l-2.575.138Zm63.076-.135a.712.712,0,0,1-.7-.585,3.154,3.154,0,0,0-.99-1.808.711.711,0,0,1,.939-1.069,4.571,4.571,0,0,1,1.451,2.625.71.71,0,0,1-.575.825A.636.636,0,0,1,582.483,145.6Zm-50.664-.529a.711.711,0,0,1-.038-1.421l2.577-.138a.712.712,0,0,1,.075,1.421l-2.577.138Zm12.411-.664a.712.712,0,0,1-.037-1.423l2.577-.137a.712.712,0,0,1,.074,1.421l-2.575.137Zm12.414-.666a.711.711,0,0,1-.037-1.421l2.574-.138a.712.712,0,1,1,.075,1.421l-2.575.138Zm12.412-.664a.711.711,0,0,1-.038-1.421l2.575-.138a.712.712,0,0,1,.075,1.421l-2.575.138Z" transform="translate(-447.805 -141.515)" fill="#b3cdfa"/>
    </g>
    <path id="Path_124" data-name="Path 124" d="M370.092,154.908l-20.245,1.05v-3.711l20.245-1.085Z" transform="translate(738.663 148.249)" fill="#b3cdfa"/>
    <path id="Path_125" data-name="Path 125" d="M370.092,163.021l-20.245.96v-7.422l20.245-1.028Z" transform="translate(738.663 150.095)" fill="#b3cdfa"/>
    <path id="Path_126" data-name="Path 126" d="M370.092,170.021l-20.245.869v-7.422l20.245-.938Z" transform="translate(738.663 153.055)" fill="#b3cdfa"/>
    <path id="Path_127" data-name="Path 127" d="M425.734,153.695l-54.459,2.833V148.4l54.459-3.031Z" transform="translate(747.722 145.801)" fill="#ecf3ff"/>
    <path id="Path_128" data-name="Path 128" d="M425.734,164.518l-54.459,2.467v-8.124l54.459-2.665Z" transform="translate(747.722 150.377)" fill="#ecf3ff"/>
    <path id="Path_129" data-name="Path 129" d="M425.734,175.342l-54.459,2.1V169.32l54.459-2.3Z" transform="translate(747.722 154.953)" fill="#ecf3ff"/>
    <path id="Path_130" data-name="Path 130" d="M425.734,186.166,371.274,187.9v-8.124l54.459-1.934Z" transform="translate(747.722 159.529)" fill="#ecf3ff"/>
    <path id="Path_131" data-name="Path 131" d="M425.734,196.99l-54.459,1.37v-8.124l54.459-1.568Z" transform="translate(747.722 164.105)" fill="#ecf3ff"/>
    <path id="Path_132" data-name="Path 132" d="M425.734,207.814l-54.459,1v-8.124l54.459-1.2Z" transform="translate(747.722 168.681)" fill="#ecf3ff"/>
    <path id="Path_133" data-name="Path 133" d="M425.734,218.638l-54.459.639v-8.124l54.459-.836Z" transform="translate(747.722 173.257)" fill="#ecf3ff"/>
    <path id="Path_134" data-name="Path 134" d="M466.068,229.363l-94.793.475v-8.124l94.793-.819Z" transform="translate(747.722 177.729)" fill="#ecf3ff"/>
    <path id="Path_135" data-name="Path 135" d="M466.068,240.377l-94.793-.162v-8.124l94.793-.183Z" transform="translate(747.722 182.386)" fill="#ecf3ff"/>
    <path id="Path_136" data-name="Path 136" d="M466.068,251.526l-94.793-.8V242.6l94.793.454Z" transform="translate(747.722 186.907)" fill="#ecf3ff"/>
    <path id="Path_137" data-name="Path 137" d="M466.068,262.73l-94.793-1.435v-8.124l94.793,1.091Z" transform="translate(747.722 191.375)" fill="#ecf3ff"/>
    <path id="Path_138" data-name="Path 138" d="M446.027,273.5l-74.752-1.633v-8.124l74.752,1.362Z" transform="translate(747.722 195.842)" fill="#ecf3ff"/>
    <path id="Path_139" data-name="Path 139" d="M446.027,284.564l-74.752-2.135V274.3l74.752,1.864Z" transform="translate(747.722 200.309)" fill="#ecf3ff"/>
    <path id="Path_140" data-name="Path 140" d="M446.027,295.633,371.274,293v-8.124l74.752,2.366Z" transform="translate(747.722 204.777)" fill="#ecf3ff"/>
    <path id="Path_141" data-name="Path 141" d="M446.027,306.7l-74.752-3.139v-8.124l74.752,2.868Z" transform="translate(747.722 209.244)" fill="#ecf3ff"/>
    <path id="Path_142" data-name="Path 142" d="M446.027,317.77l-74.752-3.641V306l74.752,3.37Z" transform="translate(747.722 213.711)" fill="#ecf3ff"/>
    <path id="Path_143" data-name="Path 143" d="M446.027,328.839,371.274,324.7v-8.124l74.752,3.872Z" transform="translate(747.722 218.179)" fill="#ecf3ff"/>
    <path id="Path_144" data-name="Path 144" d="M446.027,339.908l-74.752-4.645v-8.124l74.752,4.374Z" transform="translate(747.722 222.646)" fill="#ecf3ff"/>
    <path id="Path_145" data-name="Path 145" d="M446.027,350.976l-74.752-5.147V337.7l74.752,4.876Z" transform="translate(747.722 227.114)" fill="#ecf3ff"/>
    <path id="Path_146" data-name="Path 146" d="M491.651,364.827l-5.513-.393c0-14.682-10.467-27.256-23.208-28.02-12.6-.757-22.762,10.346-22.762,24.746l-5.277-.377c0-17.736,12.495-31.449,28.039-30.557C478.68,331.131,491.651,346.658,491.651,364.827Z" transform="translate(774.617 223.934)" fill="#ecf3ff"/>
    <path id="Path_147" data-name="Path 147" d="M440.168,360.448l-5.277-.377c0-12.429,6.284-23.486,16.076-28.2l2.266,5.714C445.28,341.39,440.168,350.356,440.168,360.448Z" transform="translate(774.617 224.647)" fill="#b3cdfa"/>
    <path id="Path_148" data-name="Path 148" d="M459.17,355.457l.007,0c-3.85-5.978-6.536-10.149-7.731-12.007l-.017.01a.923.923,0,0,0-1.214-.394,1.123,1.123,0,0,0-.451,1.3l-.017.01c.612,2.173,1.988,7.048,3.955,14.029l.009,0a4,4,0,0,0,.2.58,3.121,3.121,0,0,0,4.251,1.8,3.714,3.714,0,0,0,1.3-4.793A4.207,4.207,0,0,0,459.17,355.457Zm-1.791,3.574a1.466,1.466,0,0,1-2-.844,1.742,1.742,0,0,1,.61-2.247,1.464,1.464,0,0,1,2,.841A1.745,1.745,0,0,1,457.378,359.031Z" transform="translate(780.884 229.336)" fill="#b3cdfa"/>
    <path id="Path_149" data-name="Path 149" d="M532.028,155.522l-11.623.534a.2.2,0,0,0-.182.211v5.718a.183.183,0,0,0,.182.193l4.419-.192a.174.174,0,0,1,.159.1l1.06,1.975a.176.176,0,0,0,.319-.013l1.061-2.069a.192.192,0,0,1,.159-.108l4.445-.193a.2.2,0,0,0,.185-.211v-5.747A.183.183,0,0,0,532.028,155.522Z" transform="translate(810.693 150.092)" fill="#b3cdfa"/>
    <path id="Path_150" data-name="Path 150" d="M536.289,211.878l-11.678.157a.2.2,0,0,0-.185.2v5.732a.192.192,0,0,0,.185.2l4.44-.048a.178.178,0,0,1,.159.1l1.066,2.016a.177.177,0,0,0,.32,0l1.066-2.039a.187.187,0,0,1,.161-.1l4.466-.048a.2.2,0,0,0,.186-.206V212.08A.193.193,0,0,0,536.289,211.878Z" transform="translate(812.47 173.917)" fill="#fff"/>
    <path id="Path_151" data-name="Path 151" d="M463.847,208.428l-10.73.172a.187.187,0,0,0-.169.2v5.493a.179.179,0,0,0,.169.192l4.081-.054a.163.163,0,0,1,.146.1l.979,1.929a.16.16,0,0,0,.294,0l.979-1.956a.175.175,0,0,1,.148-.1l4.1-.056a.186.186,0,0,0,.171-.2v-5.52A.182.182,0,0,0,463.847,208.428Z" transform="translate(782.251 172.459)" fill="#b3cdfa"/>
    <path id="Path_152" data-name="Path 152" d="M465.519,161.4l-10.752.477a.192.192,0,0,0-.169.2v5.5a.174.174,0,0,0,.169.188l4.088-.171a.157.157,0,0,1,.148.091l.98,1.9a.161.161,0,0,0,.3-.011l.98-1.986a.177.177,0,0,1,.148-.1l4.112-.172a.193.193,0,0,0,.171-.2v-5.526A.175.175,0,0,0,465.519,161.4Z" transform="translate(782.949 152.576)" fill="#fff"/>
    <path id="Path_153" data-name="Path 153" d="M448.638,246.288l-36.136.424V145.806l36.136-2.011Z" transform="translate(765.152 145.134)" fill="#ecf3ff"/>
    <path id="Path_154" data-name="Path 154" d="M710.7,170.264l-56.593,2.011V163.8l56.593-2.193Z" transform="translate(867.297 152.663)" fill="#ecf3ff"/>
    <path id="Path_155" data-name="Path 155" d="M710.7,180.2l-56.593,1.714v-8.477l56.593-1.9Z" transform="translate(867.297 156.865)" fill="#ecf3ff"/>
    <path id="Path_156" data-name="Path 156" d="M710.7,190.138l-56.593,1.418v-8.477l56.593-1.6Z" transform="translate(867.297 161.066)" fill="#ecf3ff"/>
    <path id="Path_157" data-name="Path 157" d="M710.7,200.075,654.112,201.2v-8.477l56.593-1.3Z" transform="translate(867.297 165.267)" fill="#ecf3ff"/>
    <path id="Path_158" data-name="Path 158" d="M710.7,210.012l-56.593.825v-8.477l56.593-1.006Z" transform="translate(867.297 169.467)" fill="#ecf3ff"/>
    <path id="Path_159" data-name="Path 159" d="M710.7,219.948l-56.593.528V212l56.593-.71Z" transform="translate(867.297 173.668)" fill="#ecf3ff"/>
    <path id="Path_160" data-name="Path 160" d="M710.7,229.885l-56.593.231v-8.477l56.593-.413Z" transform="translate(867.297 177.87)" fill="#ecf3ff"/>
    <path id="Path_161" data-name="Path 161" d="M710.7,239.822l-56.593-.065V231.28l56.593-.117Z" transform="translate(867.297 182.071)" fill="#ecf3ff"/>
    <path id="Path_162" data-name="Path 162" d="M710.7,249.812l-56.593-.362v-8.477l56.593.18Z" transform="translate(867.297 186.218)" fill="#ecf3ff"/>
    <path id="Path_163" data-name="Path 163" d="M710.7,259.837l-56.593-.658V250.7l56.593.477Z" transform="translate(867.297 190.331)" fill="#ecf3ff"/>
    <path id="Path_164" data-name="Path 164" d="M710.7,269.862l-56.593-.955V260.43l56.593.773Z" transform="translate(867.297 194.444)" fill="#ecf3ff"/>
    <path id="Path_165" data-name="Path 165" d="M710.7,279.887l-56.593-1.251v-8.477l56.593,1.07Z" transform="translate(867.297 198.557)" fill="#ecf3ff"/>
    <path id="Path_166" data-name="Path 166" d="M710.7,289.912l-56.593-1.548v-8.478l56.593,1.366Z" transform="translate(867.297 202.67)" fill="#ecf3ff"/>
    <path id="Path_167" data-name="Path 167" d="M710.7,299.937l-56.593-1.845v-8.477l56.593,1.663Z" transform="translate(867.297 206.782)" fill="#ecf3ff"/>
    <path id="Path_168" data-name="Path 168" d="M710.7,309.962l-56.593-2.141v-8.477L710.7,301.3Z" transform="translate(867.297 210.895)" fill="#ecf3ff"/>
    <path id="Path_169" data-name="Path 169" d="M710.7,319.987l-56.593-2.438v-8.478l56.593,2.256Z" transform="translate(867.297 215.008)" fill="#ecf3ff"/>
    <path id="Path_170" data-name="Path 170" d="M710.7,330.012l-56.593-2.734V318.8l56.593,2.553Z" transform="translate(867.297 219.121)" fill="#ecf3ff"/>
    <path id="Path_171" data-name="Path 171" d="M710.7,340.037l-56.593-3.031v-8.477l56.593,2.849Z" transform="translate(867.297 223.234)" fill="#ecf3ff"/>
    <path id="Path_172" data-name="Path 172" d="M710.7,350.062l-56.593-3.327v-8.477L710.7,341.4Z" transform="translate(867.297 227.347)" fill="#ecf3ff"/>
    <path id="Path_173" data-name="Path 173" d="M710.7,360.087l-56.593-3.624v-8.478l56.593,3.443Z" transform="translate(867.297 231.46)" fill="#ecf3ff"/>
    <path id="Path_174" data-name="Path 174" d="M710.7,370.112l-56.593-3.921v-8.477l56.593,3.739Z" transform="translate(867.297 235.573)" fill="#ecf3ff"/>
    <path id="Path_175" data-name="Path 175" d="M710.7,380.137l-56.593-4.217v-8.477l56.593,4.035Z" transform="translate(867.297 239.685)" fill="#ecf3ff"/>
    <g id="Group_63" data-name="Group 63" transform="translate(1401.359 334.834)">
      <path id="Path_176" data-name="Path 176" d="M615.124,176.07v48.767l-45.381.625c.286,25.927,20.136,46.919,44.988,47,25.482.078,46.478-21.788,46.478-48.841C661.209,196.7,640.428,175.512,615.124,176.07Z" transform="translate(-569.73 -176.059)" fill="#fff"/>
      <path id="Path_177" data-name="Path 177" d="M569.734,224.889c0,.053,0,.105,0,.159l45-.625V176.068C589.7,176.843,569.734,198.7,569.734,224.889Z" transform="translate(-569.734 -176.056)" fill="#b3cdfa"/>
    </g>
    <g id="Group_64" data-name="Group 64" transform="translate(1392.494 323.768)">
      <path id="Path_178" data-name="Path 178" d="M668.09,285.834l-2.584-.016a.711.711,0,0,1,0-1.423h0l2.579.016a3.694,3.694,0,0,0,2.036-.61.711.711,0,0,1,.78,1.189A5.114,5.114,0,0,1,668.09,285.834Zm-12.429-.077h0l-2.58-.017a.711.711,0,0,1,0-1.423h0l2.58.017a.711.711,0,0,1,0,1.423Zm-12.431-.078h0l-2.578-.016a.712.712,0,0,1-.707-.716.731.731,0,0,1,.716-.707l2.578.016a.711.711,0,0,1,0,1.423ZM630.8,285.6h0l-2.58-.017a.711.711,0,0,1,0-1.423h0l2.579.017a.711.711,0,0,1,0,1.423Zm-12.429-.078h0l-2.579-.016a.711.711,0,0,1,0-1.423h0l2.58.016a.711.711,0,0,1,0,1.423Zm-12.431-.077h0l-2.578-.017a.711.711,0,0,1,0-1.423h0l2.578.017a.711.711,0,0,1,0,1.423Zm-12.429-.078h0l-2.578-.017a.711.711,0,0,1,0-1.423h0l2.58.017a.711.711,0,0,1,0,1.423Zm-12.429-.078h0l-2.58-.016a.711.711,0,0,1,0-1.423h0l2.58.016a.711.711,0,0,1,0,1.423Zm-12.431-.078H568.4a4.708,4.708,0,0,1-2.584-.8.711.711,0,1,1,.79-1.184,3.278,3.278,0,0,0,1.8.558h.25a.711.711,0,0,1,0,1.423ZM672.6,275.962a.711.711,0,0,1-.711-.711v-2.578a.711.711,0,0,1,1.423,0v2.578A.711.711,0,0,1,672.6,275.962Zm-108.381-.613a.712.712,0,0,1-.711-.711v-2.578a.711.711,0,0,1,1.423,0v2.578A.711.711,0,0,1,564.214,275.348ZM672.6,263.532a.712.712,0,0,1-.711-.711v-2.579a.711.711,0,1,1,1.423,0v2.579A.712.712,0,0,1,672.6,263.532Zm-108.381-.613a.712.712,0,0,1-.711-.711v-2.58a.711.711,0,0,1,1.423,0v2.58A.711.711,0,0,1,564.214,262.919ZM672.6,251.1a.712.712,0,0,1-.711-.711v-2.58a.711.711,0,0,1,1.423,0v2.58A.712.712,0,0,1,672.6,251.1Zm-108.381-.615a.711.711,0,0,1-.711-.711V247.2a.711.711,0,0,1,1.423,0v2.578A.71.71,0,0,1,564.214,250.488ZM672.6,238.672a.711.711,0,0,1-.711-.711v-2.578a.711.711,0,1,1,1.423,0v2.578A.711.711,0,0,1,672.6,238.672Zm-108.381-.613a.712.712,0,0,1-.711-.711v-2.578a.711.711,0,0,1,1.423,0v2.578A.711.711,0,0,1,564.214,238.059ZM672.6,226.243a.712.712,0,0,1-.711-.711v-2.579a.711.711,0,1,1,1.423,0v2.579A.712.712,0,0,1,672.6,226.243Zm-108.381-.613a.712.712,0,0,1-.711-.711v-2.579a.711.711,0,0,1,1.423,0v2.579A.711.711,0,0,1,564.214,225.63ZM672.6,213.813a.712.712,0,0,1-.711-.711v-2.58a.711.711,0,1,1,1.423,0v2.58A.712.712,0,0,1,672.6,213.813ZM564.214,213.2a.711.711,0,0,1-.711-.711v-2.578a.711.711,0,0,1,1.423,0v2.578A.71.71,0,0,1,564.214,213.2ZM672.6,201.383a.711.711,0,0,1-.711-.711v-2.578a.711.711,0,1,1,1.423,0v2.578A.711.711,0,0,1,672.6,201.383Zm-108.381-.613a.712.712,0,0,1-.711-.711V197.48a.711.711,0,0,1,1.423,0v2.578A.711.711,0,0,1,564.214,200.77ZM672.6,188.953a.712.712,0,0,1-.711-.711v-2.579a.711.711,0,1,1,1.423,0v2.579A.712.712,0,0,1,672.6,188.953Zm-108.381-.613a.712.712,0,0,1-.711-.711v-2.579a.711.711,0,0,1,1.423,0v2.579A.711.711,0,0,1,564.214,188.34ZM672.6,176.524a.712.712,0,0,1-.711-.711v-2.4a.777.777,0,0,1,.676-.815.648.648,0,0,1,.743.6c0,.075.006.152,0,.228v2.386A.712.712,0,0,1,672.6,176.524Zm-108.078-.578a.689.689,0,0,1-.248-.044.713.713,0,0,1-.42-.915,5.377,5.377,0,0,1,1.726-2.373.712.712,0,1,1,.875,1.123,3.933,3.933,0,0,0-1.266,1.747A.712.712,0,0,1,564.517,175.946Zm11.14-3.19a.712.712,0,0,1-.023-1.423l2.577-.087a.7.7,0,0,1,.735.686.714.714,0,0,1-.689.736l-2.577.087Zm12.424-.424a.711.711,0,0,1-.024-1.421l2.577-.088a.711.711,0,1,1,.048,1.421l-2.578.088Zm12.422-.423a.712.712,0,0,1-.024-1.423l2.578-.087a.711.711,0,1,1,.047,1.421l-2.577.087Zm12.422-.423a.712.712,0,0,1-.023-1.423l2.577-.087a.71.71,0,1,1,.048,1.42l-2.578.088Zm12.424-.424a.711.711,0,0,1-.024-1.421l2.577-.088a.7.7,0,0,1,.734.687.711.711,0,0,1-.687.734l-2.577.088Zm12.421-.423a.712.712,0,0,1-.023-1.423l2.577-.087a.7.7,0,0,1,.735.686.713.713,0,0,1-.688.736l-2.577.087Zm12.424-.424a.711.711,0,0,1-.024-1.421l2.578-.088a.7.7,0,0,1,.734.687.713.713,0,0,1-.687.736l-2.578.087Zm12.422-.423a.711.711,0,0,1-.023-1.421l2.577-.088a.7.7,0,0,1,.736.686.712.712,0,0,1-.689.736l-2.577.088Z" transform="translate(-563.503 -168.282)" fill="#b3cdfa"/>
    </g>
    <path id="Path_179" data-name="Path 179" d="M246.848,287.145h-21.6a.341.341,0,0,0-.341.341v9.675a.342.342,0,0,0,.341.343h8.235a.345.345,0,0,1,.3.171l1.971,3.413a.342.342,0,0,0,.592,0l1.972-3.413a.341.341,0,0,1,.3-.171h8.235a.343.343,0,0,0,.343-.343v-9.675A.342.342,0,0,0,246.848,287.145Z" transform="translate(685.843 205.738)" fill="#092772"/>
    <path id="Path_180" data-name="Path 180" d="M272.667,260.507h-21.6a.342.342,0,0,0-.343.342v9.675a.343.343,0,0,0,.343.343H259.3a.342.342,0,0,1,.3.171l1.972,3.413a.341.341,0,0,0,.592,0l1.97-3.413a.344.344,0,0,1,.3-.171h8.236a.342.342,0,0,0,.341-.343v-9.675A.341.341,0,0,0,272.667,260.507Z" transform="translate(696.757 194.476)" fill="#e88400"/>
    <path id="Path_181" data-name="Path 181" d="M297.295,233.8H275.7a.343.343,0,0,0-.343.341v9.676a.343.343,0,0,0,.343.341h8.235a.342.342,0,0,1,.3.171l1.972,3.413a.341.341,0,0,0,.592,0l1.971-3.413a.344.344,0,0,1,.3-.171h8.236a.342.342,0,0,0,.341-.341V234.14A.342.342,0,0,0,297.295,233.8Z" transform="translate(707.169 183.185)" fill="#f0c331"/>
    <path id="Path_182" data-name="Path 182" d="M322.089,208.7h-21.6a.342.342,0,0,0-.341.343v9.675a.342.342,0,0,0,.341.343h8.236a.344.344,0,0,1,.3.171l1.971,3.413a.342.342,0,0,0,.592,0l1.972-3.413a.342.342,0,0,1,.3-.171h8.235a.343.343,0,0,0,.343-.343v-9.675A.343.343,0,0,0,322.089,208.7Z" transform="translate(717.652 172.572)" fill="#2b8fe5"/>
    <ellipse id="Ellipse_5" data-name="Ellipse 5" cx="15.958" cy="6.918" rx="15.958" ry="6.918" transform="translate(905.934 522.207)" fill="#ecf3ff"/>
    <path id="Path_183" data-name="Path 183" d="M237.481,319.537c-8.813,0-15.958-3.1-15.958-6.919v31.916c0,3.822,7.145,6.919,15.958,6.919s15.958-3.1,15.958-6.919V312.618C253.439,316.44,246.295,319.537,237.481,319.537Z" transform="translate(684.411 216.507)" fill="url(#linear-gradient-2)"/>
    <ellipse id="Ellipse_6" data-name="Ellipse 6" cx="15.958" cy="6.918" rx="15.958" ry="6.918" transform="translate(977.707 448.233)" fill="#ecf3ff"/>
    <path id="Path_184" data-name="Path 184" d="M287.927,267.542c-8.814,0-15.958-3.1-15.958-6.917v63.831c0,3.822,7.144,6.919,15.958,6.919s15.958-3.1,15.958-6.919V260.625C303.885,264.445,296.739,267.542,287.927,267.542Z" transform="translate(705.738 194.526)" fill="url(#linear-gradient-2)"/>
    <ellipse id="Ellipse_7" data-name="Ellipse 7" cx="15.958" cy="6.918" rx="15.958" ry="6.918" transform="translate(1012.985 412.977)" fill="#ecf3ff"/>
    <path id="Path_185" data-name="Path 185" d="M312.722,242.764c-8.813,0-15.958-3.1-15.958-6.919v79.79c0,3.82,7.145,6.918,15.958,6.918s15.958-3.1,15.958-6.918v-79.79C328.68,239.667,321.536,242.764,312.722,242.764Z" transform="translate(716.221 184.05)" fill="url(#linear-gradient-2)"/>
    <ellipse id="Ellipse_8" data-name="Ellipse 8" cx="15.958" cy="6.918" rx="15.958" ry="6.918" transform="translate(942.667 485.056)" fill="#ecf3ff"/>
    <path id="Path_186" data-name="Path 186" d="M263.3,293.425c-8.814,0-15.958-3.1-15.958-6.919v47.875c0,3.82,7.144,6.918,15.958,6.918s15.958-3.1,15.958-6.918V286.506C279.257,290.327,272.111,293.425,263.3,293.425Z" transform="translate(695.326 205.468)" fill="url(#linear-gradient-2)"/>
    <path id="Path_187" data-name="Path 187" d="M583.344,222.726c-1.407,1.2-5.368,5.883-5.368,5.883s5.291-8.811,5.787-9.614-.29-1.8-.962-1.554a5.565,5.565,0,0,1,.5-1.056c.68-.773-.745-2.008-2.406-.283s-6.881,8.757-7.713,8.693,3.341-8.679,3.921-10.278-1.339-1.9-4.183,2.589-6.165,11.005-7.653,12.34-2.45-.622-2.839-1.915-3.267-5.546-4.681-4.093.9,2.917.845,4.436a15.057,15.057,0,0,0,1.1,7.916c.6,1.407,1.248,2.695,1.834,3.773a7.423,7.423,0,0,0-1.026,1.111l-.7.955a2.916,2.916,0,0,0-1.813,1.208h0l-.019.026-.047.065-17.991,24.533-44.733.461v.01c-.075,0-.147-.007-.222-.006a14.372,14.372,0,0,0-2.218.248c-2.75-1.814-9.487-5.5-20.482-6.94a9.714,9.714,0,0,0-5.132-6.169c-.343-1.47-.65-2.792-.966-4.143a19.14,19.14,0,0,0,10.063-22.793l-3.6-11.926a19.048,19.048,0,0,0-5.855-8.971l-.228-.637,2.931-1.044-.03-.084a8.925,8.925,0,0,0-11.4-5.414l-10.917,3.887-5.927,2.111a15.5,15.5,0,0,0-9.4,19.8l6.331,17.779a8.062,8.062,0,0,0,5.389,5.049c.643,2.759,1.131,4.852,1.6,6.851a5.208,5.208,0,0,0-4.533,5.583l.219,2.672c-16.117,4.917-23.957,14.084-25,15.968a.941.941,0,0,0-.056.249,14.277,14.277,0,0,0-1.652,4.2s-4.705,21.481-8.461,38.685a11.277,11.277,0,0,0-.4,2.5c0,.021-.006.043-.006.064a11.233,11.233,0,0,0,7.057,11.025l20.676,12.506c-.3,12.294-.659,27.072-.8,34.65a4.1,4.1,0,0,0,.626,2.244c-1.979,14.978-3.772,28.658-5.4,41.169l32.67,2.5c3.075-14.051,5.6-25.627,7.02-32.1.036,8.079.087,19.55.144,32.651l31.759,2.426c2.311-24.682,4.054-43.268,4.054-43.268l.094-1.148.121-1.327c.05-.552.087-1.111.087-1.679a18.179,18.179,0,0,0-.37-3.652,3.435,3.435,0,0,0,.314-1.46c-.175-8.2-4.039-53.364-6.673-83.426.208-.018.421-.023.627-.05h0l50.229-6.715.03,0,.037,0v0a11.244,11.244,0,0,0,9.03-7.189,11.188,11.188,0,0,0,1.952-2.78l.007.006c7.922-16.072,14.036-28.844,14.563-30.072a2.583,2.583,0,0,0-.326-2.37,7.037,7.037,0,0,0,.344-1.051,6.945,6.945,0,0,0,.158-1.622,10.089,10.089,0,0,0,.531-1c4.826-9.035,10.924-20.437,11.109-20.7C585.221,222.555,584.75,221.525,583.344,222.726ZM430.026,322.112q.171-.442.334-.864l.662,1.63Z" transform="translate(762.076 168.698)" fill="#7c96c4" opacity="0.3"/>
    <path id="Path_188" data-name="Path 188" d="M841.174,460.983c-1.053-4.46-12.719-28.8-44.083-28.8-25.349,0-38.422,16.567-45.422,17.012s-12.091-7.783-22.589-6.585-13.045,9.252-21,11.681-13.363.461-27.363.017c-10.366-.33-18.879,4.263-22.6,6.67Z" transform="translate(868.99 267.058)" fill="#ecf3ff"/>
    <path id="Path_189" data-name="Path 189" d="M475.339,480.1l99.039,3.734,36.7-32.916-76.412-2.349Z" transform="translate(791.717 273.983)" fill="#7c96c4" opacity="0.2"/>
    <path id="Path_190" data-name="Path 190" d="M476.1,476.682l99.039,3.734,36.7-32.916-74.586-3.1Z" transform="translate(792.039 272.219)" fill="url(#linear-gradient-2)"/>
    <path id="Path_191" data-name="Path 191" d="M437.72,489.36l99.039,3.734,36.7-32.916-76.412-2.349Z" transform="translate(775.813 277.899)" fill="#7c96c4" opacity="0.2"/>
    <path id="Path_192" data-name="Path 192" d="M438.48,485.943l99.039,3.734,36.7-32.916-74.586-3.1Z" transform="translate(776.135 276.135)" fill="url(#linear-gradient-2)"/>
    <g id="Group_116" data-name="Group 116" transform="translate(1649.166 279.796)">
      <path id="Path_298" data-name="Path 298" d="M26.8,20.617h5.518V37.43H26.8Z" transform="translate(-21.168 -20.617)" fill="#2b8fe5"/>
      <path id="Path_299" data-name="Path 299" d="M20.82,26.609H37.633v5.518H20.82Z" transform="translate(-20.82 -20.966)" fill="#2b8fe5"/>
    </g>
    <g id="Group_117" data-name="Group 117" transform="translate(1001.713 308.138)">
      <path id="Path_300" data-name="Path 300" d="M25.259,61.719,37.145,73.605l-3.9,3.9L21.355,65.622Z" transform="translate(-21.352 -61.711)" fill="#f0c331"/>
      <path id="Path_301" data-name="Path 301" d="M33.238,61.711l3.9,3.9L25.255,77.5l-3.9-3.9Z" transform="translate(-21.352 -61.711)" fill="#f0c331"/>
    </g>
    <g id="Group_119" data-name="Group 119" transform="translate(1621.414 317.556)">
      <path id="Path_300-2" data-name="Path 300" d="M25.259,61.719,37.145,73.605l-3.9,3.9L21.355,65.622Z" transform="translate(-21.352 -61.711)" fill="#f0c331"/>
      <path id="Path_301-2" data-name="Path 301" d="M33.238,61.711l3.9,3.9L25.255,77.5l-3.9-3.9Z" transform="translate(-21.352 -61.711)" fill="#f0c331"/>
    </g>
    <path id="Path_305" data-name="Path 305" d="M61.2,26.609H78.016v5.518H61.2Z" transform="translate(981.808 264.481)" fill="#e88400"/>
    <path id="Path_306" data-name="Path 306" d="M61.2,26.609H78.016v5.518H61.2Z" transform="translate(1550.652 270.132)" fill="#e88400"/>
    <g id="man" transform="translate(1127.069 353.625)">
      <ellipse id="Ellipse_9" data-name="Ellipse 9" cx="79.201" cy="18.98" rx="79.201" ry="18.98" transform="translate(0 345.382)" fill="#ecf3ff"/>
      <path id="Path_193" data-name="Path 193" d="M398.811,448.561v-6.466a2.184,2.184,0,0,1,2.184-2.184l14.076-.057-.139-3a1.034,1.034,0,0,1,1.579-1l7.2,4.561A7.163,7.163,0,0,0,428.1,441.6l7.3-.36A2.967,2.967,0,0,1,438.508,444l.312,4.56Z" transform="translate(-367.705 -85.088)" fill="url(#linear-gradient-8)"/>
      <path id="Path_194" data-name="Path 194" d="M503.557,221.391a47.025,47.025,0,0,0,3.075,5.926c-1.347,2.245-4.634,8.433-3.429,6.178l9.255,5.243c.5-1.48,5.058-8.934,5.21-9.444,4.826-9.035,10.925-20.437,11.11-20.7.307-.438-.165-1.468-1.571-.267s-5.368,5.883-5.368,5.883,5.291-8.811,5.786-9.614-.29-1.8-.962-1.554a5.653,5.653,0,0,1,.5-1.056c.68-.773-.746-2.008-2.406-.283s-6.881,8.759-7.713,8.695,3.341-8.68,3.922-10.279-1.34-1.9-4.184,2.589-6.163,11.005-7.652,12.34-2.452-.622-2.84-1.915-3.267-5.546-4.681-4.093.9,2.917.845,4.438A15.052,15.052,0,0,0,503.557,221.391Z" transform="translate(-324.436 -185.132)" fill="url(#linear-gradient-9)"/>
      <ellipse id="Ellipse_10" data-name="Ellipse 10" cx="27.981" cy="6.706" rx="27.981" ry="6.706" transform="translate(161.217 341.199)" fill="#ecf3ff"/>
      <path id="Path_195" data-name="Path 195" d="M432.54,209.8a10.771,10.771,0,0,0-12.4,13.05h0c3.437,14.731,3.449,14.781,6.865,29.427l.024.1,0,.02h0a10.772,10.772,0,1,0,20.98-4.894h0c-3.437-14.731-3.449-14.781-6.865-29.429l-.024-.1,0-.021h0A10.772,10.772,0,0,0,432.54,209.8Z" transform="translate(-358.806 -180.66)" fill="url(#linear-gradient-10)"/>
      <path id="Path_196" data-name="Path 196" d="M443.718,240.834l-.371.111A19.155,19.155,0,0,1,419.47,228.15l-3.6-11.927a19.156,19.156,0,0,1,12.8-23.877l.37-.112a19.154,19.154,0,0,1,23.877,12.8l3.6,11.926A19.157,19.157,0,0,1,443.718,240.834Z" transform="translate(-360.843 -188.361)" fill="url(#linear-gradient-11)"/>
      <path id="Path_197" data-name="Path 197" d="M422.629,195.785l5.927-2.111,10.917-3.887a8.925,8.925,0,0,1,11.4,5.414l.03.085-2.931,1.043,3.257,9.143a7.662,7.662,0,0,1-3.257,9.128l-.135-.383a4.229,4.229,0,0,0-5.4-2.565l-.081.028a4.231,4.231,0,0,0-2.565,5.4l2.868,8.051a8.08,8.08,0,0,1-4.9,10.322l-7.874,2.8a8.079,8.079,0,0,1-10.322-4.9l-6.331-17.779A15.5,15.5,0,0,1,422.629,195.785Z" transform="translate(-361.991 -189.267)" fill="#172b36"/>
      <path id="Path_198" data-name="Path 198" d="M451.468,240.524l-31.631,2.589-.694-8.477a5.217,5.217,0,0,1,4.775-5.627l16.742-1.372a9.722,9.722,0,0,1,10.482,8.9Z" transform="translate(-359.117 -173.059)" fill="url(#linear-gradient-12)"/>
      <path id="Path_199" data-name="Path 199" d="M444.109,465.676a7.4,7.4,0,0,1-4.507-7.814l8.067-60.706a7.4,7.4,0,0,1,14.67,1.951l-8.069,60.7a7.4,7.4,0,0,1-10.161,5.865Z" transform="translate(-350.488 -104.093)" fill="#2b8fe5"/>
      <path id="Path_200" data-name="Path 200" d="M438.178,448.561v-6.466a2.184,2.184,0,0,1,2.184-2.184l14.075-.057-.139-3a1.034,1.034,0,0,1,1.579-1l7.2,4.561a7.163,7.163,0,0,0,4.389,1.188l7.3-.36A2.967,2.967,0,0,1,477.875,444l.312,4.56Z" transform="translate(-351.062 -85.088)" fill="url(#linear-gradient-8)"/>
      <path id="Path_201" data-name="Path 201" d="M451.283,302.453l0-.006-38.91-29.956-.006.007A11.23,11.23,0,1,0,399.709,291l0,0,42.017,25.416v0a8.475,8.475,0,0,0,9.558-13.967Z" transform="translate(-369.62 -155.068)" fill="#2b8fe5"/>
      <path id="Path_202" data-name="Path 202" d="M430.553,260.359h0a14.342,14.342,0,1,0-27.387-8.229s-4.845,22.121-8.628,39.445l.013,0a11.117,11.117,0,0,0-.255,1.8,11.234,11.234,0,0,0,21.7,4.647h0l.037-.1c.01-.027.021-.053.03-.078C422.386,281.487,422.417,281.406,430.553,260.359Z" transform="translate(-369.623 -167.466)" fill="#2b8fe5"/>
      <path id="Path_203" data-name="Path 203" d="M404.213,464.2a7.4,7.4,0,0,1-4.507-7.815l8.067-60.7a7.4,7.4,0,0,1,14.67,1.949l-8.067,60.705a7.406,7.406,0,0,1-10.163,5.865Z" transform="translate(-367.355 -104.715)" fill="#2b8fe5"/>
      <path id="Path_204" data-name="Path 204" d="M458.376,493.563c.7-8,15.355-164.333,15.355-164.333l.1-1.148.12-1.328c.05-.552.087-1.111.087-1.679a18.156,18.156,0,0,0-36.312-.017s.734,162.7.652,168.86S457.674,501.56,458.376,493.563Z" transform="translate(-351.256 -139.526)" fill="#172b36"/>
      <path id="Path_205" data-name="Path 205" d="M419.391,495.453c2.447-9.814,36.049-163.674,36.049-163.674l.608-2.813A18.129,18.129,0,0,0,438.32,306.92a18.164,18.164,0,0,0-18,15.882l-.209,1.545C402.4,458.341,399.347,490.284,398.863,496,398.331,502.3,417.7,502.218,419.391,495.453Z" transform="translate(-367.688 -139.526)" fill="#172b36"/>
      <path id="Path_206" data-name="Path 206" d="M496.682,259.681a9.8,9.8,0,0,1-5.728-15.347l1-1.367,17.523-23.9A7.044,7.044,0,0,1,522.1,224.7a7.248,7.248,0,0,1-.555,1.551l-.556,1.138-12.648,25.66-.7,1.4A9.753,9.753,0,0,1,496.682,259.681Z" transform="translate(-329.552 -177.924)" fill="url(#linear-gradient-14)"/>
      <path id="Path_207" data-name="Path 207" d="M523.824,247.914a11.232,11.232,0,0,0-11.348-10.941v-.007l-50.742.524v.01c-.074,0-.147-.007-.221-.006a14.351,14.351,0,1,0,.736,28.693,14.706,14.706,0,0,0,1.534-.124h0l50.229-6.715.031,0,.037,0v0A11.236,11.236,0,0,0,523.824,247.914Z" transform="translate(-347.108 -169.101)" fill="#0f8efc"/>
      <path id="Path_208" data-name="Path 208" d="M522.928,227.011c1.852-4.3-12.323-11.25-15.11-6.9h0l-.018.026-.047.065c-7.931,10.813-7.962,10.857-18.527,25.266h0a11.231,11.231,0,1,0,19.131,11.606l.007.006C516.285,241.011,522.4,228.238,522.928,227.011Z" transform="translate(-330.402 -176.809)" fill="#0f8efc"/>
      <path id="Path_209" data-name="Path 209" d="M401.747,251.327c1.32-2.389,13.569-16.506,39.8-18.789s38.583,8.252,38.583,8.252,8.828,98.259,9.094,110.757S417.83,369.59,418.1,355.2s1.308-54.741,1.308-54.741S400.2,254.136,401.747,251.327Z" transform="translate(-366.501 -171.11)" fill="#2b8fe5"/>
    </g>
    <g id="plant" transform="translate(889.216 520.982)">
      <ellipse id="Ellipse_11" data-name="Ellipse 11" cx="43.317" cy="14.154" rx="43.317" ry="14.154" transform="translate(63.863 233.03)" fill="#004fa0" opacity="0.4"/>
      <ellipse id="Ellipse_12" data-name="Ellipse 12" cx="43.316" cy="14.154" rx="43.316" ry="14.154" transform="translate(61.129 229.837)" fill="url(#linear-gradient-2)"/>
      <g id="Group_65" data-name="Group 65" transform="translate(67.747 231.521)">
        <path id="Path_210" data-name="Path 210" d="M294.087,494.56c-20.578,0-36.7-5.478-36.7-12.471s16.12-12.471,36.7-12.471,36.7,5.478,36.7,12.471S314.665,494.56,294.087,494.56Zm0-23.518c-21.1,0-35.275,5.712-35.275,11.048s14.174,11.048,35.275,11.048,35.276-5.712,35.276-11.048S315.188,471.042,294.087,471.042Z" transform="translate(-257.389 -469.619)" fill="#fff"/>
      </g>
      <ellipse id="Ellipse_13" data-name="Ellipse 13" cx="22.089" cy="7.218" rx="22.089" ry="7.218" transform="translate(82.356 236.773)" fill="#7c96c4" opacity="0.2"/>
      <path id="Path_211" data-name="Path 211" d="M296.561,505.861h-.81c-22.128,0-40.067-17.358-40.067-38.769V423.784h80.943v43.308C336.628,488.5,318.69,505.861,296.561,505.861Z" transform="translate(-190.362 -257.476)" fill="url(#linear-gradient-2)"/>
      <ellipse id="Ellipse_14" data-name="Ellipse 14" cx="40.471" cy="9.672" rx="40.471" ry="9.672" transform="translate(65.323 156.637)" fill="#b3cdfa"/>
      <path id="Path_212" data-name="Path 212" d="M334.9,426.278c0,2.234-6.061,5.037-16.76,6.758-.341.057-.711.114-1.067.171-2.077.313-4.325.583-6.716.8-.37.043-.754.085-1.138.114-3.287.27-6.872.455-10.7.512-.356.014-.711.014-1.081.014-.555.014-1.11.014-1.679.014a150.5,150.5,0,0,1-17.244-.925c-.384-.028-.754-.085-1.124-.128-13.175-1.622-20.773-4.823-20.773-7.327,0-2.276,6.289-5.136,17.344-6.858.356-.057.711-.1,1.067-.156a145.416,145.416,0,0,1,20.73-1.366c1.551,0,3.073.014,4.553.057l1.053.043a136.7,136.7,0,0,1,13.787,1.081,3.569,3.569,0,0,1,.384.057c.256.028.512.071.754.1a2.619,2.619,0,0,1,.327.057C328.258,420.985,334.9,423.945,334.9,426.278Z" transform="translate(-189.966 -259.965)" fill="url(#linear-gradient-17)"/>
      <path id="Path_213" data-name="Path 213" d="M298.549,442.152c2.494,2.932,24.669-.279,36.734-8.077s11.361-13.461,16.272-18.748,12.648-6.808,17.11-13.837c6.464-10.187,5.671-29.605.629-30.854-3.725-.922-6.913,10.725-18.153,13.051s-24.544.669-38,12.705C301.077,407.183,293.74,436.5,298.549,442.152Z" transform="translate(-172.871 -279.967)" fill="url(#linear-gradient-18)"/>
      <g id="Group_66" data-name="Group 66" transform="translate(119.254 90.138)">
        <path id="Path_214" data-name="Path 214" d="M294.729,454.149c.569-1.864,1.153-3.671,1.764-5.35a76.721,76.721,0,0,1,3.529-8.167c.2-.427.413-.839.64-1.252.085-.185.185-.37.285-.541,14.726-27.829,42.6-41.218,55.232-47.293,1.565-.754,2.874-1.38,3.842-1.892a20.357,20.357,0,0,0,11.268-18.923.54.54,0,0,0-.583-.484.53.53,0,0,0-.47.583,19.307,19.307,0,0,1-10.713,17.884c-.967.5-2.248,1.124-3.813,1.878-12.506,6-39.823,19.122-54.9,46.254q-.491.854-.939,1.75c-.114.2-.228.413-.342.626a81.928,81.928,0,0,0-4.026,9.22c-.669,1.821-1.309,3.785-1.907,5.819Z" transform="translate(-293.591 -370.248)" fill="#b3cdfa"/>
      </g>
      <g id="Group_67" data-name="Group 67" transform="translate(188.76 103.69)">
        <path id="Path_215" data-name="Path 215" d="M345.294,383.265a21.344,21.344,0,0,1-2.382-.121.533.533,0,0,1,.128-1.058c.071.01,7.107.815,10.7-2.187a.533.533,0,1,1,.683.82C351.839,382.876,347.837,383.265,345.294,383.265Z" transform="translate(-342.443 -379.773)" fill="#b3cdfa"/>
      </g>
      <g id="Group_68" data-name="Group 68" transform="translate(173.479 103.625)">
        <path id="Path_216" data-name="Path 216" d="M333.052,390.93a.529.529,0,0,1-.468-.277c-2.42-4.431.9-10.4,1.039-10.655a.534.534,0,0,1,.929.526c-.031.055-3.167,5.708-1.032,9.617a.534.534,0,0,1-.468.79Z" transform="translate(-331.703 -379.727)" fill="#b3cdfa"/>
      </g>
      <g id="Group_69" data-name="Group 69" transform="translate(179.57 111.146)">
        <path id="Path_217" data-name="Path 217" d="M350.509,390.344c-6.95,0-13.908-4.123-14.266-4.34a.533.533,0,1,1,.551-.913c.1.061,10.42,6.169,18.056,3.5a.533.533,0,1,1,.353,1.006A14.163,14.163,0,0,1,350.509,390.344Z" transform="translate(-335.984 -385.014)" fill="#b3cdfa"/>
      </g>
      <g id="Group_70" data-name="Group 70" transform="translate(149.729 107.24)">
        <path id="Path_218" data-name="Path 218" d="M316.975,404.374a.534.534,0,0,1-.47-.279c-4.684-8.653,3.1-21.056,3.439-21.579a.533.533,0,0,1,.9.572c-.08.124-7.785,12.4-3.4,20.5a.534.534,0,0,1-.215.724A.544.544,0,0,1,316.975,404.374Z" transform="translate(-315.01 -382.268)" fill="#b3cdfa"/>
      </g>
      <g id="Group_71" data-name="Group 71" transform="translate(161.216 121.197)">
        <path id="Path_219" data-name="Path 219" d="M345.42,401.07A35.418,35.418,0,0,1,323.255,393a.534.534,0,0,1,.724-.784,34.133,34.133,0,0,0,24.587,7.63.533.533,0,1,1,.105,1.061C347.56,401.019,346.476,401.07,345.42,401.07Z" transform="translate(-323.084 -392.078)" fill="#b3cdfa"/>
      </g>
      <g id="Group_72" data-name="Group 72" transform="translate(141.953 136.326)">
        <path id="Path_220" data-name="Path 220" d="M330.733,410.649c-14,0-20.953-6.946-21.037-7.033a.533.533,0,1,1,.764-.744c.1.1,10.315,10.243,31.082,5.4a.534.534,0,1,1,.24,1.04A48.63,48.63,0,0,1,330.733,410.649Z" transform="translate(-309.545 -402.711)" fill="#b3cdfa"/>
      </g>
      <g id="Group_73" data-name="Group 73" transform="translate(132.52 119.745)">
        <path id="Path_221" data-name="Path 221" d="M306.732,415.319a.529.529,0,0,1-.4-.185c-7.7-8.9-.013-23.2.319-23.8a.534.534,0,0,1,.936.514c-.078.141-7.663,14.253-.448,22.591a.534.534,0,0,1-.4.882Z" transform="translate(-302.915 -391.057)" fill="#b3cdfa"/>
      </g>
      <g id="Group_74" data-name="Group 74" transform="translate(130.979 151.528)">
        <path id="Path_222" data-name="Path 222" d="M321.932,418.817A45.64,45.64,0,0,1,302.11,414.4a.533.533,0,1,1,.509-.936,45.114,45.114,0,0,0,30.514,2.823.534.534,0,0,1,.277,1.031A44.313,44.313,0,0,1,321.932,418.817Z" transform="translate(-301.831 -413.396)" fill="#b3cdfa"/>
      </g>
      <path id="Path_223" data-name="Path 223" d="M284.447,426.15s.948-24.722-10.78-36.239c-9.608-9.436-23.4-13.447-29.976-16.066-10.095-4.021-28.6-14.431-31.113-22.682-1.024-3.368-6.32,10.483,1.023,30.082C231.322,428.546,279.633,430.75,284.447,426.15Z" transform="translate(-209.773 -288.392)" fill="url(#linear-gradient-19)"/>
      <g id="Group_75" data-name="Group 75" transform="translate(1.612 62.329)">
        <path id="Path_224" data-name="Path 224" d="M297.845,462.142c-.384-.029-.754-.085-1.124-.128-.4-1.906-.839-3.884-1.323-5.89-.654-2.717-1.309-5.478-2.106-8.295-4.268-15.238-12.335-32-42.5-49.584-31.514-18.382-39.781-46.582-39.866-46.866a.534.534,0,0,1,1.024-.3c.085.285,8.252,28.086,39.382,46.24,30.618,17.842,38.714,34.872,43.025,50.352.783,2.789,1.437,5.52,2.077,8.209C296.948,458.016,297.418,460.107,297.845,462.142Z" transform="translate(-210.906 -350.702)" fill="#b3cdfa"/>
      </g>
      <g id="Group_76" data-name="Group 76" transform="translate(22.868 80.632)">
        <path id="Path_225" data-name="Path 225" d="M228.06,380.568a.532.532,0,0,1-.478-.295c-3.617-7.209-.482-15.985-.347-16.356a.533.533,0,1,1,1,.367c-.031.085-3.109,8.719.3,15.511a.534.534,0,0,1-.475.773Z" transform="translate(-225.846 -363.567)" fill="#b3cdfa"/>
      </g>
      <g id="Group_77" data-name="Group 77" transform="translate(12.755 73.785)">
        <path id="Path_226" data-name="Path 226" d="M220.505,371.054a.532.532,0,0,1-.494-.333c-1.97-4.829-1.077-11.237-1.039-11.507a.526.526,0,0,1,.6-.452.533.533,0,0,1,.452.6c-.009.063-.888,6.4.97,10.952a.532.532,0,0,1-.292.7A.526.526,0,0,1,220.505,371.054Z" transform="translate(-218.738 -358.754)" fill="#b3cdfa"/>
      </g>
      <g id="Group_78" data-name="Group 78" transform="translate(38.354 87.279)">
        <path id="Path_227" data-name="Path 227" d="M240.149,390.9a.534.534,0,0,1-.457-.258c-5.428-8.975-1.767-21.491-1.609-22.019a.534.534,0,0,1,1.023.306c-.038.125-3.681,12.6,1.5,21.159a.534.534,0,0,1-.455.811Z" transform="translate(-236.73 -368.239)" fill="#b3cdfa"/>
      </g>
      <g id="Group_79" data-name="Group 79" transform="translate(53.311 96.344)">
        <path id="Path_228" data-name="Path 228" d="M249.638,397.34a.536.536,0,0,1-.491-.322,21.812,21.812,0,0,1,2.676-22.225.531.531,0,0,1,.753-.051.537.537,0,0,1,.05.754,20.732,20.732,0,0,0-2.5,21.1.534.534,0,0,1-.279.7A.527.527,0,0,1,249.638,397.34Z" transform="translate(-247.243 -374.61)" fill="#b3cdfa"/>
      </g>
      <g id="Group_80" data-name="Group 80" transform="translate(67.086 115.788)">
        <path id="Path_229" data-name="Path 229" d="M257.762,402.316a.533.533,0,0,1-.522-.424,14.725,14.725,0,0,1,4.227-13.479.534.534,0,0,1,.711.8c-.056.048-5.461,5.012-3.894,12.465a.533.533,0,0,1-.413.632A.585.585,0,0,1,257.762,402.316Z" transform="translate(-256.924 -388.276)" fill="#b3cdfa"/>
      </g>
      <g id="Group_81" data-name="Group 81" transform="translate(1.481 85.995)">
        <path id="Path_230" data-name="Path 230" d="M227.544,371.921a.525.525,0,0,1-.357-.137c-5.963-5.364-15.6-2.7-15.693-2.676a.533.533,0,1,1-.292-1.024c.417-.118,10.3-2.844,16.7,2.907a.534.534,0,0,1-.357.93Z" transform="translate(-210.814 -367.336)" fill="#b3cdfa"/>
      </g>
      <g id="Group_82" data-name="Group 82" transform="translate(8.697 100.281)">
        <path id="Path_231" data-name="Path 231" d="M216.42,382.051a.534.534,0,0,1-.262-1c.413-.23,10.253-5.614,21.434-2.921a.531.531,0,0,1,.394.643.525.525,0,0,1-.643.393c-10.765-2.592-20.568,2.764-20.664,2.817A.539.539,0,0,1,216.42,382.051Z" transform="translate(-215.885 -377.377)" fill="#b3cdfa"/>
      </g>
      <g id="Group_83" data-name="Group 83" transform="translate(19.816 111.266)">
        <path id="Path_232" data-name="Path 232" d="M224.233,393.511a.534.534,0,0,1-.333-.95c.118-.094,12-9.436,26.428-7.083a.533.533,0,0,1,.441.612.543.543,0,0,1-.612.441c-13.967-2.276-25.476,6.772-25.591,6.863A.523.523,0,0,1,224.233,393.511Z" transform="translate(-223.7 -385.098)" fill="#b3cdfa"/>
      </g>
      <g id="Group_84" data-name="Group 84" transform="translate(41.068 124.294)">
        <path id="Path_233" data-name="Path 233" d="M239.17,404.22a.533.533,0,0,1-.387-.9c.425-.451,10.577-11.029,22.594-8.742a.533.533,0,1,1-.2,1.047c-11.452-2.165-21.519,8.32-21.62,8.428A.527.527,0,0,1,239.17,404.22Z" transform="translate(-238.637 -394.255)" fill="#b3cdfa"/>
      </g>
      <path id="Path_234" data-name="Path 234" d="M301.774,413.395s-6.986-23.8,1.581-37.681c7.019-11.372,19.431-18.435,25.177-22.491,8.821-6.225,24.247-20.589,24.659-29.181.169-3.506,8.71,8.733,6.387,29.459C353.967,403.52,307.579,416.758,301.774,413.395Z" transform="translate(-172.012 -299.896)" fill="url(#linear-gradient-20)"/>
      <g id="Group_85" data-name="Group 85" transform="translate(124.905 23.55)">
        <path id="Path_235" data-name="Path 235" d="M300.833,472.968c-.555-3.77-1.11-8.423-1.522-13.744l-.043-.6c-.057-.655-.1-1.309-.142-1.992v-.014c-.242-3.571-.4-7.413-.455-11.468-.228-17.827-.484-38.031,29.124-66.472,26.108-25.1,27.232-54.393,27.232-54.691a.516.516,0,0,0-.512-.541.5.5,0,0,0-.555.512c0,.285-1.124,29.167-26.9,53.952-29.935,28.754-29.679,49.214-29.451,67.254.057,4.709.27,9.148.583,13.218-.014.014,0,.014,0,.014,0,.228.028.441.043.669.028.455.071.911.114,1.352v.014c.4,4.88.925,9.177,1.423,12.705Z" transform="translate(-297.563 -323.446)" fill="#b3cdfa"/>
      </g>
      <g id="Group_86" data-name="Group 86" transform="translate(163.833 46.523)">
        <path id="Path_236" data-name="Path 236" d="M329.053,356.215a.557.557,0,0,1-.118-.013.533.533,0,0,1-.4-.636c1.645-7.384-3.464-15.064-3.516-15.141a.533.533,0,0,1,.884-.6c.222.329,5.419,8.133,3.674,15.969A.534.534,0,0,1,329.053,356.215Z" transform="translate(-324.923 -339.593)" fill="#b3cdfa"/>
      </g>
      <g id="Group_87" data-name="Group 87" transform="translate(173.072 37.294)">
        <path id="Path_237" data-name="Path 237" d="M333.731,345.312a.452.452,0,0,1-.075-.006.533.533,0,0,1-.454-.6c.69-4.859-1.72-10.8-1.744-10.861a.533.533,0,0,1,.986-.405c.105.255,2.545,6.273,1.814,11.418A.532.532,0,0,1,333.731,345.312Z" transform="translate(-331.417 -333.106)" fill="#b3cdfa"/>
      </g>
      <g id="Group_88" data-name="Group 88" transform="translate(150.446 56.534)">
        <path id="Path_238" data-name="Path 238" d="M319.835,369.025a.505.505,0,0,1-.158-.023.534.534,0,0,1-.353-.667c2.93-9.508-3.668-20.787-3.735-20.9a.533.533,0,1,1,.916-.545c.283.477,6.909,11.793,3.839,21.758A.534.534,0,0,1,319.835,369.025Z" transform="translate(-315.514 -346.629)" fill="#b3cdfa"/>
      </g>
      <g id="Group_89" data-name="Group 89" transform="translate(135.111 69.49)">
        <path id="Path_239" data-name="Path 239" d="M313.1,377.254a.576.576,0,0,1-.085-.007.535.535,0,0,1-.442-.613,20.942,20.942,0,0,0-7.609-19.929.533.533,0,0,1,.615-.872,22.077,22.077,0,0,1,8.049,20.973A.534.534,0,0,1,313.1,377.254Z" transform="translate(-304.736 -355.735)" fill="#b3cdfa"/>
      </g>
      <g id="Group_90" data-name="Group 90" transform="translate(126.582 91.525)">
        <path id="Path_240" data-name="Path 240" d="M306.4,383.957a.533.533,0,0,1-.532-.512c-.307-7.6-6.781-11.184-6.846-11.22a.533.533,0,1,1,.505-.939,14.972,14.972,0,0,1,7.407,12.118.535.535,0,0,1-.512.553Z" transform="translate(-298.741 -371.222)" fill="#b3cdfa"/>
      </g>
      <g id="Group_91" data-name="Group 91" transform="translate(172.372 47.211)">
        <path id="Path_241" data-name="Path 241" d="M331.457,347.581a.535.535,0,0,1-.44-.834c4.8-7.064,15.079-6.673,15.512-6.664a.533.533,0,0,1,.509.556.552.552,0,0,1-.556.511c-.1-.016-10.117-.366-14.583,6.2A.538.538,0,0,1,331.457,347.581Z" transform="translate(-330.925 -340.077)" fill="#b3cdfa"/>
      </g>
      <g id="Group_92" data-name="Group 92" transform="translate(163.471 64.604)">
        <path id="Path_242" data-name="Path 242" d="M325.2,356.36a.54.54,0,0,1-.477-.292.534.534,0,0,1,.235-.717c10.2-5.186,21.08-2.217,21.538-2.087a.535.535,0,0,1,.368.659.542.542,0,0,1-.659.37c-.107-.031-10.944-2.982-20.764,2.009A.531.531,0,0,1,325.2,356.36Z" transform="translate(-324.669 -352.301)" fill="#b3cdfa"/>
      </g>
      <g id="Group_93" data-name="Group 93" transform="translate(150.457 79.341)">
        <path id="Path_243" data-name="Path 243" d="M343.031,366.791a.55.55,0,0,1-.225-.05c-.134-.061-13.549-6.2-26.546-.79a.533.533,0,1,1-.41-.985c13.442-5.6,27.27.744,27.408.807a.534.534,0,0,1-.228,1.017Z" transform="translate(-315.522 -362.659)" fill="#b3cdfa"/>
      </g>
      <g id="Group_94" data-name="Group 94" transform="translate(136.785 96.601)">
        <path id="Path_244" data-name="Path 244" d="M330.026,380.708a.527.527,0,0,1-.289-.087c-.125-.08-12.5-7.956-23.073-3.224a.533.533,0,1,1-.437-.972c11.112-4.977,23.565,2.961,24.09,3.3a.534.534,0,0,1-.292.982Z" transform="translate(-305.912 -374.79)" fill="#b3cdfa"/>
      </g>
      <path id="Path_245" data-name="Path 245" d="M257.695,328.941s13.952,25.274,25.229,34.724c14.911,12.5,30.806,40.683,24,70.567C303.309,450.1,295.057,453.6,295.057,453.6s-7.632-22.377-15.349-30.535-16.167-15.367-18.623-35.386S257.695,328.941,257.695,328.941Z" transform="translate(-189.512 -297.573)" fill="url(#linear-gradient-18)"/>
      <g id="Group_95" data-name="Group 95" transform="translate(66.423 9.063)">
        <path id="Path_246" data-name="Path 246" d="M293.493,479.333a163.78,163.78,0,0,0,2.846-16.632c1.28-10.955,1.366-22.494-.882-33.393-3.386-16.376-11.752-28.783-19.833-40.777-4.439-6.573-8.636-12.8-11.781-19.378-8.75-18.24-5.876-54.947-5.848-55.317a.528.528,0,1,0-1.053-.085c-.043.37-2.931,37.362,5.933,55.858,3.187,6.659,7.4,12.9,11.866,19.52,8.024,11.909,16.319,24.216,19.663,40.407,2.234,10.8,2.148,22.252.882,33.122a164.847,164.847,0,0,1-2.874,16.689Z" transform="translate(-256.459 -313.264)" fill="#b3cdfa"/>
      </g>
      <g id="Group_96" data-name="Group 96" transform="translate(78.787 54.334)">
        <path id="Path_247" data-name="Path 247" d="M267.318,369.639a.533.533,0,0,1-.494-.331c-4.388-10.772,1.2-23.38,1.44-23.911a.533.533,0,1,1,.972.44c-.057.127-5.637,12.727-1.424,23.069a.533.533,0,0,1-.292.7A.559.559,0,0,1,267.318,369.639Z" transform="translate(-265.148 -345.083)" fill="#b3cdfa"/>
      </g>
      <g id="Group_97" data-name="Group 97" transform="translate(88.644 65.56)">
        <path id="Path_248" data-name="Path 248" d="M273.924,380.638a.535.535,0,0,1-.507-.363c-4.159-12.463,2.656-26.419,2.948-27.007a.534.534,0,0,1,.956.475c-.07.141-6.909,14.154-2.893,26.192a.533.533,0,0,1-.337.676A.494.494,0,0,1,273.924,380.638Z" transform="translate(-272.076 -352.973)" fill="#b3cdfa"/>
      </g>
      <g id="Group_98" data-name="Group 98" transform="translate(98.063 82.261)">
        <path id="Path_249" data-name="Path 249" d="M280.2,391.984a.531.531,0,0,1-.5-.354c-4.472-12.5,7.487-26.163,8-26.74a.534.534,0,0,1,.8.708c-.121.137-12.048,13.767-7.791,25.673a.535.535,0,0,1-.323.683A.567.567,0,0,1,280.2,391.984Z" transform="translate(-278.697 -364.711)" fill="#b3cdfa"/>
      </g>
      <g id="Group_99" data-name="Group 99" transform="translate(104.23 105.514)">
        <path id="Path_250" data-name="Path 250" d="M283.7,401.3a.535.535,0,0,1-.529-.468C281.5,387.7,295.56,381.167,295.7,381.1a.534.534,0,0,1,.44.973c-.134.061-13.481,6.277-11.916,18.62a.534.534,0,0,1-.461.6A.582.582,0,0,1,283.7,401.3Z" transform="translate(-283.031 -381.055)" fill="#b3cdfa"/>
      </g>
      <g id="Group_100" data-name="Group 100" transform="translate(106.325 129.252)">
        <path id="Path_251" data-name="Path 251" d="M285.038,411.92l-.028,0a.531.531,0,0,1-.505-.559c.566-10.762,12.027-13.576,12.142-13.6a.534.534,0,0,1,.245,1.04c-.441.1-10.8,2.666-11.321,12.62A.536.536,0,0,1,285.038,411.92Z" transform="translate(-284.503 -397.739)" fill="#b3cdfa"/>
      </g>
      <g id="Group_101" data-name="Group 101" transform="translate(68.857 88.459)">
        <path id="Path_252" data-name="Path 252" d="M281.371,376.308a.533.533,0,0,1-.437-.228c-6.307-8.948-21.943-5.084-22.1-5.044A.534.534,0,0,1,258.57,370c.672-.171,16.51-4.078,23.237,5.465a.535.535,0,0,1-.435.841Z" transform="translate(-258.169 -369.068)" fill="#b3cdfa"/>
      </g>
      <g id="Group_102" data-name="Group 102" transform="translate(75.621 106.299)">
        <path id="Path_253" data-name="Path 253" d="M288.483,388.66a.534.534,0,0,1-.465-.272c-5.789-10.245-24.19-3.486-24.374-3.413a.534.534,0,0,1-.376-1c.792-.294,19.445-7.139,25.678,3.888a.535.535,0,0,1-.464.8Z" transform="translate(-262.923 -381.606)" fill="#b3cdfa"/>
      </g>
      <g id="Group_103" data-name="Group 103" transform="translate(90.408 125.279)">
        <path id="Path_254" data-name="Path 254" d="M288.874,401.943a.532.532,0,0,1-.492-.327c-3.328-7.925-14.283-5.133-14.4-5.109a.533.533,0,1,1-.272-1.03c.121-.034,11.963-3.058,15.652,5.725a.536.536,0,0,1-.492.741Z" transform="translate(-273.316 -394.947)" fill="#b3cdfa"/>
      </g>
      <path id="Path_255" data-name="Path 255" d="M259.963,306.894s11.079,24.553,9.046,46.873-3.614,55.416,3.422,67.461a40.49,40.49,0,0,1-11.1-27.949c-.12-17.759.59-26.385-4.015-32.94S245.915,319.813,259.963,306.894Z" transform="translate(-192.106 -306.894)" fill="#172b36"/>
    </g>
    <g id="woman" transform="translate(1377.089 493.354)">
      <path id="Path_256" data-name="Path 256" d="M662.171,350.481c-.553-.009-11.044-9.178-11.044-9.178l2.892-10.709s9,3.5,9.319,7.212S666.069,350.535,662.171,350.481Z" transform="translate(-511.053 -269.247)" fill="url(#linear-gradient-22)"/>
      <g id="Group_104" data-name="Group 104" transform="translate(77.368 40.596)">
        <path id="Path_257" data-name="Path 257" d="M677.084,359.31h-54.56a4.393,4.393,0,0,1-3.908-2.992L607.192,319a2.137,2.137,0,0,1,2.077-2.992h54.56A4.4,4.4,0,0,1,667.738,319l11.422,37.316A2.136,2.136,0,0,1,677.084,359.31Z" transform="translate(-607.054 -316.009)" fill="#005ff0"/>
        <path id="Path_258" data-name="Path 258" d="M621.6,357.37a2.2,2.2,0,0,1-1.955-1.5l-11.422-37.316a1.069,1.069,0,0,1,1.037-1.5h54.562a2.2,2.2,0,0,1,1.953,1.5L677.2,355.873a1.07,1.07,0,0,1-1.039,1.5Z" transform="translate(-606.589 -315.564)" fill="#b3cdfa"/>
        <path id="Path_259" data-name="Path 259" d="M641.125,346.391h-6.1a.543.543,0,0,1-.484-.37l0-.007a.265.265,0,0,1,.258-.371h6.1a.544.544,0,0,1,.484.371l0,.007A.264.264,0,0,1,641.125,346.391Z" transform="translate(-595.443 -303.481)" fill="#b3cdfa"/>
      </g>
      <g id="Group_105" data-name="Group 105" transform="translate(89.057 56.04)">
        <path id="Path_260" data-name="Path 260" d="M623.407,339.276a8.835,8.835,0,0,1-7.857-6,5.135,5.135,0,0,1,.591-4.6,4.688,4.688,0,0,1,3.9-1.811,8.844,8.844,0,0,1,7.859,6,5.148,5.148,0,0,1-.592,4.605A4.7,4.7,0,0,1,623.407,339.276Zm-3.364-10.99a3.3,3.3,0,0,0-2.759,1.235,3.684,3.684,0,0,0-.373,3.339,7.323,7.323,0,0,0,6.495,4.993,3.309,3.309,0,0,0,2.76-1.234,3.7,3.7,0,0,0,.374-3.342A7.328,7.328,0,0,0,620.044,328.287Z" transform="translate(-615.27 -326.864)" fill="#fff"/>
      </g>
      <g id="Group_106" data-name="Group 106" transform="translate(88.345 55.329)">
        <path id="Path_261" data-name="Path 261" d="M615.082,333.7a5.841,5.841,0,0,1,.7-5.236,5.385,5.385,0,0,1,4.475-2.1v2.846a2.616,2.616,0,0,0-2.187.946,3.009,3.009,0,0,0-.265,2.709Z" transform="translate(-614.769 -326.364)" fill="#005ff0"/>
      </g>
      <g id="Group_107" data-name="Group 107" transform="translate(107.034 56.04)">
        <path id="Path_262" data-name="Path 262" d="M636.043,339.276a8.839,8.839,0,0,1-7.858-6,5.143,5.143,0,0,1,.592-4.6,4.69,4.69,0,0,1,3.9-1.81,8.837,8.837,0,0,1,7.857,6,5.133,5.133,0,0,1-.59,4.6A4.688,4.688,0,0,1,636.043,339.276Zm-3.363-10.99a3.311,3.311,0,0,0-2.76,1.233,3.692,3.692,0,0,0-.373,3.341,7.325,7.325,0,0,0,6.5,4.993,3.306,3.306,0,0,0,2.76-1.235,3.69,3.69,0,0,0,.371-3.341A7.322,7.322,0,0,0,632.68,328.287Z" transform="translate(-627.905 -326.864)" fill="#fff"/>
      </g>
      <g id="Group_108" data-name="Group 108" transform="translate(106.322 55.329)">
        <path id="Path_263" data-name="Path 263" d="M627.717,333.7a5.844,5.844,0,0,1,.7-5.236,5.39,5.39,0,0,1,4.476-2.1v2.846a2.616,2.616,0,0,0-2.187.946,3,3,0,0,0-.267,2.709Z" transform="translate(-627.405 -326.364)" fill="#005ff0"/>
      </g>
      <g id="Group_109" data-name="Group 109" transform="translate(125.011 56.04)">
        <path id="Path_264" data-name="Path 264" d="M648.678,339.276a8.834,8.834,0,0,1-7.857-6,5.131,5.131,0,0,1,.591-4.6,4.688,4.688,0,0,1,3.9-1.811,8.842,8.842,0,0,1,7.858,6,5.144,5.144,0,0,1-.592,4.605A4.69,4.69,0,0,1,648.678,339.276Zm-3.363-10.99a3.306,3.306,0,0,0-2.76,1.235,3.684,3.684,0,0,0-.371,3.339,7.32,7.32,0,0,0,6.5,4.993,3.3,3.3,0,0,0,2.759-1.234,3.693,3.693,0,0,0,.374-3.342A7.327,7.327,0,0,0,645.315,328.287Z" transform="translate(-640.54 -326.864)" fill="#fff"/>
      </g>
      <g id="Group_110" data-name="Group 110" transform="translate(124.3 55.329)">
        <path id="Path_265" data-name="Path 265" d="M640.353,333.7a5.845,5.845,0,0,1,.7-5.236,5.386,5.386,0,0,1,4.476-2.1v2.846a2.616,2.616,0,0,0-2.187.946,3.009,3.009,0,0,0-.266,2.709Z" transform="translate(-640.04 -326.364)" fill="#005ff0"/>
      </g>
      <path id="Path_266" data-name="Path 266" d="M623.473,332.7h-4.956l-.7-2.271h4.956Z" transform="translate(-525.134 -269.317)" fill="#fff" opacity="0.5"/>
      <path id="Path_267" data-name="Path 267" d="M636.108,332.7h-4.956l-.7-2.271h4.956Z" transform="translate(-519.792 -269.317)" fill="#fff" opacity="0.5"/>
      <path id="Path_268" data-name="Path 268" d="M648.743,332.7h-4.956l-.7-2.271h4.956Z" transform="translate(-514.45 -269.317)" fill="#fff" opacity="0.5"/>
      <path id="Path_269" data-name="Path 269" d="M680.838,355.477c-3.358-2-6.569-4.012-9.339-5.96l-3.217-2.947s-3.837-12.579-4.791-13.673-9.528-4.419-9.528-4.419l1.329,4.423c-1.5-.649-3.583-1.835-3.715-1.9-.388-.195-2.574,1.663-.1,3.426a56.531,56.531,0,0,0,6.015,3.565s2.679,10.9,4.243,13.972c.693,1.357,9.057,11.4,19.1,21.067Z" transform="translate(-511.397 -270.141)" fill="url(#linear-gradient-23)"/>
      <ellipse id="Ellipse_15" data-name="Ellipse 15" cx="76.4" cy="18.309" rx="76.4" ry="18.309" transform="translate(0 258.056)" fill="#ecf3ff"/>
      <ellipse id="Ellipse_16" data-name="Ellipse 16" cx="45.528" cy="10.911" rx="45.528" ry="10.911" transform="translate(150.508 276.892)" fill="#ecf3ff"/>
      <path id="Path_270" data-name="Path 270" d="M636.589,497.306a7.5,7.5,0,0,1-9.626-3.789,6.871,6.871,0,0,1-.38-1.175l-.592-2.518h-.006l-17.119-73.269-.72-3.139A10.837,10.837,0,0,1,614.93,400.9a11.7,11.7,0,0,1,15.02,5.912,10.633,10.633,0,0,1,.788,2.887l.381,2.949h.008L640.71,487.2l.347,2.757A7.008,7.008,0,0,1,636.589,497.306Z" transform="translate(-529.343 -239.88)" fill="url(#linear-gradient-24)"/>
      <path id="Path_271" data-name="Path 271" d="M643.034,462.171l-.711-4.459-9.846,2.78-.9,3.587-2.8-2.541-8.791,2.481-.182,18.749a4.172,4.172,0,0,1-1.966,3.47l-7.972,5.075a2.176,2.176,0,0,0-.942,2.483l.01.035a2.336,2.336,0,0,0,2.555,1.574l16.793-2.229a4.442,4.442,0,0,0,3.082-1.86l6.777-9.847,3.248,8.76,4.749-1.342,1.909-19.177Z" transform="translate(-528.938 -215.505)" fill="url(#linear-gradient-25)"/>
      <path id="Path_272" data-name="Path 272" d="M629.427,476.661l3.248,8.759,4.749-1.341,1.493-14.993Z" transform="translate(-520.227 -210.696)" fill="url(#linear-gradient-26)"/>
      <path id="Path_273" data-name="Path 273" d="M640.592,469.656l-7.376-62.088-.178-1.3-.24-1.855a12.9,12.9,0,0,0-.95-3.482,13.749,13.749,0,0,0-12.7-8.1,14.115,14.115,0,0,0-5.244,1,13.039,13.039,0,0,0-8.142,15.074l.771,3.358s11.752,50.831,14.2,60.176S641.255,475.238,640.592,469.656Z" transform="translate(-530.377 -242.935)" fill="url(#linear-gradient-27)"/>
      <path id="Path_274" data-name="Path 274" d="M680.033,311.837a11.094,11.094,0,0,1,14.211,5.762,9.982,9.982,0,0,1,.791,4.146h0c-.353,14.639-.354,14.689-.7,29.244l0,.1v.02h0a10.447,10.447,0,0,1-6.822,9.429,11.1,11.1,0,0,1-14.211-5.761,9.982,9.982,0,0,1-.791-4.147h0c.351-14.639.353-14.687.7-29.244l0-.1v-.021h0A10.453,10.453,0,0,1,680.033,311.837Z" transform="translate(-502.017 -277.499)" fill="url(#linear-gradient-28)"/>
      <path id="Path_275" data-name="Path 275" d="M678.7,336.649l.364.083c9.972,2.274,19.987-3.607,22.366-13.134l2.8-11.22c2.38-9.527-3.775-19.094-13.747-21.367l-.366-.084c-9.972-2.274-19.986,3.607-22.366,13.135l-2.8,11.219C662.567,324.809,668.722,334.376,678.7,336.649Z" transform="translate(-505.427 -286.223)" fill="url(#linear-gradient-29)"/>
      <path id="Path_276" data-name="Path 276" d="M670.5,336.489l28.3-1.211-.477-6.959a2.619,2.619,0,0,0-3.093-2.325l-19.3,3.436a6.46,6.46,0,0,0-5.431,7Z" transform="translate(-502.879 -271.209)" fill="url(#linear-gradient-30)"/>
      <path id="Path_277" data-name="Path 277" d="M587.274,502.278a7.21,7.21,0,0,1-7.361-7.033,6.748,6.748,0,0,1,.122-1.224l.467-2.542h-.007l13.68-73.924.6-3.163a11.534,11.534,0,0,1,22.787,1.911,10.556,10.556,0,0,1-.435,2.954l-.835,2.863.01,0-21.155,72.344-.79,2.673A7.334,7.334,0,0,1,587.274,502.278Z" transform="translate(-541.161 -237.652)" fill="url(#linear-gradient-31)"/>
      <path id="Path_278" data-name="Path 278" d="M604.813,469.647l.522-3.917-18.8-2.225-9.4,17.137c-.575,1.285-2.928,2.318-4.364,2.585l-9.4,1.759a2.269,2.269,0,0,0-1.87,1.946l0,.036a2.231,2.231,0,0,0,1.724,2.39l16.4,4.11a4.592,4.592,0,0,0,3.593-.586l10.219-6.6-.526,9.278,4.924.507,9.48-17Z" transform="translate(-548.952 -213.056)" fill="url(#linear-gradient-32)"/>
      <path id="Path_279" data-name="Path 279" d="M584.1,480.556l-.527,9.279,4.924.506,7.411-13.293Z" transform="translate(-539.615 -207.33)" fill="url(#linear-gradient-33)"/>
      <path id="Path_280" data-name="Path 280" d="M732.6,406.649v-.435a20.154,20.154,0,0,0-22.076-20.063l-103.474,9.91-.257.043c-.366.044-.727.1-1.083.165l-.249.056c-.333.071-.666.149-1,.245l-.286.09c-.3.092-.6.194-.9.309l-.332.134c-.262.11-.522.222-.8.356l-.381.195c-.223.115-.444.238-.664.367-.154.091-.3.185-.443.275-.184.119-.366.242-.544.368s-.333.242-.488.363-.288.229-.435.354c-.181.152-.357.307-.522.458l-.319.314c-.192.188-.377.383-.551.573l-.212.248c-.2.232-.388.467-.57.71l-.118.167c-.2.273-.385.552-.607.918a12.9,12.9,0,0,0-1.646,4.318l-.293,1.552c-1.8,9.729-3.994,21.693-6.162,33.5-2.114,11.516-5.234,29.411-6.418,35.83s17.883,10.194,19.572,5.078,17.8-59.742,17.8-59.742l92.541,3.483A20.154,20.154,0,0,0,732.6,406.649Z" transform="translate(-540.397 -245.798)" fill="url(#linear-gradient-34)"/>
      <path id="Path_281" data-name="Path 281" d="M704.793,434.465c-3.856,9.728-63.392-15.983-58.07-22.363,7.105-8.52,12.34-14.6,12.34-14.6s-3.718-52.424-.589-56.125c4.884-5.782,20.595-8.175,37.188-9.911,13.851-1.448,19.263,4.119,20.673,7.31,3.426,7.751-13.862,70.466-13.862,70.466S706.952,429.022,704.793,434.465Z" transform="translate(-513.057 -268.979)" fill="#172b36"/>
      <path id="Path_282" data-name="Path 282" d="M657.272,383.171c-4.241-3.159-22.639-18.247-29.494-24.577-2.057-2.328-3.322-3.915-3.382-4-.259-.357.283-4.063.083-5.049s-.306-5.065-.447-5.54-4.036-5.7-4.47-6.2-2.2-.5-1.685,1.453,1.807,4.218,1.1,4.282-3.038-1.978-3.28-2.294-.236-8.474-.256-9.241-2.022-2.3-2.436-.729-1.293,9.05-1.293,9.05-2.669,4.9-2.282,5.859c.085.211.266.647.266.647a3.507,3.507,0,0,0-.635,1.37,5.213,5.213,0,0,0,.595,1.628,18.214,18.214,0,0,0-.034,2.207,71.1,71.1,0,0,0,8.133,9.921c.064.055,27.636,47.24,40.649,38.778C665.776,395.942,662.02,386.706,657.272,383.171Z" transform="translate(-528.836 -269.247)" fill="url(#linear-gradient-35)"/>
      <path id="Path_283" data-name="Path 283" d="M635.481,358.321s-.982-.629-4.1-3.159-12.785,7.48-9.968,11.159c2.121,2.77,5.01,6.284,5.01,6.284Z" transform="translate(-523.831 -259.031)" fill="url(#linear-gradient-30)"/>
      <path id="Path_284" data-name="Path 284" d="M688.781,346.576a11.424,11.424,0,0,0-11.675-11.154,11.743,11.743,0,0,0-10.342,5.99l0,0c-7.912,14.458-13.421,24.527-19.139,34.979-4.11-3.122-10.782-8.256-12.415-9.45-3.783-2.764-14.394,8.8-11.2,12.89,2.059,2.639,9.836,11.729,12.8,14.5a31.12,31.12,0,0,0,8.054,5.747,9.475,9.475,0,0,0,4.391,1.067h.023c.03,0,.058-.007.087-.007a9.28,9.28,0,0,0,7.615-4.026l0,0c9.939-14.766,17.322-25.737,29.951-44.5l-.007,0A10.735,10.735,0,0,0,688.781,346.576Z" transform="translate(-522.771 -267.206)" fill="#172b36"/>
      <path id="Path_285" data-name="Path 285" d="M748.4,348.458H692.366a6.555,6.555,0,0,0-6.253,4.591L658.833,440H612.8a4.116,4.116,0,0,0-4.116,4.116v.083a4.116,4.116,0,0,0,4.116,4.116H725.995l28.657-91.343A6.553,6.553,0,0,0,748.4,348.458Z" transform="translate(-528.996 -261.694)" fill="#f7ede2"/>
      <rect id="Rectangle_3981" data-name="Rectangle 3981" width="10.158" height="70.335" transform="translate(151.106 186.622)" fill="#fff5dc"/>
      <rect id="Rectangle_3982" data-name="Rectangle 3982" width="15.181" height="11.176" transform="translate(148.673 186.622)" fill="#f0daa5"/>
      <rect id="Rectangle_3983" data-name="Rectangle 3983" width="11.523" height="37.755" transform="translate(150.502 224.049)" fill="#f7ede2"/>
      <g id="Group_111" data-name="Group 111" transform="translate(106.711 266.098)">
        <path id="Path_286" data-name="Path 286" d="M627.678,485.733a6.32,6.32,0,1,0,6.32-6.318A6.32,6.32,0,0,0,627.678,485.733Z" transform="translate(-627.678 -472.428)" fill="#172b36"/>
        <path id="Path_287" data-name="Path 287" d="M629.8,484.837a3.3,3.3,0,1,0,3.3-3.3A3.3,3.3,0,0,0,629.8,484.837Z" transform="translate(-626.781 -471.531)" fill="#fff"/>
        <rect id="Rectangle_3984" data-name="Rectangle 3984" width="2.241" height="8.137" transform="translate(2.924)" fill="#172b36"/>
      </g>
      <g id="Group_112" data-name="Group 112" transform="translate(193.019 266.098)">
        <path id="Path_288" data-name="Path 288" d="M700.978,485.733a6.319,6.319,0,1,1-6.32-6.318A6.32,6.32,0,0,1,700.978,485.733Z" transform="translate(-688.34 -472.428)" fill="#172b36"/>
        <path id="Path_289" data-name="Path 289" d="M697.064,484.837a3.3,3.3,0,1,1-3.3-3.3A3.3,3.3,0,0,1,697.064,484.837Z" transform="translate(-687.443 -471.531)" fill="#fff"/>
        <rect id="Rectangle_3985" data-name="Rectangle 3985" width="2.241" height="8.137" transform="translate(7.475)" fill="#172b36"/>
      </g>
      <g id="Group_113" data-name="Group 113" transform="translate(147.935 261.804)">
        <ellipse id="Ellipse_17" data-name="Ellipse 17" cx="6.32" cy="6.32" rx="6.32" ry="6.32" transform="translate(0 6.987)" fill="#172b36"/>
        <path id="Path_290" data-name="Path 290" d="M665.376,481.819a3.3,3.3,0,1,1-3.3-3.3A3.3,3.3,0,0,1,665.376,481.819Z" transform="translate(-655.755 -468.513)" fill="#fff"/>
        <rect id="Rectangle_3986" data-name="Rectangle 3986" width="2.241" height="8.137" transform="translate(7.476)" fill="#172b36"/>
      </g>
      <path id="Path_291" data-name="Path 291" d="M629.733,482.974l40.788-9.15v-7.773l-40.788,11.527Z" transform="translate(-520.098 -211.979)" fill="#f7ede2"/>
      <path id="Path_292" data-name="Path 292" d="M707.344,482.974l-40.788-9.15v-7.773l40.788,11.527Z" transform="translate(-504.53 -211.979)" fill="#f7ede2"/>
      <path id="Path_293" data-name="Path 293" d="M646.283,426.178l.467-1.487h69.77l-.467,1.487Zm7.656-24.4-.467,1.487h69.77l.467-1.487Zm-3.594,11.459-.467,1.485h69.768l.467-1.485Zm14.379-45.83-.467,1.485h69.768l.467-1.485Zm3.594-11.459-.467,1.487h69.77l.467-1.487Zm-7.189,22.917-.467,1.487h69.77l.467-1.487Zm-3.6,11.458-.465,1.487h69.768l.467-1.487Z" transform="translate(-513.101 -258.529)" fill="#f0daa5"/>
      <path id="Path_294" data-name="Path 294" d="M707.044,315.981c-.081,0-.159.011-.241.011.155-1.409.3-2.769.411-4.039,1.108-12.244-4.786-18.324-12.694-20.521l-1.8-.5-.343-.1L685.768,289a12.273,12.273,0,0,0-2.605-1.067,12.09,12.09,0,0,0-14.8,7.629l7.777,2.161c-1.636,3.905-1.636,12.219,4.059,15.646a4.2,4.2,0,0,1,2.39,8.047c.642,1.565,8.059,53.936,24.455,53.936a29.686,29.686,0,1,0,0-59.372Z" transform="translate(-503.767 -287.476)" fill="url(#linear-gradient-37)"/>
    </g>
    <g id="Group_118" data-name="Group 118" transform="translate(1038.302 321.814)">
      <path id="Path_303" data-name="Path 303" d="M61.2,62.09H75.766v4.78H61.2Z" transform="translate(-61.203 -62.09)" fill="#092772"/>
      <path id="Path_304" data-name="Path 304" d="M61.2,72.234H75.766v4.78H61.2Z" transform="translate(-61.203 -63.959)" fill="#092772"/>
    </g>
  </g>
</svg>
