<svg xmlns="http://www.w3.org/2000/svg" width="70.836" height="95.832" viewBox="0 0 70.836 95.832">
  <g id="np_quality_2754604_000000" transform="translate(-14.582 -2.082)">
    <path id="Path_691" data-name="Path 691" d="M85.418,37.5a35.418,35.418,0,1,0-54.141,30L31.3,95.832a2.044,2.044,0,0,0,1.109,1.832,2.124,2.124,0,0,0,2.141-.109L50,87.223,65.5,97.555a2.207,2.207,0,0,0,1.168.359,2.015,2.015,0,0,0,.973-.25,2.088,2.088,0,0,0,1.109-1.832L68.722,67.5a35.127,35.127,0,0,0,16.695-30ZM51.168,83A2.207,2.207,0,0,0,50,82.641,2,2,0,0,0,48.832,83L35.473,91.945,35.446,69.75a35.027,35.027,0,0,0,29.109,0l.027,22.195ZM50,68.75A31.25,31.25,0,1,1,81.25,37.5,31.3,31.3,0,0,1,50,68.75Z" fill="#2b8fe5"/>
    <path id="Path_692" data-name="Path 692" d="M67.223,29.945,56.614,28.39l-4.75-9.609A2.068,2.068,0,0,0,50,17.671a2.026,2.026,0,0,0-1.859,1.109L43.4,28.39,32.786,29.945a2.118,2.118,0,0,0-1.7,1.418,2.058,2.058,0,0,0,.527,2.141l7.668,7.473-1.8,10.555a2.052,2.052,0,0,0,.832,2.027,2.068,2.068,0,0,0,2.2.141l9.473-5,9.473,4.973a2.094,2.094,0,0,0,2.2-.168,2.066,2.066,0,0,0,.832-2.027l-1.8-10.555,7.668-7.473a2.042,2.042,0,0,0-1.121-3.5ZM57,38.75a2.055,2.055,0,0,0-.609,1.832l1.277,7.473-6.723-3.527a2.184,2.184,0,0,0-1.945,0l-6.723,3.527,1.277-7.473a2.062,2.062,0,0,0-.609-1.832l-5.445-5.3L45,32.363a2.064,2.064,0,0,0,1.555-1.141L50,24.418l3.359,6.8a2.072,2.072,0,0,0,1.555,1.141l7.527,1.082Z" fill="#f0c331"/>
  </g>
</svg>
