<svg xmlns="http://www.w3.org/2000/svg" width="78" height="76" viewBox="0 0 78 76">
  <g id="np_small-business_1208703_000000" transform="translate(-2.43 -3.399)">
    <path id="Path_307" data-name="Path 307" d="M80.41,30.9a1.6,1.6,0,0,0,0-.35v-.057a1.432,1.432,0,0,0-.112-.3v-.048L73.5,17.344a6.561,6.561,0,0,0-5.806-3.5H56.334V9.922A6.539,6.539,0,0,0,49.782,3.4H32.993a6.538,6.538,0,0,0-6.552,6.523v3.921l-10.022,0a6.558,6.558,0,0,0-5.554,3.09L2.609,30.024v.057a1.759,1.759,0,0,0-.131.283v.108a1.637,1.637,0,0,0-.048.309v.083h0V35a7.853,7.853,0,0,0,5.554,7.485V71.245a8.123,8.123,0,0,0,2.4,5.765,8.207,8.207,0,0,0,5.79,2.389H66.687a8.174,8.174,0,0,0,8.19-8.154V42.517a7.867,7.867,0,0,0,5.554-7.485ZM29.718,9.921A3.269,3.269,0,0,1,32.994,6.66H49.782a3.27,3.27,0,0,1,3.276,3.262V21.337H29.718ZM13.642,18.639a3.279,3.279,0,0,1,2.777-1.532H26.442v5.861A1.635,1.635,0,0,0,28.08,24.6H54.7a1.635,1.635,0,0,0,1.638-1.631V17.107h11.36a3.277,3.277,0,0,1,2.9,1.745l5.47,10.406-69.071,0ZM64.68,35.031v1.376a6.672,6.672,0,0,1-13.343,0v-3.88H64.67ZM48.054,36.407a6.67,6.67,0,0,1-13.34,0v-3.88h13.34Zm-16.616,0a6.677,6.677,0,0,1-13.343,0v-3.88h13.35Zm-25.8-1.376v-2.5h9.188v2.5a4.594,4.594,0,0,1-9.188,0ZM35.293,76.136V62.442a6.094,6.094,0,0,1,12.188,0V76.136Zm31.389,0H50.758V62.442a9.37,9.37,0,0,0-18.74,0V76.136H16.09a4.9,4.9,0,0,1-4.914-4.892V42.8a7.836,7.836,0,0,0,4.594-2.217,9.947,9.947,0,0,0,17.314,1.249,9.95,9.95,0,0,0,16.617,0,9.948,9.948,0,0,0,17.307-1.249A7.856,7.856,0,0,0,71.6,42.793V71.243a4.9,4.9,0,0,1-4.914,4.893ZM77.134,35.031a4.594,4.594,0,0,1-9.188,0v-2.5h9.188Z" fill="#2b8fe5"/>
    <path id="Path_308" data-name="Path 308" d="M24.623,64.371a6.269,6.269,0,0,0-6.264,6.254v6.264A1.64,1.64,0,0,0,20,78.528h9.248a1.64,1.64,0,0,0,1.64-1.64V70.625a6.269,6.269,0,0,0-6.264-6.254Zm2.984,10.888-5.969,0v-4.63a2.984,2.984,0,1,1,5.969,0Z" transform="translate(-2.886 -11.315)" fill="#092772"/>
    <path id="Path_309" data-name="Path 309" d="M73.149,64.371H72.1a5.737,5.737,0,0,0-5.738,5.738V76.9A1.64,1.64,0,0,0,68,78.535h9.248a1.64,1.64,0,0,0,1.64-1.64V70.109a5.74,5.74,0,0,0-5.738-5.738Zm2.459,10.888-5.969,0V70.109A2.46,2.46,0,0,1,72.1,67.65h1.05a2.46,2.46,0,0,1,2.459,2.459Z" transform="translate(-11.584 -11.315)" fill="#092772"/>
    <path id="Path_310" data-name="Path 310" d="M53.4,13.9H43.769a1.64,1.64,0,1,0,0,3.279H53.4a1.64,1.64,0,1,0,0-3.279Z" transform="translate(-7.193 -1.892)" fill="#092772"/>
  </g>
</svg>
