<svg xmlns="http://www.w3.org/2000/svg" width="78" height="76.75" viewBox="0 0 78 76.75">
  <g id="np_software_3131672_000000" transform="translate(-2.5 -3.199)">
    <path id="Path_311" data-name="Path 311" d="M76.54,45.835V13.285A10.078,10.078,0,0,0,66.454,3.2H12.586A10.186,10.186,0,0,0,2.5,13.285v40.26A10.078,10.078,0,0,0,12.586,63.631H38.414L49.319,74.537A17.906,17.906,0,0,0,62.275,79.95,18.155,18.155,0,0,0,80.4,63.225c.163-2.05.083-10,.083-11.889v-.083a5.893,5.893,0,0,0-3.94-5.416ZM6.517,13.285a6.052,6.052,0,0,1,6.066-6.066H66.535A6.052,6.052,0,0,1,72.6,13.285v7.626H6.517Zm0,40.26V25.011h66V46a5.708,5.708,0,0,0-5.493-4.263,7.008,7.008,0,0,0-2.213.41,5.708,5.708,0,0,0-5.493-4.263,8.287,8.287,0,0,0-2.05.327V34.77a5.656,5.656,0,1,0-11.312,0V55.185l-2.053-2.05a5.693,5.693,0,0,0-8.036,0,5.569,5.569,0,0,0-1.64,4.016,4.945,4.945,0,0,0,.573,2.46H12.586a6.055,6.055,0,0,1-6.069-6.066ZM76.7,62.564A14.483,14.483,0,0,1,62.192,76.177,14.312,14.312,0,0,1,51.86,71.83l-8.28-8.2-4.02-4.016-1.067-1.067a1.921,1.921,0,0,1-.573-1.393,1.98,1.98,0,0,1,.573-1.393,1.921,1.921,0,0,1,1.393-.573,1.793,1.793,0,0,1,1.393.573l5.083,5.083a1.96,1.96,0,0,0,.9.493c.163,0,.327.083.493,0a1.212,1.212,0,0,0,.493-.163,1.835,1.835,0,0,0,.41-.247c.163-.083.247-.247.327-.327a2.334,2.334,0,0,0,.327-.983l0-24.927a2.05,2.05,0,1,1,4.1,0V51.166a1.8,1.8,0,0,0,3.606,0V43.46a2.05,2.05,0,0,1,4.1,0v7.706a1.8,1.8,0,0,0,3.606,0V47.313a2.05,2.05,0,0,1,4.1,0v5.739a1.82,1.82,0,0,0,1.8,1.8,1.713,1.713,0,0,0,1.64-1.067c.083-.083.083-.247.163-.41,0-.163.083-.247.083-.41v-2.3a1.531,1.531,0,0,1,.573-.983,2.145,2.145,0,0,1,1.393-.573h.41c.083,0,.163.083.247.083h.083c.083.083.247.083.327.163l.247.247.083.083c.083.083.083.163.163.163l.083.083c.083.083.083.163.163.327a2.4,2.4,0,0,1,.163.82c.247,3.933.247,7.706.247,11.479Z" transform="translate(0)" fill="#2b8fe5"/>
    <path id="Path_312" data-name="Path 312" d="M18.685,15.942a2.541,2.541,0,1,1-5.083,0,2.541,2.541,0,1,1,5.083,0" transform="translate(-1.999 -1.837)" fill="#092772"/>
    <path id="Path_313" data-name="Path 313" d="M27.685,15.942a2.541,2.541,0,0,1-5.083,0,2.541,2.541,0,0,1,5.083,0" transform="translate(-3.62 -1.837)" fill="#092772"/>
    <path id="Path_314" data-name="Path 314" d="M36.583,15.942a2.541,2.541,0,1,1-5.083,0,2.541,2.541,0,1,1,5.083,0" transform="translate(-5.222 -1.837)" fill="#092772"/>
  </g>
</svg>
