<svg xmlns="http://www.w3.org/2000/svg" width="89.999" height="88.215" viewBox="0 0 89.999 88.215">
  <g id="np_teamwork_1671988_000000" transform="translate(-5 -3.691)">
    <path id="Path_750" data-name="Path 750" d="M50.047,40.094A11.578,11.578,0,1,0,61.625,51.672,11.593,11.593,0,0,0,50.047,40.094Zm0,19.156a7.578,7.578,0,1,1,7.578-7.578,7.585,7.585,0,0,1-7.578,7.578Z" fill="#2b8fe5"/>
    <path id="Path_751" data-name="Path 751" d="M83.418,63.25A11.578,11.578,0,1,0,71.84,51.672,11.59,11.59,0,0,0,83.418,63.25Zm0-19.156a7.578,7.578,0,1,1-7.578,7.578A7.585,7.585,0,0,1,83.418,44.094Z" fill="#f0c331"/>
    <path id="Path_752" data-name="Path 752" d="M88.156,64.844H81.808a9.863,9.863,0,0,0-7.418,3.367L69.152,74.2a4.189,4.189,0,0,1-2.723,1.391V72.555A7.724,7.724,0,0,0,58.7,64.848H57.457c-.8,0-.844,0-7.414,6.566L44.05,65.422A2,2,0,0,0,42.5,64.84c-.258.008-1.129,0-1.129,0a7.715,7.715,0,0,0-7.707,7.707V75.6a4.164,4.164,0,0,1-2.816-1.4L25.6,68.2a9.851,9.851,0,0,0-7.414-3.371H11.839A6.861,6.861,0,0,0,5,71.676v18.23a2,2,0,0,0,2,2H24.155a2,2,0,0,0,2-2V84.957l.133.121a6.269,6.269,0,0,0,2.2,1.27v3.559a2,2,0,0,0,4,0V86.691h6.441c.09,0,.18-.008.27-.016.125.012.234.016.313.016h21.07c.082,0,.164-.008.246-.012s.156.012.238.012h6.441v3.215a2,2,0,0,0,4,0V86.347a6.219,6.219,0,0,0,2.2-1.27l.133-.121v4.949a2,2,0,0,0,2,2H93a2,2,0,0,0,2-2V71.676a6.844,6.844,0,0,0-6.844-6.832ZM41.371,68.852c.145,0,.293,0,.445,0l6.813,6.813a2,2,0,0,0,2.828,0c2.281-2.281,5.531-5.527,6.82-6.809h.43a3.719,3.719,0,0,1,3.727,3.707v3.086H61.07a5.531,5.531,0,0,0-5.523,5.523,5.439,5.439,0,0,0,.219,1.523H44.239a5.461,5.461,0,0,0,.219-1.523,5.531,5.531,0,0,0-5.523-5.523h-1.27V72.559a3.713,3.713,0,0,1,3.707-3.707ZM23.1,76.809a2,2,0,0,0-2.68,2.969l1.738,1.57v6.559H9V71.676a2.842,2.842,0,0,1,2.844-2.836H18.2a5.853,5.853,0,0,1,4.406,2l5.238,5.992a8.218,8.218,0,0,0,6.18,2.809h4.922a1.523,1.523,0,0,1,0,3.047H30.5a2.249,2.249,0,0,1-1.52-.586ZM91,87.907H77.844V81.348l1.738-1.57a2,2,0,1,0-2.68-2.969l-5.875,5.3a2.256,2.256,0,0,1-1.52.586H61.067a1.523,1.523,0,0,1,0-3.047h4.926a8.2,8.2,0,0,0,6.18-2.809l5.238-6a5.857,5.857,0,0,1,4.406-2h6.352a2.842,2.842,0,0,1,2.844,2.836L91,87.907Z" fill="#2b8fe5"/>
    <path id="Path_753" data-name="Path 753" d="M5,51.672A11.578,11.578,0,1,0,16.582,40.094,11.59,11.59,0,0,0,5,51.672Zm19.156,0a7.578,7.578,0,1,1-7.578-7.578,7.585,7.585,0,0,1,7.578,7.578Z" fill="#f0c331"/>
    <path id="Path_754" data-name="Path 754" d="M48.719,3.691H27.11a9.537,9.537,0,0,0-9.531,9.519V25.539a9.532,9.532,0,0,0,8.891,9.488l-.84,3.066a2,2,0,0,0,2.77,2.34l11.609-5.375h8.711a9.529,9.529,0,0,0,9.52-9.52l0-12.328a9.535,9.535,0,0,0-9.523-9.519Zm5.52,21.848a5.526,5.526,0,0,1-5.52,5.519H39.571c-.012,0-.023,0-.031,0a1.925,1.925,0,0,0-.211.02c-.062.008-.129.012-.187.023s-.1.031-.148.047a1.666,1.666,0,0,0-.234.082c-.008,0-.016,0-.023.008L30.629,35l.387-1.41c0-.02,0-.035.008-.055a1.98,1.98,0,0,0,.035-.211,1.719,1.719,0,0,0,.02-.2c0-.02.008-.039.008-.062,0-.043-.012-.082-.012-.121a2,2,0,0,0-.02-.215c-.012-.062-.027-.125-.043-.184a1.436,1.436,0,0,0-.059-.184,1.492,1.492,0,0,0-.082-.18,1.7,1.7,0,0,0-.09-.164c-.035-.055-.074-.105-.113-.16s-.078-.1-.121-.148-.09-.09-.137-.133a1.436,1.436,0,0,0-.148-.121c-.055-.039-.113-.074-.172-.109a1.263,1.263,0,0,0-.16-.086,1.965,1.965,0,0,0-.211-.082c-.035-.012-.07-.031-.105-.039a.311.311,0,0,1-.059-.012,1.841,1.841,0,0,0-.2-.035,1.277,1.277,0,0,0-.207-.02c-.02,0-.039-.008-.059-.008H27.117a5.531,5.531,0,0,1-5.531-5.519V13.211a5.531,5.531,0,0,1,5.531-5.519h21.6a5.526,5.526,0,0,1,5.52,5.519l0,12.328Z" fill="#2b8fe5"/>
    <path id="Path_755" data-name="Path 755" d="M28.379,16.957H38.07a2,2,0,1,0,0-4H28.379a2,2,0,0,0,0,4Z" fill="#f0c331"/>
    <path id="Path_756" data-name="Path 756" d="M47.441,12.957H44.488a2,2,0,0,0,0,4h2.953a2,2,0,1,0,0-4Z" fill="#f0c331"/>
    <path id="Path_757" data-name="Path 757" d="M32.07,21.793H28.379a2,2,0,0,0,0,4H32.07a2,2,0,0,0,0-4Z" fill="#f0c331"/>
    <path id="Path_758" data-name="Path 758" d="M47.441,21.793H38.652a2,2,0,0,0,0,4h8.789a2,2,0,0,0,0-4Z" fill="#f0c331"/>
  </g>
</svg>
